%TF.GenerationSoftware,KiCad,Pcbnew,7.0.7*%
%TF.CreationDate,2024-02-04T16:52:20-05:00*%
%TF.ProjectId,garden,67617264-656e-42e6-9b69-6361645f7063,rev?*%
%TF.SameCoordinates,Original*%
%TF.FileFunction,Legend,Top*%
%TF.FilePolarity,Positive*%
%FSLAX46Y46*%
G04 Gerber Fmt 4.6, Leading zero omitted, Abs format (unit mm)*
G04 Created by KiCad (PCBNEW 7.0.7) date 2024-02-04 16:52:20*
%MOMM*%
%LPD*%
G01*
G04 APERTURE LIST*
%ADD10C,0.150000*%
%ADD11C,0.120000*%
%ADD12C,0.152400*%
%ADD13C,0.127000*%
%ADD14C,0.250000*%
G04 APERTURE END LIST*
D10*
X161385416Y-81692319D02*
X161052083Y-81216128D01*
X160813988Y-81692319D02*
X160813988Y-80692319D01*
X160813988Y-80692319D02*
X161194940Y-80692319D01*
X161194940Y-80692319D02*
X161290178Y-80739938D01*
X161290178Y-80739938D02*
X161337797Y-80787557D01*
X161337797Y-80787557D02*
X161385416Y-80882795D01*
X161385416Y-80882795D02*
X161385416Y-81025652D01*
X161385416Y-81025652D02*
X161337797Y-81120890D01*
X161337797Y-81120890D02*
X161290178Y-81168509D01*
X161290178Y-81168509D02*
X161194940Y-81216128D01*
X161194940Y-81216128D02*
X160813988Y-81216128D01*
X161813988Y-81168509D02*
X162147321Y-81168509D01*
X162290178Y-81692319D02*
X161813988Y-81692319D01*
X161813988Y-81692319D02*
X161813988Y-80692319D01*
X161813988Y-80692319D02*
X162290178Y-80692319D01*
X163052083Y-81168509D02*
X162718750Y-81168509D01*
X162718750Y-81692319D02*
X162718750Y-80692319D01*
X162718750Y-80692319D02*
X163194940Y-80692319D01*
X163718750Y-80692319D02*
X163718750Y-80930414D01*
X163480655Y-80835176D02*
X163718750Y-80930414D01*
X163718750Y-80930414D02*
X163956845Y-80835176D01*
X163575893Y-81120890D02*
X163718750Y-80930414D01*
X163718750Y-80930414D02*
X163861607Y-81120890D01*
X164480655Y-80692319D02*
X164480655Y-80930414D01*
X164242560Y-80835176D02*
X164480655Y-80930414D01*
X164480655Y-80930414D02*
X164718750Y-80835176D01*
X164337798Y-81120890D02*
X164480655Y-80930414D01*
X164480655Y-80930414D02*
X164623512Y-81120890D01*
X172679464Y-51730823D02*
X172679464Y-50730823D01*
X172679464Y-50730823D02*
X172917559Y-50730823D01*
X172917559Y-50730823D02*
X173060416Y-50778442D01*
X173060416Y-50778442D02*
X173155654Y-50873680D01*
X173155654Y-50873680D02*
X173203273Y-50968918D01*
X173203273Y-50968918D02*
X173250892Y-51159394D01*
X173250892Y-51159394D02*
X173250892Y-51302251D01*
X173250892Y-51302251D02*
X173203273Y-51492727D01*
X173203273Y-51492727D02*
X173155654Y-51587965D01*
X173155654Y-51587965D02*
X173060416Y-51683204D01*
X173060416Y-51683204D02*
X172917559Y-51730823D01*
X172917559Y-51730823D02*
X172679464Y-51730823D01*
X173631845Y-50826061D02*
X173679464Y-50778442D01*
X173679464Y-50778442D02*
X173774702Y-50730823D01*
X173774702Y-50730823D02*
X174012797Y-50730823D01*
X174012797Y-50730823D02*
X174108035Y-50778442D01*
X174108035Y-50778442D02*
X174155654Y-50826061D01*
X174155654Y-50826061D02*
X174203273Y-50921299D01*
X174203273Y-50921299D02*
X174203273Y-51016537D01*
X174203273Y-51016537D02*
X174155654Y-51159394D01*
X174155654Y-51159394D02*
X173584226Y-51730823D01*
X173584226Y-51730823D02*
X174203273Y-51730823D01*
X174774702Y-51159394D02*
X174679464Y-51111775D01*
X174679464Y-51111775D02*
X174631845Y-51064156D01*
X174631845Y-51064156D02*
X174584226Y-50968918D01*
X174584226Y-50968918D02*
X174584226Y-50921299D01*
X174584226Y-50921299D02*
X174631845Y-50826061D01*
X174631845Y-50826061D02*
X174679464Y-50778442D01*
X174679464Y-50778442D02*
X174774702Y-50730823D01*
X174774702Y-50730823D02*
X174965178Y-50730823D01*
X174965178Y-50730823D02*
X175060416Y-50778442D01*
X175060416Y-50778442D02*
X175108035Y-50826061D01*
X175108035Y-50826061D02*
X175155654Y-50921299D01*
X175155654Y-50921299D02*
X175155654Y-50968918D01*
X175155654Y-50968918D02*
X175108035Y-51064156D01*
X175108035Y-51064156D02*
X175060416Y-51111775D01*
X175060416Y-51111775D02*
X174965178Y-51159394D01*
X174965178Y-51159394D02*
X174774702Y-51159394D01*
X174774702Y-51159394D02*
X174679464Y-51207013D01*
X174679464Y-51207013D02*
X174631845Y-51254632D01*
X174631845Y-51254632D02*
X174584226Y-51349870D01*
X174584226Y-51349870D02*
X174584226Y-51540346D01*
X174584226Y-51540346D02*
X174631845Y-51635584D01*
X174631845Y-51635584D02*
X174679464Y-51683204D01*
X174679464Y-51683204D02*
X174774702Y-51730823D01*
X174774702Y-51730823D02*
X174965178Y-51730823D01*
X174965178Y-51730823D02*
X175060416Y-51683204D01*
X175060416Y-51683204D02*
X175108035Y-51635584D01*
X175108035Y-51635584D02*
X175155654Y-51540346D01*
X175155654Y-51540346D02*
X175155654Y-51349870D01*
X175155654Y-51349870D02*
X175108035Y-51254632D01*
X175108035Y-51254632D02*
X175060416Y-51207013D01*
X175060416Y-51207013D02*
X174965178Y-51159394D01*
X50793155Y-92911069D02*
X50793155Y-91911069D01*
X50793155Y-91911069D02*
X51031250Y-91911069D01*
X51031250Y-91911069D02*
X51174107Y-91958688D01*
X51174107Y-91958688D02*
X51269345Y-92053926D01*
X51269345Y-92053926D02*
X51316964Y-92149164D01*
X51316964Y-92149164D02*
X51364583Y-92339640D01*
X51364583Y-92339640D02*
X51364583Y-92482497D01*
X51364583Y-92482497D02*
X51316964Y-92672973D01*
X51316964Y-92672973D02*
X51269345Y-92768211D01*
X51269345Y-92768211D02*
X51174107Y-92863450D01*
X51174107Y-92863450D02*
X51031250Y-92911069D01*
X51031250Y-92911069D02*
X50793155Y-92911069D01*
X51697917Y-91911069D02*
X52316964Y-91911069D01*
X52316964Y-91911069D02*
X51983631Y-92292021D01*
X51983631Y-92292021D02*
X52126488Y-92292021D01*
X52126488Y-92292021D02*
X52221726Y-92339640D01*
X52221726Y-92339640D02*
X52269345Y-92387259D01*
X52269345Y-92387259D02*
X52316964Y-92482497D01*
X52316964Y-92482497D02*
X52316964Y-92720592D01*
X52316964Y-92720592D02*
X52269345Y-92815830D01*
X52269345Y-92815830D02*
X52221726Y-92863450D01*
X52221726Y-92863450D02*
X52126488Y-92911069D01*
X52126488Y-92911069D02*
X51840774Y-92911069D01*
X51840774Y-92911069D02*
X51745536Y-92863450D01*
X51745536Y-92863450D02*
X51697917Y-92815830D01*
X116935416Y-87248569D02*
X116602083Y-86772378D01*
X116363988Y-87248569D02*
X116363988Y-86248569D01*
X116363988Y-86248569D02*
X116744940Y-86248569D01*
X116744940Y-86248569D02*
X116840178Y-86296188D01*
X116840178Y-86296188D02*
X116887797Y-86343807D01*
X116887797Y-86343807D02*
X116935416Y-86439045D01*
X116935416Y-86439045D02*
X116935416Y-86581902D01*
X116935416Y-86581902D02*
X116887797Y-86677140D01*
X116887797Y-86677140D02*
X116840178Y-86724759D01*
X116840178Y-86724759D02*
X116744940Y-86772378D01*
X116744940Y-86772378D02*
X116363988Y-86772378D01*
X117363988Y-86724759D02*
X117697321Y-86724759D01*
X117840178Y-87248569D02*
X117363988Y-87248569D01*
X117363988Y-87248569D02*
X117363988Y-86248569D01*
X117363988Y-86248569D02*
X117840178Y-86248569D01*
X118602083Y-86724759D02*
X118268750Y-86724759D01*
X118268750Y-87248569D02*
X118268750Y-86248569D01*
X118268750Y-86248569D02*
X118744940Y-86248569D01*
X119268750Y-86248569D02*
X119268750Y-86486664D01*
X119030655Y-86391426D02*
X119268750Y-86486664D01*
X119268750Y-86486664D02*
X119506845Y-86391426D01*
X119125893Y-86677140D02*
X119268750Y-86486664D01*
X119268750Y-86486664D02*
X119411607Y-86677140D01*
X120030655Y-86248569D02*
X120030655Y-86486664D01*
X119792560Y-86391426D02*
X120030655Y-86486664D01*
X120030655Y-86486664D02*
X120268750Y-86391426D01*
X119887798Y-86677140D02*
X120030655Y-86486664D01*
X120030655Y-86486664D02*
X120173512Y-86677140D01*
X107466964Y-45286069D02*
X107466964Y-44286069D01*
X107466964Y-44286069D02*
X107705059Y-44286069D01*
X107705059Y-44286069D02*
X107847916Y-44333688D01*
X107847916Y-44333688D02*
X107943154Y-44428926D01*
X107943154Y-44428926D02*
X107990773Y-44524164D01*
X107990773Y-44524164D02*
X108038392Y-44714640D01*
X108038392Y-44714640D02*
X108038392Y-44857497D01*
X108038392Y-44857497D02*
X107990773Y-45047973D01*
X107990773Y-45047973D02*
X107943154Y-45143211D01*
X107943154Y-45143211D02*
X107847916Y-45238450D01*
X107847916Y-45238450D02*
X107705059Y-45286069D01*
X107705059Y-45286069D02*
X107466964Y-45286069D01*
X108990773Y-45286069D02*
X108419345Y-45286069D01*
X108705059Y-45286069D02*
X108705059Y-44286069D01*
X108705059Y-44286069D02*
X108609821Y-44428926D01*
X108609821Y-44428926D02*
X108514583Y-44524164D01*
X108514583Y-44524164D02*
X108419345Y-44571783D01*
X109324107Y-44286069D02*
X109943154Y-44286069D01*
X109943154Y-44286069D02*
X109609821Y-44667021D01*
X109609821Y-44667021D02*
X109752678Y-44667021D01*
X109752678Y-44667021D02*
X109847916Y-44714640D01*
X109847916Y-44714640D02*
X109895535Y-44762259D01*
X109895535Y-44762259D02*
X109943154Y-44857497D01*
X109943154Y-44857497D02*
X109943154Y-45095592D01*
X109943154Y-45095592D02*
X109895535Y-45190830D01*
X109895535Y-45190830D02*
X109847916Y-45238450D01*
X109847916Y-45238450D02*
X109752678Y-45286069D01*
X109752678Y-45286069D02*
X109466964Y-45286069D01*
X109466964Y-45286069D02*
X109371726Y-45238450D01*
X109371726Y-45238450D02*
X109324107Y-45190830D01*
X58991666Y-76136069D02*
X58658333Y-75659878D01*
X58420238Y-76136069D02*
X58420238Y-75136069D01*
X58420238Y-75136069D02*
X58801190Y-75136069D01*
X58801190Y-75136069D02*
X58896428Y-75183688D01*
X58896428Y-75183688D02*
X58944047Y-75231307D01*
X58944047Y-75231307D02*
X58991666Y-75326545D01*
X58991666Y-75326545D02*
X58991666Y-75469402D01*
X58991666Y-75469402D02*
X58944047Y-75564640D01*
X58944047Y-75564640D02*
X58896428Y-75612259D01*
X58896428Y-75612259D02*
X58801190Y-75659878D01*
X58801190Y-75659878D02*
X58420238Y-75659878D01*
X59420238Y-75612259D02*
X59753571Y-75612259D01*
X59896428Y-76136069D02*
X59420238Y-76136069D01*
X59420238Y-76136069D02*
X59420238Y-75136069D01*
X59420238Y-75136069D02*
X59896428Y-75136069D01*
X60658333Y-75612259D02*
X60325000Y-75612259D01*
X60325000Y-76136069D02*
X60325000Y-75136069D01*
X60325000Y-75136069D02*
X60801190Y-75136069D01*
X61325000Y-75136069D02*
X61325000Y-75374164D01*
X61086905Y-75278926D02*
X61325000Y-75374164D01*
X61325000Y-75374164D02*
X61563095Y-75278926D01*
X61182143Y-75564640D02*
X61325000Y-75374164D01*
X61325000Y-75374164D02*
X61467857Y-75564640D01*
X62086905Y-75136069D02*
X62086905Y-75374164D01*
X61848810Y-75278926D02*
X62086905Y-75374164D01*
X62086905Y-75374164D02*
X62325000Y-75278926D01*
X61944048Y-75564640D02*
X62086905Y-75374164D01*
X62086905Y-75374164D02*
X62229762Y-75564640D01*
X172679464Y-70780823D02*
X172679464Y-69780823D01*
X172679464Y-69780823D02*
X172917559Y-69780823D01*
X172917559Y-69780823D02*
X173060416Y-69828442D01*
X173060416Y-69828442D02*
X173155654Y-69923680D01*
X173155654Y-69923680D02*
X173203273Y-70018918D01*
X173203273Y-70018918D02*
X173250892Y-70209394D01*
X173250892Y-70209394D02*
X173250892Y-70352251D01*
X173250892Y-70352251D02*
X173203273Y-70542727D01*
X173203273Y-70542727D02*
X173155654Y-70637965D01*
X173155654Y-70637965D02*
X173060416Y-70733204D01*
X173060416Y-70733204D02*
X172917559Y-70780823D01*
X172917559Y-70780823D02*
X172679464Y-70780823D01*
X173631845Y-69876061D02*
X173679464Y-69828442D01*
X173679464Y-69828442D02*
X173774702Y-69780823D01*
X173774702Y-69780823D02*
X174012797Y-69780823D01*
X174012797Y-69780823D02*
X174108035Y-69828442D01*
X174108035Y-69828442D02*
X174155654Y-69876061D01*
X174155654Y-69876061D02*
X174203273Y-69971299D01*
X174203273Y-69971299D02*
X174203273Y-70066537D01*
X174203273Y-70066537D02*
X174155654Y-70209394D01*
X174155654Y-70209394D02*
X173584226Y-70780823D01*
X173584226Y-70780823D02*
X174203273Y-70780823D01*
X174536607Y-69780823D02*
X175203273Y-69780823D01*
X175203273Y-69780823D02*
X174774702Y-70780823D01*
X39147916Y-79311069D02*
X38814583Y-78834878D01*
X38576488Y-79311069D02*
X38576488Y-78311069D01*
X38576488Y-78311069D02*
X38957440Y-78311069D01*
X38957440Y-78311069D02*
X39052678Y-78358688D01*
X39052678Y-78358688D02*
X39100297Y-78406307D01*
X39100297Y-78406307D02*
X39147916Y-78501545D01*
X39147916Y-78501545D02*
X39147916Y-78644402D01*
X39147916Y-78644402D02*
X39100297Y-78739640D01*
X39100297Y-78739640D02*
X39052678Y-78787259D01*
X39052678Y-78787259D02*
X38957440Y-78834878D01*
X38957440Y-78834878D02*
X38576488Y-78834878D01*
X39576488Y-78787259D02*
X39909821Y-78787259D01*
X40052678Y-79311069D02*
X39576488Y-79311069D01*
X39576488Y-79311069D02*
X39576488Y-78311069D01*
X39576488Y-78311069D02*
X40052678Y-78311069D01*
X40814583Y-78787259D02*
X40481250Y-78787259D01*
X40481250Y-79311069D02*
X40481250Y-78311069D01*
X40481250Y-78311069D02*
X40957440Y-78311069D01*
X41481250Y-78311069D02*
X41481250Y-78549164D01*
X41243155Y-78453926D02*
X41481250Y-78549164D01*
X41481250Y-78549164D02*
X41719345Y-78453926D01*
X41338393Y-78739640D02*
X41481250Y-78549164D01*
X41481250Y-78549164D02*
X41624107Y-78739640D01*
X42243155Y-78311069D02*
X42243155Y-78549164D01*
X42005060Y-78453926D02*
X42243155Y-78549164D01*
X42243155Y-78549164D02*
X42481250Y-78453926D01*
X42100298Y-78739640D02*
X42243155Y-78549164D01*
X42243155Y-78549164D02*
X42386012Y-78739640D01*
X135985416Y-90423569D02*
X135652083Y-89947378D01*
X135413988Y-90423569D02*
X135413988Y-89423569D01*
X135413988Y-89423569D02*
X135794940Y-89423569D01*
X135794940Y-89423569D02*
X135890178Y-89471188D01*
X135890178Y-89471188D02*
X135937797Y-89518807D01*
X135937797Y-89518807D02*
X135985416Y-89614045D01*
X135985416Y-89614045D02*
X135985416Y-89756902D01*
X135985416Y-89756902D02*
X135937797Y-89852140D01*
X135937797Y-89852140D02*
X135890178Y-89899759D01*
X135890178Y-89899759D02*
X135794940Y-89947378D01*
X135794940Y-89947378D02*
X135413988Y-89947378D01*
X136413988Y-89899759D02*
X136747321Y-89899759D01*
X136890178Y-90423569D02*
X136413988Y-90423569D01*
X136413988Y-90423569D02*
X136413988Y-89423569D01*
X136413988Y-89423569D02*
X136890178Y-89423569D01*
X137652083Y-89899759D02*
X137318750Y-89899759D01*
X137318750Y-90423569D02*
X137318750Y-89423569D01*
X137318750Y-89423569D02*
X137794940Y-89423569D01*
X138318750Y-89423569D02*
X138318750Y-89661664D01*
X138080655Y-89566426D02*
X138318750Y-89661664D01*
X138318750Y-89661664D02*
X138556845Y-89566426D01*
X138175893Y-89852140D02*
X138318750Y-89661664D01*
X138318750Y-89661664D02*
X138461607Y-89852140D01*
X139080655Y-89423569D02*
X139080655Y-89661664D01*
X138842560Y-89566426D02*
X139080655Y-89661664D01*
X139080655Y-89661664D02*
X139318750Y-89566426D01*
X138937798Y-89852140D02*
X139080655Y-89661664D01*
X139080655Y-89661664D02*
X139223512Y-89852140D01*
X107466964Y-64336069D02*
X107466964Y-63336069D01*
X107466964Y-63336069D02*
X107705059Y-63336069D01*
X107705059Y-63336069D02*
X107847916Y-63383688D01*
X107847916Y-63383688D02*
X107943154Y-63478926D01*
X107943154Y-63478926D02*
X107990773Y-63574164D01*
X107990773Y-63574164D02*
X108038392Y-63764640D01*
X108038392Y-63764640D02*
X108038392Y-63907497D01*
X108038392Y-63907497D02*
X107990773Y-64097973D01*
X107990773Y-64097973D02*
X107943154Y-64193211D01*
X107943154Y-64193211D02*
X107847916Y-64288450D01*
X107847916Y-64288450D02*
X107705059Y-64336069D01*
X107705059Y-64336069D02*
X107466964Y-64336069D01*
X108990773Y-64336069D02*
X108419345Y-64336069D01*
X108705059Y-64336069D02*
X108705059Y-63336069D01*
X108705059Y-63336069D02*
X108609821Y-63478926D01*
X108609821Y-63478926D02*
X108514583Y-63574164D01*
X108514583Y-63574164D02*
X108419345Y-63621783D01*
X109847916Y-63669402D02*
X109847916Y-64336069D01*
X109609821Y-63288450D02*
X109371726Y-64002735D01*
X109371726Y-64002735D02*
X109990773Y-64002735D01*
X69843155Y-70686069D02*
X69843155Y-69686069D01*
X69843155Y-69686069D02*
X70081250Y-69686069D01*
X70081250Y-69686069D02*
X70224107Y-69733688D01*
X70224107Y-69733688D02*
X70319345Y-69828926D01*
X70319345Y-69828926D02*
X70366964Y-69924164D01*
X70366964Y-69924164D02*
X70414583Y-70114640D01*
X70414583Y-70114640D02*
X70414583Y-70257497D01*
X70414583Y-70257497D02*
X70366964Y-70447973D01*
X70366964Y-70447973D02*
X70319345Y-70543211D01*
X70319345Y-70543211D02*
X70224107Y-70638450D01*
X70224107Y-70638450D02*
X70081250Y-70686069D01*
X70081250Y-70686069D02*
X69843155Y-70686069D01*
X71271726Y-69686069D02*
X71081250Y-69686069D01*
X71081250Y-69686069D02*
X70986012Y-69733688D01*
X70986012Y-69733688D02*
X70938393Y-69781307D01*
X70938393Y-69781307D02*
X70843155Y-69924164D01*
X70843155Y-69924164D02*
X70795536Y-70114640D01*
X70795536Y-70114640D02*
X70795536Y-70495592D01*
X70795536Y-70495592D02*
X70843155Y-70590830D01*
X70843155Y-70590830D02*
X70890774Y-70638450D01*
X70890774Y-70638450D02*
X70986012Y-70686069D01*
X70986012Y-70686069D02*
X71176488Y-70686069D01*
X71176488Y-70686069D02*
X71271726Y-70638450D01*
X71271726Y-70638450D02*
X71319345Y-70590830D01*
X71319345Y-70590830D02*
X71366964Y-70495592D01*
X71366964Y-70495592D02*
X71366964Y-70257497D01*
X71366964Y-70257497D02*
X71319345Y-70162259D01*
X71319345Y-70162259D02*
X71271726Y-70114640D01*
X71271726Y-70114640D02*
X71176488Y-70067021D01*
X71176488Y-70067021D02*
X70986012Y-70067021D01*
X70986012Y-70067021D02*
X70890774Y-70114640D01*
X70890774Y-70114640D02*
X70843155Y-70162259D01*
X70843155Y-70162259D02*
X70795536Y-70257497D01*
X78041666Y-92011069D02*
X77708333Y-91534878D01*
X77470238Y-92011069D02*
X77470238Y-91011069D01*
X77470238Y-91011069D02*
X77851190Y-91011069D01*
X77851190Y-91011069D02*
X77946428Y-91058688D01*
X77946428Y-91058688D02*
X77994047Y-91106307D01*
X77994047Y-91106307D02*
X78041666Y-91201545D01*
X78041666Y-91201545D02*
X78041666Y-91344402D01*
X78041666Y-91344402D02*
X77994047Y-91439640D01*
X77994047Y-91439640D02*
X77946428Y-91487259D01*
X77946428Y-91487259D02*
X77851190Y-91534878D01*
X77851190Y-91534878D02*
X77470238Y-91534878D01*
X78470238Y-91487259D02*
X78803571Y-91487259D01*
X78946428Y-92011069D02*
X78470238Y-92011069D01*
X78470238Y-92011069D02*
X78470238Y-91011069D01*
X78470238Y-91011069D02*
X78946428Y-91011069D01*
X79708333Y-91487259D02*
X79375000Y-91487259D01*
X79375000Y-92011069D02*
X79375000Y-91011069D01*
X79375000Y-91011069D02*
X79851190Y-91011069D01*
X80375000Y-91011069D02*
X80375000Y-91249164D01*
X80136905Y-91153926D02*
X80375000Y-91249164D01*
X80375000Y-91249164D02*
X80613095Y-91153926D01*
X80232143Y-91439640D02*
X80375000Y-91249164D01*
X80375000Y-91249164D02*
X80517857Y-91439640D01*
X81136905Y-91011069D02*
X81136905Y-91249164D01*
X80898810Y-91153926D02*
X81136905Y-91249164D01*
X81136905Y-91249164D02*
X81375000Y-91153926D01*
X80994048Y-91439640D02*
X81136905Y-91249164D01*
X81136905Y-91249164D02*
X81279762Y-91439640D01*
X97091666Y-88042319D02*
X96758333Y-87566128D01*
X96520238Y-88042319D02*
X96520238Y-87042319D01*
X96520238Y-87042319D02*
X96901190Y-87042319D01*
X96901190Y-87042319D02*
X96996428Y-87089938D01*
X96996428Y-87089938D02*
X97044047Y-87137557D01*
X97044047Y-87137557D02*
X97091666Y-87232795D01*
X97091666Y-87232795D02*
X97091666Y-87375652D01*
X97091666Y-87375652D02*
X97044047Y-87470890D01*
X97044047Y-87470890D02*
X96996428Y-87518509D01*
X96996428Y-87518509D02*
X96901190Y-87566128D01*
X96901190Y-87566128D02*
X96520238Y-87566128D01*
X97520238Y-87518509D02*
X97853571Y-87518509D01*
X97996428Y-88042319D02*
X97520238Y-88042319D01*
X97520238Y-88042319D02*
X97520238Y-87042319D01*
X97520238Y-87042319D02*
X97996428Y-87042319D01*
X98758333Y-87518509D02*
X98425000Y-87518509D01*
X98425000Y-88042319D02*
X98425000Y-87042319D01*
X98425000Y-87042319D02*
X98901190Y-87042319D01*
X99425000Y-87042319D02*
X99425000Y-87280414D01*
X99186905Y-87185176D02*
X99425000Y-87280414D01*
X99425000Y-87280414D02*
X99663095Y-87185176D01*
X99282143Y-87470890D02*
X99425000Y-87280414D01*
X99425000Y-87280414D02*
X99567857Y-87470890D01*
X100186905Y-87042319D02*
X100186905Y-87280414D01*
X99948810Y-87185176D02*
X100186905Y-87280414D01*
X100186905Y-87280414D02*
X100425000Y-87185176D01*
X100044048Y-87470890D02*
X100186905Y-87280414D01*
X100186905Y-87280414D02*
X100329762Y-87470890D01*
X78041666Y-72961069D02*
X77708333Y-72484878D01*
X77470238Y-72961069D02*
X77470238Y-71961069D01*
X77470238Y-71961069D02*
X77851190Y-71961069D01*
X77851190Y-71961069D02*
X77946428Y-72008688D01*
X77946428Y-72008688D02*
X77994047Y-72056307D01*
X77994047Y-72056307D02*
X78041666Y-72151545D01*
X78041666Y-72151545D02*
X78041666Y-72294402D01*
X78041666Y-72294402D02*
X77994047Y-72389640D01*
X77994047Y-72389640D02*
X77946428Y-72437259D01*
X77946428Y-72437259D02*
X77851190Y-72484878D01*
X77851190Y-72484878D02*
X77470238Y-72484878D01*
X78470238Y-72437259D02*
X78803571Y-72437259D01*
X78946428Y-72961069D02*
X78470238Y-72961069D01*
X78470238Y-72961069D02*
X78470238Y-71961069D01*
X78470238Y-71961069D02*
X78946428Y-71961069D01*
X79708333Y-72437259D02*
X79375000Y-72437259D01*
X79375000Y-72961069D02*
X79375000Y-71961069D01*
X79375000Y-71961069D02*
X79851190Y-71961069D01*
X80375000Y-71961069D02*
X80375000Y-72199164D01*
X80136905Y-72103926D02*
X80375000Y-72199164D01*
X80375000Y-72199164D02*
X80613095Y-72103926D01*
X80232143Y-72389640D02*
X80375000Y-72199164D01*
X80375000Y-72199164D02*
X80517857Y-72389640D01*
X81136905Y-71961069D02*
X81136905Y-72199164D01*
X80898810Y-72103926D02*
X81136905Y-72199164D01*
X81136905Y-72199164D02*
X81375000Y-72103926D01*
X80994048Y-72389640D02*
X81136905Y-72199164D01*
X81136905Y-72199164D02*
X81279762Y-72389640D01*
X126516964Y-48461069D02*
X126516964Y-47461069D01*
X126516964Y-47461069D02*
X126755059Y-47461069D01*
X126755059Y-47461069D02*
X126897916Y-47508688D01*
X126897916Y-47508688D02*
X126993154Y-47603926D01*
X126993154Y-47603926D02*
X127040773Y-47699164D01*
X127040773Y-47699164D02*
X127088392Y-47889640D01*
X127088392Y-47889640D02*
X127088392Y-48032497D01*
X127088392Y-48032497D02*
X127040773Y-48222973D01*
X127040773Y-48222973D02*
X126993154Y-48318211D01*
X126993154Y-48318211D02*
X126897916Y-48413450D01*
X126897916Y-48413450D02*
X126755059Y-48461069D01*
X126755059Y-48461069D02*
X126516964Y-48461069D01*
X128040773Y-48461069D02*
X127469345Y-48461069D01*
X127755059Y-48461069D02*
X127755059Y-47461069D01*
X127755059Y-47461069D02*
X127659821Y-47603926D01*
X127659821Y-47603926D02*
X127564583Y-47699164D01*
X127564583Y-47699164D02*
X127469345Y-47746783D01*
X128374107Y-47461069D02*
X129040773Y-47461069D01*
X129040773Y-47461069D02*
X128612202Y-48461069D01*
X135985416Y-71373569D02*
X135652083Y-70897378D01*
X135413988Y-71373569D02*
X135413988Y-70373569D01*
X135413988Y-70373569D02*
X135794940Y-70373569D01*
X135794940Y-70373569D02*
X135890178Y-70421188D01*
X135890178Y-70421188D02*
X135937797Y-70468807D01*
X135937797Y-70468807D02*
X135985416Y-70564045D01*
X135985416Y-70564045D02*
X135985416Y-70706902D01*
X135985416Y-70706902D02*
X135937797Y-70802140D01*
X135937797Y-70802140D02*
X135890178Y-70849759D01*
X135890178Y-70849759D02*
X135794940Y-70897378D01*
X135794940Y-70897378D02*
X135413988Y-70897378D01*
X136413988Y-70849759D02*
X136747321Y-70849759D01*
X136890178Y-71373569D02*
X136413988Y-71373569D01*
X136413988Y-71373569D02*
X136413988Y-70373569D01*
X136413988Y-70373569D02*
X136890178Y-70373569D01*
X137652083Y-70849759D02*
X137318750Y-70849759D01*
X137318750Y-71373569D02*
X137318750Y-70373569D01*
X137318750Y-70373569D02*
X137794940Y-70373569D01*
X138318750Y-70373569D02*
X138318750Y-70611664D01*
X138080655Y-70516426D02*
X138318750Y-70611664D01*
X138318750Y-70611664D02*
X138556845Y-70516426D01*
X138175893Y-70802140D02*
X138318750Y-70611664D01*
X138318750Y-70611664D02*
X138461607Y-70802140D01*
X139080655Y-70373569D02*
X139080655Y-70611664D01*
X138842560Y-70516426D02*
X139080655Y-70611664D01*
X139080655Y-70611664D02*
X139318750Y-70516426D01*
X138937798Y-70802140D02*
X139080655Y-70611664D01*
X139080655Y-70611664D02*
X139223512Y-70802140D01*
X145566964Y-108786069D02*
X145566964Y-107786069D01*
X145566964Y-107786069D02*
X145805059Y-107786069D01*
X145805059Y-107786069D02*
X145947916Y-107833688D01*
X145947916Y-107833688D02*
X146043154Y-107928926D01*
X146043154Y-107928926D02*
X146090773Y-108024164D01*
X146090773Y-108024164D02*
X146138392Y-108214640D01*
X146138392Y-108214640D02*
X146138392Y-108357497D01*
X146138392Y-108357497D02*
X146090773Y-108547973D01*
X146090773Y-108547973D02*
X146043154Y-108643211D01*
X146043154Y-108643211D02*
X145947916Y-108738450D01*
X145947916Y-108738450D02*
X145805059Y-108786069D01*
X145805059Y-108786069D02*
X145566964Y-108786069D01*
X146519345Y-107881307D02*
X146566964Y-107833688D01*
X146566964Y-107833688D02*
X146662202Y-107786069D01*
X146662202Y-107786069D02*
X146900297Y-107786069D01*
X146900297Y-107786069D02*
X146995535Y-107833688D01*
X146995535Y-107833688D02*
X147043154Y-107881307D01*
X147043154Y-107881307D02*
X147090773Y-107976545D01*
X147090773Y-107976545D02*
X147090773Y-108071783D01*
X147090773Y-108071783D02*
X147043154Y-108214640D01*
X147043154Y-108214640D02*
X146471726Y-108786069D01*
X146471726Y-108786069D02*
X147090773Y-108786069D01*
X147947916Y-108119402D02*
X147947916Y-108786069D01*
X147709821Y-107738450D02*
X147471726Y-108452735D01*
X147471726Y-108452735D02*
X148090773Y-108452735D01*
X31998569Y-114925654D02*
X31998569Y-114354226D01*
X32998569Y-114639940D02*
X31998569Y-114639940D01*
X32998569Y-113449464D02*
X32522378Y-113782797D01*
X32998569Y-114020892D02*
X31998569Y-114020892D01*
X31998569Y-114020892D02*
X31998569Y-113639940D01*
X31998569Y-113639940D02*
X32046188Y-113544702D01*
X32046188Y-113544702D02*
X32093807Y-113497083D01*
X32093807Y-113497083D02*
X32189045Y-113449464D01*
X32189045Y-113449464D02*
X32331902Y-113449464D01*
X32331902Y-113449464D02*
X32427140Y-113497083D01*
X32427140Y-113497083D02*
X32474759Y-113544702D01*
X32474759Y-113544702D02*
X32522378Y-113639940D01*
X32522378Y-113639940D02*
X32522378Y-114020892D01*
X32998569Y-112449464D02*
X32522378Y-112782797D01*
X32998569Y-113020892D02*
X31998569Y-113020892D01*
X31998569Y-113020892D02*
X31998569Y-112639940D01*
X31998569Y-112639940D02*
X32046188Y-112544702D01*
X32046188Y-112544702D02*
X32093807Y-112497083D01*
X32093807Y-112497083D02*
X32189045Y-112449464D01*
X32189045Y-112449464D02*
X32331902Y-112449464D01*
X32331902Y-112449464D02*
X32427140Y-112497083D01*
X32427140Y-112497083D02*
X32474759Y-112544702D01*
X32474759Y-112544702D02*
X32522378Y-112639940D01*
X32522378Y-112639940D02*
X32522378Y-113020892D01*
X32950950Y-112068511D02*
X32998569Y-111925654D01*
X32998569Y-111925654D02*
X32998569Y-111687559D01*
X32998569Y-111687559D02*
X32950950Y-111592321D01*
X32950950Y-111592321D02*
X32903330Y-111544702D01*
X32903330Y-111544702D02*
X32808092Y-111497083D01*
X32808092Y-111497083D02*
X32712854Y-111497083D01*
X32712854Y-111497083D02*
X32617616Y-111544702D01*
X32617616Y-111544702D02*
X32569997Y-111592321D01*
X32569997Y-111592321D02*
X32522378Y-111687559D01*
X32522378Y-111687559D02*
X32474759Y-111878035D01*
X32474759Y-111878035D02*
X32427140Y-111973273D01*
X32427140Y-111973273D02*
X32379521Y-112020892D01*
X32379521Y-112020892D02*
X32284283Y-112068511D01*
X32284283Y-112068511D02*
X32189045Y-112068511D01*
X32189045Y-112068511D02*
X32093807Y-112020892D01*
X32093807Y-112020892D02*
X32046188Y-111973273D01*
X32046188Y-111973273D02*
X31998569Y-111878035D01*
X31998569Y-111878035D02*
X31998569Y-111639940D01*
X31998569Y-111639940D02*
X32046188Y-111497083D01*
X145566964Y-51636069D02*
X145566964Y-50636069D01*
X145566964Y-50636069D02*
X145805059Y-50636069D01*
X145805059Y-50636069D02*
X145947916Y-50683688D01*
X145947916Y-50683688D02*
X146043154Y-50778926D01*
X146043154Y-50778926D02*
X146090773Y-50874164D01*
X146090773Y-50874164D02*
X146138392Y-51064640D01*
X146138392Y-51064640D02*
X146138392Y-51207497D01*
X146138392Y-51207497D02*
X146090773Y-51397973D01*
X146090773Y-51397973D02*
X146043154Y-51493211D01*
X146043154Y-51493211D02*
X145947916Y-51588450D01*
X145947916Y-51588450D02*
X145805059Y-51636069D01*
X145805059Y-51636069D02*
X145566964Y-51636069D01*
X146519345Y-50731307D02*
X146566964Y-50683688D01*
X146566964Y-50683688D02*
X146662202Y-50636069D01*
X146662202Y-50636069D02*
X146900297Y-50636069D01*
X146900297Y-50636069D02*
X146995535Y-50683688D01*
X146995535Y-50683688D02*
X147043154Y-50731307D01*
X147043154Y-50731307D02*
X147090773Y-50826545D01*
X147090773Y-50826545D02*
X147090773Y-50921783D01*
X147090773Y-50921783D02*
X147043154Y-51064640D01*
X147043154Y-51064640D02*
X146471726Y-51636069D01*
X146471726Y-51636069D02*
X147090773Y-51636069D01*
X148043154Y-51636069D02*
X147471726Y-51636069D01*
X147757440Y-51636069D02*
X147757440Y-50636069D01*
X147757440Y-50636069D02*
X147662202Y-50778926D01*
X147662202Y-50778926D02*
X147566964Y-50874164D01*
X147566964Y-50874164D02*
X147471726Y-50921783D01*
X58991666Y-57086069D02*
X58658333Y-56609878D01*
X58420238Y-57086069D02*
X58420238Y-56086069D01*
X58420238Y-56086069D02*
X58801190Y-56086069D01*
X58801190Y-56086069D02*
X58896428Y-56133688D01*
X58896428Y-56133688D02*
X58944047Y-56181307D01*
X58944047Y-56181307D02*
X58991666Y-56276545D01*
X58991666Y-56276545D02*
X58991666Y-56419402D01*
X58991666Y-56419402D02*
X58944047Y-56514640D01*
X58944047Y-56514640D02*
X58896428Y-56562259D01*
X58896428Y-56562259D02*
X58801190Y-56609878D01*
X58801190Y-56609878D02*
X58420238Y-56609878D01*
X59420238Y-56562259D02*
X59753571Y-56562259D01*
X59896428Y-57086069D02*
X59420238Y-57086069D01*
X59420238Y-57086069D02*
X59420238Y-56086069D01*
X59420238Y-56086069D02*
X59896428Y-56086069D01*
X60658333Y-56562259D02*
X60325000Y-56562259D01*
X60325000Y-57086069D02*
X60325000Y-56086069D01*
X60325000Y-56086069D02*
X60801190Y-56086069D01*
X61325000Y-56086069D02*
X61325000Y-56324164D01*
X61086905Y-56228926D02*
X61325000Y-56324164D01*
X61325000Y-56324164D02*
X61563095Y-56228926D01*
X61182143Y-56514640D02*
X61325000Y-56324164D01*
X61325000Y-56324164D02*
X61467857Y-56514640D01*
X62086905Y-56086069D02*
X62086905Y-56324164D01*
X61848810Y-56228926D02*
X62086905Y-56324164D01*
X62086905Y-56324164D02*
X62325000Y-56228926D01*
X61944048Y-56514640D02*
X62086905Y-56324164D01*
X62086905Y-56324164D02*
X62229762Y-56514640D01*
X197104166Y-96773569D02*
X196770833Y-96297378D01*
X196532738Y-96773569D02*
X196532738Y-95773569D01*
X196532738Y-95773569D02*
X196913690Y-95773569D01*
X196913690Y-95773569D02*
X197008928Y-95821188D01*
X197008928Y-95821188D02*
X197056547Y-95868807D01*
X197056547Y-95868807D02*
X197104166Y-95964045D01*
X197104166Y-95964045D02*
X197104166Y-96106902D01*
X197104166Y-96106902D02*
X197056547Y-96202140D01*
X197056547Y-96202140D02*
X197008928Y-96249759D01*
X197008928Y-96249759D02*
X196913690Y-96297378D01*
X196913690Y-96297378D02*
X196532738Y-96297378D01*
X197532738Y-96249759D02*
X197866071Y-96249759D01*
X198008928Y-96773569D02*
X197532738Y-96773569D01*
X197532738Y-96773569D02*
X197532738Y-95773569D01*
X197532738Y-95773569D02*
X198008928Y-95773569D01*
X198770833Y-96249759D02*
X198437500Y-96249759D01*
X198437500Y-96773569D02*
X198437500Y-95773569D01*
X198437500Y-95773569D02*
X198913690Y-95773569D01*
X199437500Y-95773569D02*
X199437500Y-96011664D01*
X199199405Y-95916426D02*
X199437500Y-96011664D01*
X199437500Y-96011664D02*
X199675595Y-95916426D01*
X199294643Y-96202140D02*
X199437500Y-96011664D01*
X199437500Y-96011664D02*
X199580357Y-96202140D01*
X200199405Y-95773569D02*
X200199405Y-96011664D01*
X199961310Y-95916426D02*
X200199405Y-96011664D01*
X200199405Y-96011664D02*
X200437500Y-95916426D01*
X200056548Y-96202140D02*
X200199405Y-96011664D01*
X200199405Y-96011664D02*
X200342262Y-96202140D01*
X193831548Y-83054514D02*
X192831548Y-83054514D01*
X192831548Y-83054514D02*
X192831548Y-82816419D01*
X192831548Y-82816419D02*
X192879167Y-82673562D01*
X192879167Y-82673562D02*
X192974405Y-82578324D01*
X192974405Y-82578324D02*
X193069643Y-82530705D01*
X193069643Y-82530705D02*
X193260119Y-82483086D01*
X193260119Y-82483086D02*
X193402976Y-82483086D01*
X193402976Y-82483086D02*
X193593452Y-82530705D01*
X193593452Y-82530705D02*
X193688690Y-82578324D01*
X193688690Y-82578324D02*
X193783929Y-82673562D01*
X193783929Y-82673562D02*
X193831548Y-82816419D01*
X193831548Y-82816419D02*
X193831548Y-83054514D01*
X192926786Y-82102133D02*
X192879167Y-82054514D01*
X192879167Y-82054514D02*
X192831548Y-81959276D01*
X192831548Y-81959276D02*
X192831548Y-81721181D01*
X192831548Y-81721181D02*
X192879167Y-81625943D01*
X192879167Y-81625943D02*
X192926786Y-81578324D01*
X192926786Y-81578324D02*
X193022024Y-81530705D01*
X193022024Y-81530705D02*
X193117262Y-81530705D01*
X193117262Y-81530705D02*
X193260119Y-81578324D01*
X193260119Y-81578324D02*
X193831548Y-82149752D01*
X193831548Y-82149752D02*
X193831548Y-81530705D01*
X192831548Y-80625943D02*
X192831548Y-81102133D01*
X192831548Y-81102133D02*
X193307738Y-81149752D01*
X193307738Y-81149752D02*
X193260119Y-81102133D01*
X193260119Y-81102133D02*
X193212500Y-81006895D01*
X193212500Y-81006895D02*
X193212500Y-80768800D01*
X193212500Y-80768800D02*
X193260119Y-80673562D01*
X193260119Y-80673562D02*
X193307738Y-80625943D01*
X193307738Y-80625943D02*
X193402976Y-80578324D01*
X193402976Y-80578324D02*
X193641071Y-80578324D01*
X193641071Y-80578324D02*
X193736309Y-80625943D01*
X193736309Y-80625943D02*
X193783929Y-80673562D01*
X193783929Y-80673562D02*
X193831548Y-80768800D01*
X193831548Y-80768800D02*
X193831548Y-81006895D01*
X193831548Y-81006895D02*
X193783929Y-81102133D01*
X193783929Y-81102133D02*
X193736309Y-81149752D01*
X50793155Y-73861069D02*
X50793155Y-72861069D01*
X50793155Y-72861069D02*
X51031250Y-72861069D01*
X51031250Y-72861069D02*
X51174107Y-72908688D01*
X51174107Y-72908688D02*
X51269345Y-73003926D01*
X51269345Y-73003926D02*
X51316964Y-73099164D01*
X51316964Y-73099164D02*
X51364583Y-73289640D01*
X51364583Y-73289640D02*
X51364583Y-73432497D01*
X51364583Y-73432497D02*
X51316964Y-73622973D01*
X51316964Y-73622973D02*
X51269345Y-73718211D01*
X51269345Y-73718211D02*
X51174107Y-73813450D01*
X51174107Y-73813450D02*
X51031250Y-73861069D01*
X51031250Y-73861069D02*
X50793155Y-73861069D01*
X51745536Y-72956307D02*
X51793155Y-72908688D01*
X51793155Y-72908688D02*
X51888393Y-72861069D01*
X51888393Y-72861069D02*
X52126488Y-72861069D01*
X52126488Y-72861069D02*
X52221726Y-72908688D01*
X52221726Y-72908688D02*
X52269345Y-72956307D01*
X52269345Y-72956307D02*
X52316964Y-73051545D01*
X52316964Y-73051545D02*
X52316964Y-73146783D01*
X52316964Y-73146783D02*
X52269345Y-73289640D01*
X52269345Y-73289640D02*
X51697917Y-73861069D01*
X51697917Y-73861069D02*
X52316964Y-73861069D01*
X69843155Y-51636069D02*
X69843155Y-50636069D01*
X69843155Y-50636069D02*
X70081250Y-50636069D01*
X70081250Y-50636069D02*
X70224107Y-50683688D01*
X70224107Y-50683688D02*
X70319345Y-50778926D01*
X70319345Y-50778926D02*
X70366964Y-50874164D01*
X70366964Y-50874164D02*
X70414583Y-51064640D01*
X70414583Y-51064640D02*
X70414583Y-51207497D01*
X70414583Y-51207497D02*
X70366964Y-51397973D01*
X70366964Y-51397973D02*
X70319345Y-51493211D01*
X70319345Y-51493211D02*
X70224107Y-51588450D01*
X70224107Y-51588450D02*
X70081250Y-51636069D01*
X70081250Y-51636069D02*
X69843155Y-51636069D01*
X71319345Y-50636069D02*
X70843155Y-50636069D01*
X70843155Y-50636069D02*
X70795536Y-51112259D01*
X70795536Y-51112259D02*
X70843155Y-51064640D01*
X70843155Y-51064640D02*
X70938393Y-51017021D01*
X70938393Y-51017021D02*
X71176488Y-51017021D01*
X71176488Y-51017021D02*
X71271726Y-51064640D01*
X71271726Y-51064640D02*
X71319345Y-51112259D01*
X71319345Y-51112259D02*
X71366964Y-51207497D01*
X71366964Y-51207497D02*
X71366964Y-51445592D01*
X71366964Y-51445592D02*
X71319345Y-51540830D01*
X71319345Y-51540830D02*
X71271726Y-51588450D01*
X71271726Y-51588450D02*
X71176488Y-51636069D01*
X71176488Y-51636069D02*
X70938393Y-51636069D01*
X70938393Y-51636069D02*
X70843155Y-51588450D01*
X70843155Y-51588450D02*
X70795536Y-51540830D01*
X126516964Y-67511069D02*
X126516964Y-66511069D01*
X126516964Y-66511069D02*
X126755059Y-66511069D01*
X126755059Y-66511069D02*
X126897916Y-66558688D01*
X126897916Y-66558688D02*
X126993154Y-66653926D01*
X126993154Y-66653926D02*
X127040773Y-66749164D01*
X127040773Y-66749164D02*
X127088392Y-66939640D01*
X127088392Y-66939640D02*
X127088392Y-67082497D01*
X127088392Y-67082497D02*
X127040773Y-67272973D01*
X127040773Y-67272973D02*
X126993154Y-67368211D01*
X126993154Y-67368211D02*
X126897916Y-67463450D01*
X126897916Y-67463450D02*
X126755059Y-67511069D01*
X126755059Y-67511069D02*
X126516964Y-67511069D01*
X128040773Y-67511069D02*
X127469345Y-67511069D01*
X127755059Y-67511069D02*
X127755059Y-66511069D01*
X127755059Y-66511069D02*
X127659821Y-66653926D01*
X127659821Y-66653926D02*
X127564583Y-66749164D01*
X127564583Y-66749164D02*
X127469345Y-66796783D01*
X128612202Y-66939640D02*
X128516964Y-66892021D01*
X128516964Y-66892021D02*
X128469345Y-66844402D01*
X128469345Y-66844402D02*
X128421726Y-66749164D01*
X128421726Y-66749164D02*
X128421726Y-66701545D01*
X128421726Y-66701545D02*
X128469345Y-66606307D01*
X128469345Y-66606307D02*
X128516964Y-66558688D01*
X128516964Y-66558688D02*
X128612202Y-66511069D01*
X128612202Y-66511069D02*
X128802678Y-66511069D01*
X128802678Y-66511069D02*
X128897916Y-66558688D01*
X128897916Y-66558688D02*
X128945535Y-66606307D01*
X128945535Y-66606307D02*
X128993154Y-66701545D01*
X128993154Y-66701545D02*
X128993154Y-66749164D01*
X128993154Y-66749164D02*
X128945535Y-66844402D01*
X128945535Y-66844402D02*
X128897916Y-66892021D01*
X128897916Y-66892021D02*
X128802678Y-66939640D01*
X128802678Y-66939640D02*
X128612202Y-66939640D01*
X128612202Y-66939640D02*
X128516964Y-66987259D01*
X128516964Y-66987259D02*
X128469345Y-67034878D01*
X128469345Y-67034878D02*
X128421726Y-67130116D01*
X128421726Y-67130116D02*
X128421726Y-67320592D01*
X128421726Y-67320592D02*
X128469345Y-67415830D01*
X128469345Y-67415830D02*
X128516964Y-67463450D01*
X128516964Y-67463450D02*
X128612202Y-67511069D01*
X128612202Y-67511069D02*
X128802678Y-67511069D01*
X128802678Y-67511069D02*
X128897916Y-67463450D01*
X128897916Y-67463450D02*
X128945535Y-67415830D01*
X128945535Y-67415830D02*
X128993154Y-67320592D01*
X128993154Y-67320592D02*
X128993154Y-67130116D01*
X128993154Y-67130116D02*
X128945535Y-67034878D01*
X128945535Y-67034878D02*
X128897916Y-66987259D01*
X128897916Y-66987259D02*
X128802678Y-66939640D01*
X135985416Y-52323569D02*
X135652083Y-51847378D01*
X135413988Y-52323569D02*
X135413988Y-51323569D01*
X135413988Y-51323569D02*
X135794940Y-51323569D01*
X135794940Y-51323569D02*
X135890178Y-51371188D01*
X135890178Y-51371188D02*
X135937797Y-51418807D01*
X135937797Y-51418807D02*
X135985416Y-51514045D01*
X135985416Y-51514045D02*
X135985416Y-51656902D01*
X135985416Y-51656902D02*
X135937797Y-51752140D01*
X135937797Y-51752140D02*
X135890178Y-51799759D01*
X135890178Y-51799759D02*
X135794940Y-51847378D01*
X135794940Y-51847378D02*
X135413988Y-51847378D01*
X136413988Y-51799759D02*
X136747321Y-51799759D01*
X136890178Y-52323569D02*
X136413988Y-52323569D01*
X136413988Y-52323569D02*
X136413988Y-51323569D01*
X136413988Y-51323569D02*
X136890178Y-51323569D01*
X137652083Y-51799759D02*
X137318750Y-51799759D01*
X137318750Y-52323569D02*
X137318750Y-51323569D01*
X137318750Y-51323569D02*
X137794940Y-51323569D01*
X138318750Y-51323569D02*
X138318750Y-51561664D01*
X138080655Y-51466426D02*
X138318750Y-51561664D01*
X138318750Y-51561664D02*
X138556845Y-51466426D01*
X138175893Y-51752140D02*
X138318750Y-51561664D01*
X138318750Y-51561664D02*
X138461607Y-51752140D01*
X139080655Y-51323569D02*
X139080655Y-51561664D01*
X138842560Y-51466426D02*
X139080655Y-51561664D01*
X139080655Y-51561664D02*
X139318750Y-51466426D01*
X138937798Y-51752140D02*
X139080655Y-51561664D01*
X139080655Y-51561664D02*
X139223512Y-51752140D01*
X172679464Y-89830823D02*
X172679464Y-88830823D01*
X172679464Y-88830823D02*
X172917559Y-88830823D01*
X172917559Y-88830823D02*
X173060416Y-88878442D01*
X173060416Y-88878442D02*
X173155654Y-88973680D01*
X173155654Y-88973680D02*
X173203273Y-89068918D01*
X173203273Y-89068918D02*
X173250892Y-89259394D01*
X173250892Y-89259394D02*
X173250892Y-89402251D01*
X173250892Y-89402251D02*
X173203273Y-89592727D01*
X173203273Y-89592727D02*
X173155654Y-89687965D01*
X173155654Y-89687965D02*
X173060416Y-89783204D01*
X173060416Y-89783204D02*
X172917559Y-89830823D01*
X172917559Y-89830823D02*
X172679464Y-89830823D01*
X173631845Y-88926061D02*
X173679464Y-88878442D01*
X173679464Y-88878442D02*
X173774702Y-88830823D01*
X173774702Y-88830823D02*
X174012797Y-88830823D01*
X174012797Y-88830823D02*
X174108035Y-88878442D01*
X174108035Y-88878442D02*
X174155654Y-88926061D01*
X174155654Y-88926061D02*
X174203273Y-89021299D01*
X174203273Y-89021299D02*
X174203273Y-89116537D01*
X174203273Y-89116537D02*
X174155654Y-89259394D01*
X174155654Y-89259394D02*
X173584226Y-89830823D01*
X173584226Y-89830823D02*
X174203273Y-89830823D01*
X175060416Y-88830823D02*
X174869940Y-88830823D01*
X174869940Y-88830823D02*
X174774702Y-88878442D01*
X174774702Y-88878442D02*
X174727083Y-88926061D01*
X174727083Y-88926061D02*
X174631845Y-89068918D01*
X174631845Y-89068918D02*
X174584226Y-89259394D01*
X174584226Y-89259394D02*
X174584226Y-89640346D01*
X174584226Y-89640346D02*
X174631845Y-89735584D01*
X174631845Y-89735584D02*
X174679464Y-89783204D01*
X174679464Y-89783204D02*
X174774702Y-89830823D01*
X174774702Y-89830823D02*
X174965178Y-89830823D01*
X174965178Y-89830823D02*
X175060416Y-89783204D01*
X175060416Y-89783204D02*
X175108035Y-89735584D01*
X175108035Y-89735584D02*
X175155654Y-89640346D01*
X175155654Y-89640346D02*
X175155654Y-89402251D01*
X175155654Y-89402251D02*
X175108035Y-89307013D01*
X175108035Y-89307013D02*
X175060416Y-89259394D01*
X175060416Y-89259394D02*
X174965178Y-89211775D01*
X174965178Y-89211775D02*
X174774702Y-89211775D01*
X174774702Y-89211775D02*
X174679464Y-89259394D01*
X174679464Y-89259394D02*
X174631845Y-89307013D01*
X174631845Y-89307013D02*
X174584226Y-89402251D01*
X97091666Y-49942319D02*
X96758333Y-49466128D01*
X96520238Y-49942319D02*
X96520238Y-48942319D01*
X96520238Y-48942319D02*
X96901190Y-48942319D01*
X96901190Y-48942319D02*
X96996428Y-48989938D01*
X96996428Y-48989938D02*
X97044047Y-49037557D01*
X97044047Y-49037557D02*
X97091666Y-49132795D01*
X97091666Y-49132795D02*
X97091666Y-49275652D01*
X97091666Y-49275652D02*
X97044047Y-49370890D01*
X97044047Y-49370890D02*
X96996428Y-49418509D01*
X96996428Y-49418509D02*
X96901190Y-49466128D01*
X96901190Y-49466128D02*
X96520238Y-49466128D01*
X97520238Y-49418509D02*
X97853571Y-49418509D01*
X97996428Y-49942319D02*
X97520238Y-49942319D01*
X97520238Y-49942319D02*
X97520238Y-48942319D01*
X97520238Y-48942319D02*
X97996428Y-48942319D01*
X98758333Y-49418509D02*
X98425000Y-49418509D01*
X98425000Y-49942319D02*
X98425000Y-48942319D01*
X98425000Y-48942319D02*
X98901190Y-48942319D01*
X99425000Y-48942319D02*
X99425000Y-49180414D01*
X99186905Y-49085176D02*
X99425000Y-49180414D01*
X99425000Y-49180414D02*
X99663095Y-49085176D01*
X99282143Y-49370890D02*
X99425000Y-49180414D01*
X99425000Y-49180414D02*
X99567857Y-49370890D01*
X100186905Y-48942319D02*
X100186905Y-49180414D01*
X99948810Y-49085176D02*
X100186905Y-49180414D01*
X100186905Y-49180414D02*
X100425000Y-49085176D01*
X100044048Y-49370890D02*
X100186905Y-49180414D01*
X100186905Y-49180414D02*
X100329762Y-49370890D01*
X88416964Y-105611069D02*
X88416964Y-104611069D01*
X88416964Y-104611069D02*
X88655059Y-104611069D01*
X88655059Y-104611069D02*
X88797916Y-104658688D01*
X88797916Y-104658688D02*
X88893154Y-104753926D01*
X88893154Y-104753926D02*
X88940773Y-104849164D01*
X88940773Y-104849164D02*
X88988392Y-105039640D01*
X88988392Y-105039640D02*
X88988392Y-105182497D01*
X88988392Y-105182497D02*
X88940773Y-105372973D01*
X88940773Y-105372973D02*
X88893154Y-105468211D01*
X88893154Y-105468211D02*
X88797916Y-105563450D01*
X88797916Y-105563450D02*
X88655059Y-105611069D01*
X88655059Y-105611069D02*
X88416964Y-105611069D01*
X89940773Y-105611069D02*
X89369345Y-105611069D01*
X89655059Y-105611069D02*
X89655059Y-104611069D01*
X89655059Y-104611069D02*
X89559821Y-104753926D01*
X89559821Y-104753926D02*
X89464583Y-104849164D01*
X89464583Y-104849164D02*
X89369345Y-104896783D01*
X90321726Y-104706307D02*
X90369345Y-104658688D01*
X90369345Y-104658688D02*
X90464583Y-104611069D01*
X90464583Y-104611069D02*
X90702678Y-104611069D01*
X90702678Y-104611069D02*
X90797916Y-104658688D01*
X90797916Y-104658688D02*
X90845535Y-104706307D01*
X90845535Y-104706307D02*
X90893154Y-104801545D01*
X90893154Y-104801545D02*
X90893154Y-104896783D01*
X90893154Y-104896783D02*
X90845535Y-105039640D01*
X90845535Y-105039640D02*
X90274107Y-105611069D01*
X90274107Y-105611069D02*
X90893154Y-105611069D01*
X182022916Y-50736069D02*
X181689583Y-50259878D01*
X181451488Y-50736069D02*
X181451488Y-49736069D01*
X181451488Y-49736069D02*
X181832440Y-49736069D01*
X181832440Y-49736069D02*
X181927678Y-49783688D01*
X181927678Y-49783688D02*
X181975297Y-49831307D01*
X181975297Y-49831307D02*
X182022916Y-49926545D01*
X182022916Y-49926545D02*
X182022916Y-50069402D01*
X182022916Y-50069402D02*
X181975297Y-50164640D01*
X181975297Y-50164640D02*
X181927678Y-50212259D01*
X181927678Y-50212259D02*
X181832440Y-50259878D01*
X181832440Y-50259878D02*
X181451488Y-50259878D01*
X182451488Y-50212259D02*
X182784821Y-50212259D01*
X182927678Y-50736069D02*
X182451488Y-50736069D01*
X182451488Y-50736069D02*
X182451488Y-49736069D01*
X182451488Y-49736069D02*
X182927678Y-49736069D01*
X183689583Y-50212259D02*
X183356250Y-50212259D01*
X183356250Y-50736069D02*
X183356250Y-49736069D01*
X183356250Y-49736069D02*
X183832440Y-49736069D01*
X184356250Y-49736069D02*
X184356250Y-49974164D01*
X184118155Y-49878926D02*
X184356250Y-49974164D01*
X184356250Y-49974164D02*
X184594345Y-49878926D01*
X184213393Y-50164640D02*
X184356250Y-49974164D01*
X184356250Y-49974164D02*
X184499107Y-50164640D01*
X185118155Y-49736069D02*
X185118155Y-49974164D01*
X184880060Y-49878926D02*
X185118155Y-49974164D01*
X185118155Y-49974164D02*
X185356250Y-49878926D01*
X184975298Y-50164640D02*
X185118155Y-49974164D01*
X185118155Y-49974164D02*
X185261012Y-50164640D01*
X88416964Y-86561069D02*
X88416964Y-85561069D01*
X88416964Y-85561069D02*
X88655059Y-85561069D01*
X88655059Y-85561069D02*
X88797916Y-85608688D01*
X88797916Y-85608688D02*
X88893154Y-85703926D01*
X88893154Y-85703926D02*
X88940773Y-85799164D01*
X88940773Y-85799164D02*
X88988392Y-85989640D01*
X88988392Y-85989640D02*
X88988392Y-86132497D01*
X88988392Y-86132497D02*
X88940773Y-86322973D01*
X88940773Y-86322973D02*
X88893154Y-86418211D01*
X88893154Y-86418211D02*
X88797916Y-86513450D01*
X88797916Y-86513450D02*
X88655059Y-86561069D01*
X88655059Y-86561069D02*
X88416964Y-86561069D01*
X89940773Y-86561069D02*
X89369345Y-86561069D01*
X89655059Y-86561069D02*
X89655059Y-85561069D01*
X89655059Y-85561069D02*
X89559821Y-85703926D01*
X89559821Y-85703926D02*
X89464583Y-85799164D01*
X89464583Y-85799164D02*
X89369345Y-85846783D01*
X90893154Y-86561069D02*
X90321726Y-86561069D01*
X90607440Y-86561069D02*
X90607440Y-85561069D01*
X90607440Y-85561069D02*
X90512202Y-85703926D01*
X90512202Y-85703926D02*
X90416964Y-85799164D01*
X90416964Y-85799164D02*
X90321726Y-85846783D01*
X126516964Y-105611069D02*
X126516964Y-104611069D01*
X126516964Y-104611069D02*
X126755059Y-104611069D01*
X126755059Y-104611069D02*
X126897916Y-104658688D01*
X126897916Y-104658688D02*
X126993154Y-104753926D01*
X126993154Y-104753926D02*
X127040773Y-104849164D01*
X127040773Y-104849164D02*
X127088392Y-105039640D01*
X127088392Y-105039640D02*
X127088392Y-105182497D01*
X127088392Y-105182497D02*
X127040773Y-105372973D01*
X127040773Y-105372973D02*
X126993154Y-105468211D01*
X126993154Y-105468211D02*
X126897916Y-105563450D01*
X126897916Y-105563450D02*
X126755059Y-105611069D01*
X126755059Y-105611069D02*
X126516964Y-105611069D01*
X127469345Y-104706307D02*
X127516964Y-104658688D01*
X127516964Y-104658688D02*
X127612202Y-104611069D01*
X127612202Y-104611069D02*
X127850297Y-104611069D01*
X127850297Y-104611069D02*
X127945535Y-104658688D01*
X127945535Y-104658688D02*
X127993154Y-104706307D01*
X127993154Y-104706307D02*
X128040773Y-104801545D01*
X128040773Y-104801545D02*
X128040773Y-104896783D01*
X128040773Y-104896783D02*
X127993154Y-105039640D01*
X127993154Y-105039640D02*
X127421726Y-105611069D01*
X127421726Y-105611069D02*
X128040773Y-105611069D01*
X128659821Y-104611069D02*
X128755059Y-104611069D01*
X128755059Y-104611069D02*
X128850297Y-104658688D01*
X128850297Y-104658688D02*
X128897916Y-104706307D01*
X128897916Y-104706307D02*
X128945535Y-104801545D01*
X128945535Y-104801545D02*
X128993154Y-104992021D01*
X128993154Y-104992021D02*
X128993154Y-105230116D01*
X128993154Y-105230116D02*
X128945535Y-105420592D01*
X128945535Y-105420592D02*
X128897916Y-105515830D01*
X128897916Y-105515830D02*
X128850297Y-105563450D01*
X128850297Y-105563450D02*
X128755059Y-105611069D01*
X128755059Y-105611069D02*
X128659821Y-105611069D01*
X128659821Y-105611069D02*
X128564583Y-105563450D01*
X128564583Y-105563450D02*
X128516964Y-105515830D01*
X128516964Y-105515830D02*
X128469345Y-105420592D01*
X128469345Y-105420592D02*
X128421726Y-105230116D01*
X128421726Y-105230116D02*
X128421726Y-104992021D01*
X128421726Y-104992021D02*
X128469345Y-104801545D01*
X128469345Y-104801545D02*
X128516964Y-104706307D01*
X128516964Y-104706307D02*
X128564583Y-104658688D01*
X128564583Y-104658688D02*
X128659821Y-104611069D01*
X50793155Y-111961069D02*
X50793155Y-110961069D01*
X50793155Y-110961069D02*
X51031250Y-110961069D01*
X51031250Y-110961069D02*
X51174107Y-111008688D01*
X51174107Y-111008688D02*
X51269345Y-111103926D01*
X51269345Y-111103926D02*
X51316964Y-111199164D01*
X51316964Y-111199164D02*
X51364583Y-111389640D01*
X51364583Y-111389640D02*
X51364583Y-111532497D01*
X51364583Y-111532497D02*
X51316964Y-111722973D01*
X51316964Y-111722973D02*
X51269345Y-111818211D01*
X51269345Y-111818211D02*
X51174107Y-111913450D01*
X51174107Y-111913450D02*
X51031250Y-111961069D01*
X51031250Y-111961069D02*
X50793155Y-111961069D01*
X52221726Y-111294402D02*
X52221726Y-111961069D01*
X51983631Y-110913450D02*
X51745536Y-111627735D01*
X51745536Y-111627735D02*
X52364583Y-111627735D01*
X126516964Y-86561069D02*
X126516964Y-85561069D01*
X126516964Y-85561069D02*
X126755059Y-85561069D01*
X126755059Y-85561069D02*
X126897916Y-85608688D01*
X126897916Y-85608688D02*
X126993154Y-85703926D01*
X126993154Y-85703926D02*
X127040773Y-85799164D01*
X127040773Y-85799164D02*
X127088392Y-85989640D01*
X127088392Y-85989640D02*
X127088392Y-86132497D01*
X127088392Y-86132497D02*
X127040773Y-86322973D01*
X127040773Y-86322973D02*
X126993154Y-86418211D01*
X126993154Y-86418211D02*
X126897916Y-86513450D01*
X126897916Y-86513450D02*
X126755059Y-86561069D01*
X126755059Y-86561069D02*
X126516964Y-86561069D01*
X128040773Y-86561069D02*
X127469345Y-86561069D01*
X127755059Y-86561069D02*
X127755059Y-85561069D01*
X127755059Y-85561069D02*
X127659821Y-85703926D01*
X127659821Y-85703926D02*
X127564583Y-85799164D01*
X127564583Y-85799164D02*
X127469345Y-85846783D01*
X128516964Y-86561069D02*
X128707440Y-86561069D01*
X128707440Y-86561069D02*
X128802678Y-86513450D01*
X128802678Y-86513450D02*
X128850297Y-86465830D01*
X128850297Y-86465830D02*
X128945535Y-86322973D01*
X128945535Y-86322973D02*
X128993154Y-86132497D01*
X128993154Y-86132497D02*
X128993154Y-85751545D01*
X128993154Y-85751545D02*
X128945535Y-85656307D01*
X128945535Y-85656307D02*
X128897916Y-85608688D01*
X128897916Y-85608688D02*
X128802678Y-85561069D01*
X128802678Y-85561069D02*
X128612202Y-85561069D01*
X128612202Y-85561069D02*
X128516964Y-85608688D01*
X128516964Y-85608688D02*
X128469345Y-85656307D01*
X128469345Y-85656307D02*
X128421726Y-85751545D01*
X128421726Y-85751545D02*
X128421726Y-85989640D01*
X128421726Y-85989640D02*
X128469345Y-86084878D01*
X128469345Y-86084878D02*
X128516964Y-86132497D01*
X128516964Y-86132497D02*
X128612202Y-86180116D01*
X128612202Y-86180116D02*
X128802678Y-86180116D01*
X128802678Y-86180116D02*
X128897916Y-86132497D01*
X128897916Y-86132497D02*
X128945535Y-86084878D01*
X128945535Y-86084878D02*
X128993154Y-85989640D01*
X145566964Y-89736069D02*
X145566964Y-88736069D01*
X145566964Y-88736069D02*
X145805059Y-88736069D01*
X145805059Y-88736069D02*
X145947916Y-88783688D01*
X145947916Y-88783688D02*
X146043154Y-88878926D01*
X146043154Y-88878926D02*
X146090773Y-88974164D01*
X146090773Y-88974164D02*
X146138392Y-89164640D01*
X146138392Y-89164640D02*
X146138392Y-89307497D01*
X146138392Y-89307497D02*
X146090773Y-89497973D01*
X146090773Y-89497973D02*
X146043154Y-89593211D01*
X146043154Y-89593211D02*
X145947916Y-89688450D01*
X145947916Y-89688450D02*
X145805059Y-89736069D01*
X145805059Y-89736069D02*
X145566964Y-89736069D01*
X146519345Y-88831307D02*
X146566964Y-88783688D01*
X146566964Y-88783688D02*
X146662202Y-88736069D01*
X146662202Y-88736069D02*
X146900297Y-88736069D01*
X146900297Y-88736069D02*
X146995535Y-88783688D01*
X146995535Y-88783688D02*
X147043154Y-88831307D01*
X147043154Y-88831307D02*
X147090773Y-88926545D01*
X147090773Y-88926545D02*
X147090773Y-89021783D01*
X147090773Y-89021783D02*
X147043154Y-89164640D01*
X147043154Y-89164640D02*
X146471726Y-89736069D01*
X146471726Y-89736069D02*
X147090773Y-89736069D01*
X147424107Y-88736069D02*
X148043154Y-88736069D01*
X148043154Y-88736069D02*
X147709821Y-89117021D01*
X147709821Y-89117021D02*
X147852678Y-89117021D01*
X147852678Y-89117021D02*
X147947916Y-89164640D01*
X147947916Y-89164640D02*
X147995535Y-89212259D01*
X147995535Y-89212259D02*
X148043154Y-89307497D01*
X148043154Y-89307497D02*
X148043154Y-89545592D01*
X148043154Y-89545592D02*
X147995535Y-89640830D01*
X147995535Y-89640830D02*
X147947916Y-89688450D01*
X147947916Y-89688450D02*
X147852678Y-89736069D01*
X147852678Y-89736069D02*
X147566964Y-89736069D01*
X147566964Y-89736069D02*
X147471726Y-89688450D01*
X147471726Y-89688450D02*
X147424107Y-89640830D01*
X58991666Y-95186069D02*
X58658333Y-94709878D01*
X58420238Y-95186069D02*
X58420238Y-94186069D01*
X58420238Y-94186069D02*
X58801190Y-94186069D01*
X58801190Y-94186069D02*
X58896428Y-94233688D01*
X58896428Y-94233688D02*
X58944047Y-94281307D01*
X58944047Y-94281307D02*
X58991666Y-94376545D01*
X58991666Y-94376545D02*
X58991666Y-94519402D01*
X58991666Y-94519402D02*
X58944047Y-94614640D01*
X58944047Y-94614640D02*
X58896428Y-94662259D01*
X58896428Y-94662259D02*
X58801190Y-94709878D01*
X58801190Y-94709878D02*
X58420238Y-94709878D01*
X59420238Y-94662259D02*
X59753571Y-94662259D01*
X59896428Y-95186069D02*
X59420238Y-95186069D01*
X59420238Y-95186069D02*
X59420238Y-94186069D01*
X59420238Y-94186069D02*
X59896428Y-94186069D01*
X60658333Y-94662259D02*
X60325000Y-94662259D01*
X60325000Y-95186069D02*
X60325000Y-94186069D01*
X60325000Y-94186069D02*
X60801190Y-94186069D01*
X61325000Y-94186069D02*
X61325000Y-94424164D01*
X61086905Y-94328926D02*
X61325000Y-94424164D01*
X61325000Y-94424164D02*
X61563095Y-94328926D01*
X61182143Y-94614640D02*
X61325000Y-94424164D01*
X61325000Y-94424164D02*
X61467857Y-94614640D01*
X62086905Y-94186069D02*
X62086905Y-94424164D01*
X61848810Y-94328926D02*
X62086905Y-94424164D01*
X62086905Y-94424164D02*
X62325000Y-94328926D01*
X61944048Y-94614640D02*
X62086905Y-94424164D01*
X62086905Y-94424164D02*
X62229762Y-94614640D01*
X28386069Y-74805588D02*
X29386069Y-74472255D01*
X29386069Y-74472255D02*
X28386069Y-74138922D01*
X29290830Y-73234160D02*
X29338450Y-73281779D01*
X29338450Y-73281779D02*
X29386069Y-73424636D01*
X29386069Y-73424636D02*
X29386069Y-73519874D01*
X29386069Y-73519874D02*
X29338450Y-73662731D01*
X29338450Y-73662731D02*
X29243211Y-73757969D01*
X29243211Y-73757969D02*
X29147973Y-73805588D01*
X29147973Y-73805588D02*
X28957497Y-73853207D01*
X28957497Y-73853207D02*
X28814640Y-73853207D01*
X28814640Y-73853207D02*
X28624164Y-73805588D01*
X28624164Y-73805588D02*
X28528926Y-73757969D01*
X28528926Y-73757969D02*
X28433688Y-73662731D01*
X28433688Y-73662731D02*
X28386069Y-73519874D01*
X28386069Y-73519874D02*
X28386069Y-73424636D01*
X28386069Y-73424636D02*
X28433688Y-73281779D01*
X28433688Y-73281779D02*
X28481307Y-73234160D01*
X29290830Y-72234160D02*
X29338450Y-72281779D01*
X29338450Y-72281779D02*
X29386069Y-72424636D01*
X29386069Y-72424636D02*
X29386069Y-72519874D01*
X29386069Y-72519874D02*
X29338450Y-72662731D01*
X29338450Y-72662731D02*
X29243211Y-72757969D01*
X29243211Y-72757969D02*
X29147973Y-72805588D01*
X29147973Y-72805588D02*
X28957497Y-72853207D01*
X28957497Y-72853207D02*
X28814640Y-72853207D01*
X28814640Y-72853207D02*
X28624164Y-72805588D01*
X28624164Y-72805588D02*
X28528926Y-72757969D01*
X28528926Y-72757969D02*
X28433688Y-72662731D01*
X28433688Y-72662731D02*
X28386069Y-72519874D01*
X28386069Y-72519874D02*
X28386069Y-72424636D01*
X28386069Y-72424636D02*
X28433688Y-72281779D01*
X28433688Y-72281779D02*
X28481307Y-72234160D01*
X31878450Y-74805588D02*
X31926069Y-74662731D01*
X31926069Y-74662731D02*
X31926069Y-74424636D01*
X31926069Y-74424636D02*
X31878450Y-74329398D01*
X31878450Y-74329398D02*
X31830830Y-74281779D01*
X31830830Y-74281779D02*
X31735592Y-74234160D01*
X31735592Y-74234160D02*
X31640354Y-74234160D01*
X31640354Y-74234160D02*
X31545116Y-74281779D01*
X31545116Y-74281779D02*
X31497497Y-74329398D01*
X31497497Y-74329398D02*
X31449878Y-74424636D01*
X31449878Y-74424636D02*
X31402259Y-74615112D01*
X31402259Y-74615112D02*
X31354640Y-74710350D01*
X31354640Y-74710350D02*
X31307021Y-74757969D01*
X31307021Y-74757969D02*
X31211783Y-74805588D01*
X31211783Y-74805588D02*
X31116545Y-74805588D01*
X31116545Y-74805588D02*
X31021307Y-74757969D01*
X31021307Y-74757969D02*
X30973688Y-74710350D01*
X30973688Y-74710350D02*
X30926069Y-74615112D01*
X30926069Y-74615112D02*
X30926069Y-74377017D01*
X30926069Y-74377017D02*
X30973688Y-74234160D01*
X31830830Y-73234160D02*
X31878450Y-73281779D01*
X31878450Y-73281779D02*
X31926069Y-73424636D01*
X31926069Y-73424636D02*
X31926069Y-73519874D01*
X31926069Y-73519874D02*
X31878450Y-73662731D01*
X31878450Y-73662731D02*
X31783211Y-73757969D01*
X31783211Y-73757969D02*
X31687973Y-73805588D01*
X31687973Y-73805588D02*
X31497497Y-73853207D01*
X31497497Y-73853207D02*
X31354640Y-73853207D01*
X31354640Y-73853207D02*
X31164164Y-73805588D01*
X31164164Y-73805588D02*
X31068926Y-73757969D01*
X31068926Y-73757969D02*
X30973688Y-73662731D01*
X30973688Y-73662731D02*
X30926069Y-73519874D01*
X30926069Y-73519874D02*
X30926069Y-73424636D01*
X30926069Y-73424636D02*
X30973688Y-73281779D01*
X30973688Y-73281779D02*
X31021307Y-73234160D01*
X31926069Y-72805588D02*
X30926069Y-72805588D01*
X31926069Y-72234160D02*
X31354640Y-72662731D01*
X30926069Y-72234160D02*
X31497497Y-72805588D01*
X34466069Y-74916635D02*
X33466069Y-74916635D01*
X33466069Y-74916635D02*
X34180354Y-74583302D01*
X34180354Y-74583302D02*
X33466069Y-74249969D01*
X33466069Y-74249969D02*
X34466069Y-74249969D01*
X33466069Y-73583302D02*
X33466069Y-73392826D01*
X33466069Y-73392826D02*
X33513688Y-73297588D01*
X33513688Y-73297588D02*
X33608926Y-73202350D01*
X33608926Y-73202350D02*
X33799402Y-73154731D01*
X33799402Y-73154731D02*
X34132735Y-73154731D01*
X34132735Y-73154731D02*
X34323211Y-73202350D01*
X34323211Y-73202350D02*
X34418450Y-73297588D01*
X34418450Y-73297588D02*
X34466069Y-73392826D01*
X34466069Y-73392826D02*
X34466069Y-73583302D01*
X34466069Y-73583302D02*
X34418450Y-73678540D01*
X34418450Y-73678540D02*
X34323211Y-73773778D01*
X34323211Y-73773778D02*
X34132735Y-73821397D01*
X34132735Y-73821397D02*
X33799402Y-73821397D01*
X33799402Y-73821397D02*
X33608926Y-73773778D01*
X33608926Y-73773778D02*
X33513688Y-73678540D01*
X33513688Y-73678540D02*
X33466069Y-73583302D01*
X34418450Y-72773778D02*
X34466069Y-72630921D01*
X34466069Y-72630921D02*
X34466069Y-72392826D01*
X34466069Y-72392826D02*
X34418450Y-72297588D01*
X34418450Y-72297588D02*
X34370830Y-72249969D01*
X34370830Y-72249969D02*
X34275592Y-72202350D01*
X34275592Y-72202350D02*
X34180354Y-72202350D01*
X34180354Y-72202350D02*
X34085116Y-72249969D01*
X34085116Y-72249969D02*
X34037497Y-72297588D01*
X34037497Y-72297588D02*
X33989878Y-72392826D01*
X33989878Y-72392826D02*
X33942259Y-72583302D01*
X33942259Y-72583302D02*
X33894640Y-72678540D01*
X33894640Y-72678540D02*
X33847021Y-72726159D01*
X33847021Y-72726159D02*
X33751783Y-72773778D01*
X33751783Y-72773778D02*
X33656545Y-72773778D01*
X33656545Y-72773778D02*
X33561307Y-72726159D01*
X33561307Y-72726159D02*
X33513688Y-72678540D01*
X33513688Y-72678540D02*
X33466069Y-72583302D01*
X33466069Y-72583302D02*
X33466069Y-72345207D01*
X33466069Y-72345207D02*
X33513688Y-72202350D01*
X34466069Y-71773778D02*
X33466069Y-71773778D01*
X25893688Y-74329398D02*
X25846069Y-74424636D01*
X25846069Y-74424636D02*
X25846069Y-74567493D01*
X25846069Y-74567493D02*
X25893688Y-74710350D01*
X25893688Y-74710350D02*
X25988926Y-74805588D01*
X25988926Y-74805588D02*
X26084164Y-74853207D01*
X26084164Y-74853207D02*
X26274640Y-74900826D01*
X26274640Y-74900826D02*
X26417497Y-74900826D01*
X26417497Y-74900826D02*
X26607973Y-74853207D01*
X26607973Y-74853207D02*
X26703211Y-74805588D01*
X26703211Y-74805588D02*
X26798450Y-74710350D01*
X26798450Y-74710350D02*
X26846069Y-74567493D01*
X26846069Y-74567493D02*
X26846069Y-74472255D01*
X26846069Y-74472255D02*
X26798450Y-74329398D01*
X26798450Y-74329398D02*
X26750830Y-74281779D01*
X26750830Y-74281779D02*
X26417497Y-74281779D01*
X26417497Y-74281779D02*
X26417497Y-74472255D01*
X26846069Y-73853207D02*
X25846069Y-73853207D01*
X25846069Y-73853207D02*
X26846069Y-73281779D01*
X26846069Y-73281779D02*
X25846069Y-73281779D01*
X26846069Y-72805588D02*
X25846069Y-72805588D01*
X25846069Y-72805588D02*
X25846069Y-72567493D01*
X25846069Y-72567493D02*
X25893688Y-72424636D01*
X25893688Y-72424636D02*
X25988926Y-72329398D01*
X25988926Y-72329398D02*
X26084164Y-72281779D01*
X26084164Y-72281779D02*
X26274640Y-72234160D01*
X26274640Y-72234160D02*
X26417497Y-72234160D01*
X26417497Y-72234160D02*
X26607973Y-72281779D01*
X26607973Y-72281779D02*
X26703211Y-72329398D01*
X26703211Y-72329398D02*
X26798450Y-72424636D01*
X26798450Y-72424636D02*
X26846069Y-72567493D01*
X26846069Y-72567493D02*
X26846069Y-72805588D01*
X24210830Y-74202541D02*
X24258450Y-74250160D01*
X24258450Y-74250160D02*
X24306069Y-74393017D01*
X24306069Y-74393017D02*
X24306069Y-74488255D01*
X24306069Y-74488255D02*
X24258450Y-74631112D01*
X24258450Y-74631112D02*
X24163211Y-74726350D01*
X24163211Y-74726350D02*
X24067973Y-74773969D01*
X24067973Y-74773969D02*
X23877497Y-74821588D01*
X23877497Y-74821588D02*
X23734640Y-74821588D01*
X23734640Y-74821588D02*
X23544164Y-74773969D01*
X23544164Y-74773969D02*
X23448926Y-74726350D01*
X23448926Y-74726350D02*
X23353688Y-74631112D01*
X23353688Y-74631112D02*
X23306069Y-74488255D01*
X23306069Y-74488255D02*
X23306069Y-74393017D01*
X23306069Y-74393017D02*
X23353688Y-74250160D01*
X23353688Y-74250160D02*
X23401307Y-74202541D01*
X24258450Y-73821588D02*
X24306069Y-73678731D01*
X24306069Y-73678731D02*
X24306069Y-73440636D01*
X24306069Y-73440636D02*
X24258450Y-73345398D01*
X24258450Y-73345398D02*
X24210830Y-73297779D01*
X24210830Y-73297779D02*
X24115592Y-73250160D01*
X24115592Y-73250160D02*
X24020354Y-73250160D01*
X24020354Y-73250160D02*
X23925116Y-73297779D01*
X23925116Y-73297779D02*
X23877497Y-73345398D01*
X23877497Y-73345398D02*
X23829878Y-73440636D01*
X23829878Y-73440636D02*
X23782259Y-73631112D01*
X23782259Y-73631112D02*
X23734640Y-73726350D01*
X23734640Y-73726350D02*
X23687021Y-73773969D01*
X23687021Y-73773969D02*
X23591783Y-73821588D01*
X23591783Y-73821588D02*
X23496545Y-73821588D01*
X23496545Y-73821588D02*
X23401307Y-73773969D01*
X23401307Y-73773969D02*
X23353688Y-73726350D01*
X23353688Y-73726350D02*
X23306069Y-73631112D01*
X23306069Y-73631112D02*
X23306069Y-73393017D01*
X23306069Y-73393017D02*
X23353688Y-73250160D01*
X107466964Y-102436069D02*
X107466964Y-101436069D01*
X107466964Y-101436069D02*
X107705059Y-101436069D01*
X107705059Y-101436069D02*
X107847916Y-101483688D01*
X107847916Y-101483688D02*
X107943154Y-101578926D01*
X107943154Y-101578926D02*
X107990773Y-101674164D01*
X107990773Y-101674164D02*
X108038392Y-101864640D01*
X108038392Y-101864640D02*
X108038392Y-102007497D01*
X108038392Y-102007497D02*
X107990773Y-102197973D01*
X107990773Y-102197973D02*
X107943154Y-102293211D01*
X107943154Y-102293211D02*
X107847916Y-102388450D01*
X107847916Y-102388450D02*
X107705059Y-102436069D01*
X107705059Y-102436069D02*
X107466964Y-102436069D01*
X108990773Y-102436069D02*
X108419345Y-102436069D01*
X108705059Y-102436069D02*
X108705059Y-101436069D01*
X108705059Y-101436069D02*
X108609821Y-101578926D01*
X108609821Y-101578926D02*
X108514583Y-101674164D01*
X108514583Y-101674164D02*
X108419345Y-101721783D01*
X109847916Y-101436069D02*
X109657440Y-101436069D01*
X109657440Y-101436069D02*
X109562202Y-101483688D01*
X109562202Y-101483688D02*
X109514583Y-101531307D01*
X109514583Y-101531307D02*
X109419345Y-101674164D01*
X109419345Y-101674164D02*
X109371726Y-101864640D01*
X109371726Y-101864640D02*
X109371726Y-102245592D01*
X109371726Y-102245592D02*
X109419345Y-102340830D01*
X109419345Y-102340830D02*
X109466964Y-102388450D01*
X109466964Y-102388450D02*
X109562202Y-102436069D01*
X109562202Y-102436069D02*
X109752678Y-102436069D01*
X109752678Y-102436069D02*
X109847916Y-102388450D01*
X109847916Y-102388450D02*
X109895535Y-102340830D01*
X109895535Y-102340830D02*
X109943154Y-102245592D01*
X109943154Y-102245592D02*
X109943154Y-102007497D01*
X109943154Y-102007497D02*
X109895535Y-101912259D01*
X109895535Y-101912259D02*
X109847916Y-101864640D01*
X109847916Y-101864640D02*
X109752678Y-101817021D01*
X109752678Y-101817021D02*
X109562202Y-101817021D01*
X109562202Y-101817021D02*
X109466964Y-101864640D01*
X109466964Y-101864640D02*
X109419345Y-101912259D01*
X109419345Y-101912259D02*
X109371726Y-102007497D01*
X69843155Y-89736069D02*
X69843155Y-88736069D01*
X69843155Y-88736069D02*
X70081250Y-88736069D01*
X70081250Y-88736069D02*
X70224107Y-88783688D01*
X70224107Y-88783688D02*
X70319345Y-88878926D01*
X70319345Y-88878926D02*
X70366964Y-88974164D01*
X70366964Y-88974164D02*
X70414583Y-89164640D01*
X70414583Y-89164640D02*
X70414583Y-89307497D01*
X70414583Y-89307497D02*
X70366964Y-89497973D01*
X70366964Y-89497973D02*
X70319345Y-89593211D01*
X70319345Y-89593211D02*
X70224107Y-89688450D01*
X70224107Y-89688450D02*
X70081250Y-89736069D01*
X70081250Y-89736069D02*
X69843155Y-89736069D01*
X70747917Y-88736069D02*
X71414583Y-88736069D01*
X71414583Y-88736069D02*
X70986012Y-89736069D01*
X50793155Y-54811069D02*
X50793155Y-53811069D01*
X50793155Y-53811069D02*
X51031250Y-53811069D01*
X51031250Y-53811069D02*
X51174107Y-53858688D01*
X51174107Y-53858688D02*
X51269345Y-53953926D01*
X51269345Y-53953926D02*
X51316964Y-54049164D01*
X51316964Y-54049164D02*
X51364583Y-54239640D01*
X51364583Y-54239640D02*
X51364583Y-54382497D01*
X51364583Y-54382497D02*
X51316964Y-54572973D01*
X51316964Y-54572973D02*
X51269345Y-54668211D01*
X51269345Y-54668211D02*
X51174107Y-54763450D01*
X51174107Y-54763450D02*
X51031250Y-54811069D01*
X51031250Y-54811069D02*
X50793155Y-54811069D01*
X52316964Y-54811069D02*
X51745536Y-54811069D01*
X52031250Y-54811069D02*
X52031250Y-53811069D01*
X52031250Y-53811069D02*
X51936012Y-53953926D01*
X51936012Y-53953926D02*
X51840774Y-54049164D01*
X51840774Y-54049164D02*
X51745536Y-54096783D01*
X88416964Y-67511069D02*
X88416964Y-66511069D01*
X88416964Y-66511069D02*
X88655059Y-66511069D01*
X88655059Y-66511069D02*
X88797916Y-66558688D01*
X88797916Y-66558688D02*
X88893154Y-66653926D01*
X88893154Y-66653926D02*
X88940773Y-66749164D01*
X88940773Y-66749164D02*
X88988392Y-66939640D01*
X88988392Y-66939640D02*
X88988392Y-67082497D01*
X88988392Y-67082497D02*
X88940773Y-67272973D01*
X88940773Y-67272973D02*
X88893154Y-67368211D01*
X88893154Y-67368211D02*
X88797916Y-67463450D01*
X88797916Y-67463450D02*
X88655059Y-67511069D01*
X88655059Y-67511069D02*
X88416964Y-67511069D01*
X89940773Y-67511069D02*
X89369345Y-67511069D01*
X89655059Y-67511069D02*
X89655059Y-66511069D01*
X89655059Y-66511069D02*
X89559821Y-66653926D01*
X89559821Y-66653926D02*
X89464583Y-66749164D01*
X89464583Y-66749164D02*
X89369345Y-66796783D01*
X90559821Y-66511069D02*
X90655059Y-66511069D01*
X90655059Y-66511069D02*
X90750297Y-66558688D01*
X90750297Y-66558688D02*
X90797916Y-66606307D01*
X90797916Y-66606307D02*
X90845535Y-66701545D01*
X90845535Y-66701545D02*
X90893154Y-66892021D01*
X90893154Y-66892021D02*
X90893154Y-67130116D01*
X90893154Y-67130116D02*
X90845535Y-67320592D01*
X90845535Y-67320592D02*
X90797916Y-67415830D01*
X90797916Y-67415830D02*
X90750297Y-67463450D01*
X90750297Y-67463450D02*
X90655059Y-67511069D01*
X90655059Y-67511069D02*
X90559821Y-67511069D01*
X90559821Y-67511069D02*
X90464583Y-67463450D01*
X90464583Y-67463450D02*
X90416964Y-67415830D01*
X90416964Y-67415830D02*
X90369345Y-67320592D01*
X90369345Y-67320592D02*
X90321726Y-67130116D01*
X90321726Y-67130116D02*
X90321726Y-66892021D01*
X90321726Y-66892021D02*
X90369345Y-66701545D01*
X90369345Y-66701545D02*
X90416964Y-66606307D01*
X90416964Y-66606307D02*
X90464583Y-66558688D01*
X90464583Y-66558688D02*
X90559821Y-66511069D01*
X107466964Y-83386069D02*
X107466964Y-82386069D01*
X107466964Y-82386069D02*
X107705059Y-82386069D01*
X107705059Y-82386069D02*
X107847916Y-82433688D01*
X107847916Y-82433688D02*
X107943154Y-82528926D01*
X107943154Y-82528926D02*
X107990773Y-82624164D01*
X107990773Y-82624164D02*
X108038392Y-82814640D01*
X108038392Y-82814640D02*
X108038392Y-82957497D01*
X108038392Y-82957497D02*
X107990773Y-83147973D01*
X107990773Y-83147973D02*
X107943154Y-83243211D01*
X107943154Y-83243211D02*
X107847916Y-83338450D01*
X107847916Y-83338450D02*
X107705059Y-83386069D01*
X107705059Y-83386069D02*
X107466964Y-83386069D01*
X108990773Y-83386069D02*
X108419345Y-83386069D01*
X108705059Y-83386069D02*
X108705059Y-82386069D01*
X108705059Y-82386069D02*
X108609821Y-82528926D01*
X108609821Y-82528926D02*
X108514583Y-82624164D01*
X108514583Y-82624164D02*
X108419345Y-82671783D01*
X109895535Y-82386069D02*
X109419345Y-82386069D01*
X109419345Y-82386069D02*
X109371726Y-82862259D01*
X109371726Y-82862259D02*
X109419345Y-82814640D01*
X109419345Y-82814640D02*
X109514583Y-82767021D01*
X109514583Y-82767021D02*
X109752678Y-82767021D01*
X109752678Y-82767021D02*
X109847916Y-82814640D01*
X109847916Y-82814640D02*
X109895535Y-82862259D01*
X109895535Y-82862259D02*
X109943154Y-82957497D01*
X109943154Y-82957497D02*
X109943154Y-83195592D01*
X109943154Y-83195592D02*
X109895535Y-83290830D01*
X109895535Y-83290830D02*
X109847916Y-83338450D01*
X109847916Y-83338450D02*
X109752678Y-83386069D01*
X109752678Y-83386069D02*
X109514583Y-83386069D01*
X109514583Y-83386069D02*
X109419345Y-83338450D01*
X109419345Y-83338450D02*
X109371726Y-83290830D01*
X97091666Y-68992319D02*
X96758333Y-68516128D01*
X96520238Y-68992319D02*
X96520238Y-67992319D01*
X96520238Y-67992319D02*
X96901190Y-67992319D01*
X96901190Y-67992319D02*
X96996428Y-68039938D01*
X96996428Y-68039938D02*
X97044047Y-68087557D01*
X97044047Y-68087557D02*
X97091666Y-68182795D01*
X97091666Y-68182795D02*
X97091666Y-68325652D01*
X97091666Y-68325652D02*
X97044047Y-68420890D01*
X97044047Y-68420890D02*
X96996428Y-68468509D01*
X96996428Y-68468509D02*
X96901190Y-68516128D01*
X96901190Y-68516128D02*
X96520238Y-68516128D01*
X97520238Y-68468509D02*
X97853571Y-68468509D01*
X97996428Y-68992319D02*
X97520238Y-68992319D01*
X97520238Y-68992319D02*
X97520238Y-67992319D01*
X97520238Y-67992319D02*
X97996428Y-67992319D01*
X98758333Y-68468509D02*
X98425000Y-68468509D01*
X98425000Y-68992319D02*
X98425000Y-67992319D01*
X98425000Y-67992319D02*
X98901190Y-67992319D01*
X99425000Y-67992319D02*
X99425000Y-68230414D01*
X99186905Y-68135176D02*
X99425000Y-68230414D01*
X99425000Y-68230414D02*
X99663095Y-68135176D01*
X99282143Y-68420890D02*
X99425000Y-68230414D01*
X99425000Y-68230414D02*
X99567857Y-68420890D01*
X100186905Y-67992319D02*
X100186905Y-68230414D01*
X99948810Y-68135176D02*
X100186905Y-68230414D01*
X100186905Y-68230414D02*
X100425000Y-68135176D01*
X100044048Y-68420890D02*
X100186905Y-68230414D01*
X100186905Y-68230414D02*
X100329762Y-68420890D01*
X28344200Y-107377095D02*
X28410866Y-107177095D01*
X28410866Y-107177095D02*
X28410866Y-106843762D01*
X28410866Y-106843762D02*
X28344200Y-106710428D01*
X28344200Y-106710428D02*
X28277533Y-106643762D01*
X28277533Y-106643762D02*
X28144200Y-106577095D01*
X28144200Y-106577095D02*
X28010866Y-106577095D01*
X28010866Y-106577095D02*
X27877533Y-106643762D01*
X27877533Y-106643762D02*
X27810866Y-106710428D01*
X27810866Y-106710428D02*
X27744200Y-106843762D01*
X27744200Y-106843762D02*
X27677533Y-107110428D01*
X27677533Y-107110428D02*
X27610866Y-107243762D01*
X27610866Y-107243762D02*
X27544200Y-107310428D01*
X27544200Y-107310428D02*
X27410866Y-107377095D01*
X27410866Y-107377095D02*
X27277533Y-107377095D01*
X27277533Y-107377095D02*
X27144200Y-107310428D01*
X27144200Y-107310428D02*
X27077533Y-107243762D01*
X27077533Y-107243762D02*
X27010866Y-107110428D01*
X27010866Y-107110428D02*
X27010866Y-106777095D01*
X27010866Y-106777095D02*
X27077533Y-106577095D01*
X27010866Y-106110429D02*
X28410866Y-105777095D01*
X28410866Y-105777095D02*
X27410866Y-105510429D01*
X27410866Y-105510429D02*
X28410866Y-105243762D01*
X28410866Y-105243762D02*
X27010866Y-104910429D01*
X28410866Y-103643762D02*
X28410866Y-104443762D01*
X28410866Y-104043762D02*
X27010866Y-104043762D01*
X27010866Y-104043762D02*
X27210866Y-104177095D01*
X27210866Y-104177095D02*
X27344200Y-104310429D01*
X27344200Y-104310429D02*
X27410866Y-104443762D01*
X35001819Y-93362583D02*
X35716104Y-93362583D01*
X35716104Y-93362583D02*
X35858961Y-93410202D01*
X35858961Y-93410202D02*
X35954200Y-93505440D01*
X35954200Y-93505440D02*
X36001819Y-93648297D01*
X36001819Y-93648297D02*
X36001819Y-93743535D01*
X35097057Y-92934011D02*
X35049438Y-92886392D01*
X35049438Y-92886392D02*
X35001819Y-92791154D01*
X35001819Y-92791154D02*
X35001819Y-92553059D01*
X35001819Y-92553059D02*
X35049438Y-92457821D01*
X35049438Y-92457821D02*
X35097057Y-92410202D01*
X35097057Y-92410202D02*
X35192295Y-92362583D01*
X35192295Y-92362583D02*
X35287533Y-92362583D01*
X35287533Y-92362583D02*
X35430390Y-92410202D01*
X35430390Y-92410202D02*
X36001819Y-92981630D01*
X36001819Y-92981630D02*
X36001819Y-92362583D01*
X78041666Y-53911069D02*
X77708333Y-53434878D01*
X77470238Y-53911069D02*
X77470238Y-52911069D01*
X77470238Y-52911069D02*
X77851190Y-52911069D01*
X77851190Y-52911069D02*
X77946428Y-52958688D01*
X77946428Y-52958688D02*
X77994047Y-53006307D01*
X77994047Y-53006307D02*
X78041666Y-53101545D01*
X78041666Y-53101545D02*
X78041666Y-53244402D01*
X78041666Y-53244402D02*
X77994047Y-53339640D01*
X77994047Y-53339640D02*
X77946428Y-53387259D01*
X77946428Y-53387259D02*
X77851190Y-53434878D01*
X77851190Y-53434878D02*
X77470238Y-53434878D01*
X78470238Y-53387259D02*
X78803571Y-53387259D01*
X78946428Y-53911069D02*
X78470238Y-53911069D01*
X78470238Y-53911069D02*
X78470238Y-52911069D01*
X78470238Y-52911069D02*
X78946428Y-52911069D01*
X79708333Y-53387259D02*
X79375000Y-53387259D01*
X79375000Y-53911069D02*
X79375000Y-52911069D01*
X79375000Y-52911069D02*
X79851190Y-52911069D01*
X80375000Y-52911069D02*
X80375000Y-53149164D01*
X80136905Y-53053926D02*
X80375000Y-53149164D01*
X80375000Y-53149164D02*
X80613095Y-53053926D01*
X80232143Y-53339640D02*
X80375000Y-53149164D01*
X80375000Y-53149164D02*
X80517857Y-53339640D01*
X81136905Y-52911069D02*
X81136905Y-53149164D01*
X80898810Y-53053926D02*
X81136905Y-53149164D01*
X81136905Y-53149164D02*
X81375000Y-53053926D01*
X80994048Y-53339640D02*
X81136905Y-53149164D01*
X81136905Y-53149164D02*
X81279762Y-53339640D01*
X39147916Y-107886069D02*
X38814583Y-107409878D01*
X38576488Y-107886069D02*
X38576488Y-106886069D01*
X38576488Y-106886069D02*
X38957440Y-106886069D01*
X38957440Y-106886069D02*
X39052678Y-106933688D01*
X39052678Y-106933688D02*
X39100297Y-106981307D01*
X39100297Y-106981307D02*
X39147916Y-107076545D01*
X39147916Y-107076545D02*
X39147916Y-107219402D01*
X39147916Y-107219402D02*
X39100297Y-107314640D01*
X39100297Y-107314640D02*
X39052678Y-107362259D01*
X39052678Y-107362259D02*
X38957440Y-107409878D01*
X38957440Y-107409878D02*
X38576488Y-107409878D01*
X39576488Y-107362259D02*
X39909821Y-107362259D01*
X40052678Y-107886069D02*
X39576488Y-107886069D01*
X39576488Y-107886069D02*
X39576488Y-106886069D01*
X39576488Y-106886069D02*
X40052678Y-106886069D01*
X40814583Y-107362259D02*
X40481250Y-107362259D01*
X40481250Y-107886069D02*
X40481250Y-106886069D01*
X40481250Y-106886069D02*
X40957440Y-106886069D01*
X41481250Y-106886069D02*
X41481250Y-107124164D01*
X41243155Y-107028926D02*
X41481250Y-107124164D01*
X41481250Y-107124164D02*
X41719345Y-107028926D01*
X41338393Y-107314640D02*
X41481250Y-107124164D01*
X41481250Y-107124164D02*
X41624107Y-107314640D01*
X42243155Y-106886069D02*
X42243155Y-107124164D01*
X42005060Y-107028926D02*
X42243155Y-107124164D01*
X42243155Y-107124164D02*
X42481250Y-107028926D01*
X42100298Y-107314640D02*
X42243155Y-107124164D01*
X42243155Y-107124164D02*
X42386012Y-107314640D01*
X69843155Y-108786069D02*
X69843155Y-107786069D01*
X69843155Y-107786069D02*
X70081250Y-107786069D01*
X70081250Y-107786069D02*
X70224107Y-107833688D01*
X70224107Y-107833688D02*
X70319345Y-107928926D01*
X70319345Y-107928926D02*
X70366964Y-108024164D01*
X70366964Y-108024164D02*
X70414583Y-108214640D01*
X70414583Y-108214640D02*
X70414583Y-108357497D01*
X70414583Y-108357497D02*
X70366964Y-108547973D01*
X70366964Y-108547973D02*
X70319345Y-108643211D01*
X70319345Y-108643211D02*
X70224107Y-108738450D01*
X70224107Y-108738450D02*
X70081250Y-108786069D01*
X70081250Y-108786069D02*
X69843155Y-108786069D01*
X70986012Y-108214640D02*
X70890774Y-108167021D01*
X70890774Y-108167021D02*
X70843155Y-108119402D01*
X70843155Y-108119402D02*
X70795536Y-108024164D01*
X70795536Y-108024164D02*
X70795536Y-107976545D01*
X70795536Y-107976545D02*
X70843155Y-107881307D01*
X70843155Y-107881307D02*
X70890774Y-107833688D01*
X70890774Y-107833688D02*
X70986012Y-107786069D01*
X70986012Y-107786069D02*
X71176488Y-107786069D01*
X71176488Y-107786069D02*
X71271726Y-107833688D01*
X71271726Y-107833688D02*
X71319345Y-107881307D01*
X71319345Y-107881307D02*
X71366964Y-107976545D01*
X71366964Y-107976545D02*
X71366964Y-108024164D01*
X71366964Y-108024164D02*
X71319345Y-108119402D01*
X71319345Y-108119402D02*
X71271726Y-108167021D01*
X71271726Y-108167021D02*
X71176488Y-108214640D01*
X71176488Y-108214640D02*
X70986012Y-108214640D01*
X70986012Y-108214640D02*
X70890774Y-108262259D01*
X70890774Y-108262259D02*
X70843155Y-108309878D01*
X70843155Y-108309878D02*
X70795536Y-108405116D01*
X70795536Y-108405116D02*
X70795536Y-108595592D01*
X70795536Y-108595592D02*
X70843155Y-108690830D01*
X70843155Y-108690830D02*
X70890774Y-108738450D01*
X70890774Y-108738450D02*
X70986012Y-108786069D01*
X70986012Y-108786069D02*
X71176488Y-108786069D01*
X71176488Y-108786069D02*
X71271726Y-108738450D01*
X71271726Y-108738450D02*
X71319345Y-108690830D01*
X71319345Y-108690830D02*
X71366964Y-108595592D01*
X71366964Y-108595592D02*
X71366964Y-108405116D01*
X71366964Y-108405116D02*
X71319345Y-108309878D01*
X71319345Y-108309878D02*
X71271726Y-108262259D01*
X71271726Y-108262259D02*
X71176488Y-108214640D01*
X116935416Y-68198569D02*
X116602083Y-67722378D01*
X116363988Y-68198569D02*
X116363988Y-67198569D01*
X116363988Y-67198569D02*
X116744940Y-67198569D01*
X116744940Y-67198569D02*
X116840178Y-67246188D01*
X116840178Y-67246188D02*
X116887797Y-67293807D01*
X116887797Y-67293807D02*
X116935416Y-67389045D01*
X116935416Y-67389045D02*
X116935416Y-67531902D01*
X116935416Y-67531902D02*
X116887797Y-67627140D01*
X116887797Y-67627140D02*
X116840178Y-67674759D01*
X116840178Y-67674759D02*
X116744940Y-67722378D01*
X116744940Y-67722378D02*
X116363988Y-67722378D01*
X117363988Y-67674759D02*
X117697321Y-67674759D01*
X117840178Y-68198569D02*
X117363988Y-68198569D01*
X117363988Y-68198569D02*
X117363988Y-67198569D01*
X117363988Y-67198569D02*
X117840178Y-67198569D01*
X118602083Y-67674759D02*
X118268750Y-67674759D01*
X118268750Y-68198569D02*
X118268750Y-67198569D01*
X118268750Y-67198569D02*
X118744940Y-67198569D01*
X119268750Y-67198569D02*
X119268750Y-67436664D01*
X119030655Y-67341426D02*
X119268750Y-67436664D01*
X119268750Y-67436664D02*
X119506845Y-67341426D01*
X119125893Y-67627140D02*
X119268750Y-67436664D01*
X119268750Y-67436664D02*
X119411607Y-67627140D01*
X120030655Y-67198569D02*
X120030655Y-67436664D01*
X119792560Y-67341426D02*
X120030655Y-67436664D01*
X120030655Y-67436664D02*
X120268750Y-67341426D01*
X119887798Y-67627140D02*
X120030655Y-67436664D01*
X120030655Y-67436664D02*
X120173512Y-67627140D01*
X116935416Y-49148569D02*
X116602083Y-48672378D01*
X116363988Y-49148569D02*
X116363988Y-48148569D01*
X116363988Y-48148569D02*
X116744940Y-48148569D01*
X116744940Y-48148569D02*
X116840178Y-48196188D01*
X116840178Y-48196188D02*
X116887797Y-48243807D01*
X116887797Y-48243807D02*
X116935416Y-48339045D01*
X116935416Y-48339045D02*
X116935416Y-48481902D01*
X116935416Y-48481902D02*
X116887797Y-48577140D01*
X116887797Y-48577140D02*
X116840178Y-48624759D01*
X116840178Y-48624759D02*
X116744940Y-48672378D01*
X116744940Y-48672378D02*
X116363988Y-48672378D01*
X117363988Y-48624759D02*
X117697321Y-48624759D01*
X117840178Y-49148569D02*
X117363988Y-49148569D01*
X117363988Y-49148569D02*
X117363988Y-48148569D01*
X117363988Y-48148569D02*
X117840178Y-48148569D01*
X118602083Y-48624759D02*
X118268750Y-48624759D01*
X118268750Y-49148569D02*
X118268750Y-48148569D01*
X118268750Y-48148569D02*
X118744940Y-48148569D01*
X119268750Y-48148569D02*
X119268750Y-48386664D01*
X119030655Y-48291426D02*
X119268750Y-48386664D01*
X119268750Y-48386664D02*
X119506845Y-48291426D01*
X119125893Y-48577140D02*
X119268750Y-48386664D01*
X119268750Y-48386664D02*
X119411607Y-48577140D01*
X120030655Y-48148569D02*
X120030655Y-48386664D01*
X119792560Y-48291426D02*
X120030655Y-48386664D01*
X120030655Y-48386664D02*
X120268750Y-48291426D01*
X119887798Y-48577140D02*
X120030655Y-48386664D01*
X120030655Y-48386664D02*
X120173512Y-48577140D01*
X88893155Y-48461069D02*
X88893155Y-47461069D01*
X88893155Y-47461069D02*
X89131250Y-47461069D01*
X89131250Y-47461069D02*
X89274107Y-47508688D01*
X89274107Y-47508688D02*
X89369345Y-47603926D01*
X89369345Y-47603926D02*
X89416964Y-47699164D01*
X89416964Y-47699164D02*
X89464583Y-47889640D01*
X89464583Y-47889640D02*
X89464583Y-48032497D01*
X89464583Y-48032497D02*
X89416964Y-48222973D01*
X89416964Y-48222973D02*
X89369345Y-48318211D01*
X89369345Y-48318211D02*
X89274107Y-48413450D01*
X89274107Y-48413450D02*
X89131250Y-48461069D01*
X89131250Y-48461069D02*
X88893155Y-48461069D01*
X89940774Y-48461069D02*
X90131250Y-48461069D01*
X90131250Y-48461069D02*
X90226488Y-48413450D01*
X90226488Y-48413450D02*
X90274107Y-48365830D01*
X90274107Y-48365830D02*
X90369345Y-48222973D01*
X90369345Y-48222973D02*
X90416964Y-48032497D01*
X90416964Y-48032497D02*
X90416964Y-47651545D01*
X90416964Y-47651545D02*
X90369345Y-47556307D01*
X90369345Y-47556307D02*
X90321726Y-47508688D01*
X90321726Y-47508688D02*
X90226488Y-47461069D01*
X90226488Y-47461069D02*
X90036012Y-47461069D01*
X90036012Y-47461069D02*
X89940774Y-47508688D01*
X89940774Y-47508688D02*
X89893155Y-47556307D01*
X89893155Y-47556307D02*
X89845536Y-47651545D01*
X89845536Y-47651545D02*
X89845536Y-47889640D01*
X89845536Y-47889640D02*
X89893155Y-47984878D01*
X89893155Y-47984878D02*
X89940774Y-48032497D01*
X89940774Y-48032497D02*
X90036012Y-48080116D01*
X90036012Y-48080116D02*
X90226488Y-48080116D01*
X90226488Y-48080116D02*
X90321726Y-48032497D01*
X90321726Y-48032497D02*
X90369345Y-47984878D01*
X90369345Y-47984878D02*
X90416964Y-47889640D01*
X198170220Y-52880340D02*
X198741648Y-52880340D01*
X198455934Y-53880340D02*
X198455934Y-52880340D01*
X199646410Y-53880340D02*
X199313077Y-53404149D01*
X199074982Y-53880340D02*
X199074982Y-52880340D01*
X199074982Y-52880340D02*
X199455934Y-52880340D01*
X199455934Y-52880340D02*
X199551172Y-52927959D01*
X199551172Y-52927959D02*
X199598791Y-52975578D01*
X199598791Y-52975578D02*
X199646410Y-53070816D01*
X199646410Y-53070816D02*
X199646410Y-53213673D01*
X199646410Y-53213673D02*
X199598791Y-53308911D01*
X199598791Y-53308911D02*
X199551172Y-53356530D01*
X199551172Y-53356530D02*
X199455934Y-53404149D01*
X199455934Y-53404149D02*
X199074982Y-53404149D01*
X200646410Y-53880340D02*
X200313077Y-53404149D01*
X200074982Y-53880340D02*
X200074982Y-52880340D01*
X200074982Y-52880340D02*
X200455934Y-52880340D01*
X200455934Y-52880340D02*
X200551172Y-52927959D01*
X200551172Y-52927959D02*
X200598791Y-52975578D01*
X200598791Y-52975578D02*
X200646410Y-53070816D01*
X200646410Y-53070816D02*
X200646410Y-53213673D01*
X200646410Y-53213673D02*
X200598791Y-53308911D01*
X200598791Y-53308911D02*
X200551172Y-53356530D01*
X200551172Y-53356530D02*
X200455934Y-53404149D01*
X200455934Y-53404149D02*
X200074982Y-53404149D01*
X201027363Y-53832721D02*
X201170220Y-53880340D01*
X201170220Y-53880340D02*
X201408315Y-53880340D01*
X201408315Y-53880340D02*
X201503553Y-53832721D01*
X201503553Y-53832721D02*
X201551172Y-53785101D01*
X201551172Y-53785101D02*
X201598791Y-53689863D01*
X201598791Y-53689863D02*
X201598791Y-53594625D01*
X201598791Y-53594625D02*
X201551172Y-53499387D01*
X201551172Y-53499387D02*
X201503553Y-53451768D01*
X201503553Y-53451768D02*
X201408315Y-53404149D01*
X201408315Y-53404149D02*
X201217839Y-53356530D01*
X201217839Y-53356530D02*
X201122601Y-53308911D01*
X201122601Y-53308911D02*
X201074982Y-53261292D01*
X201074982Y-53261292D02*
X201027363Y-53166054D01*
X201027363Y-53166054D02*
X201027363Y-53070816D01*
X201027363Y-53070816D02*
X201074982Y-52975578D01*
X201074982Y-52975578D02*
X201122601Y-52927959D01*
X201122601Y-52927959D02*
X201217839Y-52880340D01*
X201217839Y-52880340D02*
X201455934Y-52880340D01*
X201455934Y-52880340D02*
X201598791Y-52927959D01*
X145566964Y-70686069D02*
X145566964Y-69686069D01*
X145566964Y-69686069D02*
X145805059Y-69686069D01*
X145805059Y-69686069D02*
X145947916Y-69733688D01*
X145947916Y-69733688D02*
X146043154Y-69828926D01*
X146043154Y-69828926D02*
X146090773Y-69924164D01*
X146090773Y-69924164D02*
X146138392Y-70114640D01*
X146138392Y-70114640D02*
X146138392Y-70257497D01*
X146138392Y-70257497D02*
X146090773Y-70447973D01*
X146090773Y-70447973D02*
X146043154Y-70543211D01*
X146043154Y-70543211D02*
X145947916Y-70638450D01*
X145947916Y-70638450D02*
X145805059Y-70686069D01*
X145805059Y-70686069D02*
X145566964Y-70686069D01*
X146519345Y-69781307D02*
X146566964Y-69733688D01*
X146566964Y-69733688D02*
X146662202Y-69686069D01*
X146662202Y-69686069D02*
X146900297Y-69686069D01*
X146900297Y-69686069D02*
X146995535Y-69733688D01*
X146995535Y-69733688D02*
X147043154Y-69781307D01*
X147043154Y-69781307D02*
X147090773Y-69876545D01*
X147090773Y-69876545D02*
X147090773Y-69971783D01*
X147090773Y-69971783D02*
X147043154Y-70114640D01*
X147043154Y-70114640D02*
X146471726Y-70686069D01*
X146471726Y-70686069D02*
X147090773Y-70686069D01*
X147471726Y-69781307D02*
X147519345Y-69733688D01*
X147519345Y-69733688D02*
X147614583Y-69686069D01*
X147614583Y-69686069D02*
X147852678Y-69686069D01*
X147852678Y-69686069D02*
X147947916Y-69733688D01*
X147947916Y-69733688D02*
X147995535Y-69781307D01*
X147995535Y-69781307D02*
X148043154Y-69876545D01*
X148043154Y-69876545D02*
X148043154Y-69971783D01*
X148043154Y-69971783D02*
X147995535Y-70114640D01*
X147995535Y-70114640D02*
X147424107Y-70686069D01*
X147424107Y-70686069D02*
X148043154Y-70686069D01*
D11*
%TO.C,D28*%
X176143750Y-50276004D02*
X176143750Y-48276004D01*
X176143750Y-50276004D02*
X172243750Y-50276004D01*
X176143750Y-48276004D02*
X172243750Y-48276004D01*
%TO.C,D3*%
X49281250Y-93456250D02*
X49281250Y-95456250D01*
X49281250Y-93456250D02*
X53181250Y-93456250D01*
X49281250Y-95456250D02*
X53181250Y-95456250D01*
%TO.C,D13*%
X106431250Y-45831250D02*
X106431250Y-47831250D01*
X106431250Y-45831250D02*
X110331250Y-45831250D01*
X106431250Y-47831250D02*
X110331250Y-47831250D01*
%TO.C,D27*%
X176143750Y-69326004D02*
X176143750Y-67326004D01*
X176143750Y-69326004D02*
X172243750Y-69326004D01*
X176143750Y-67326004D02*
X172243750Y-67326004D01*
%TO.C,D14*%
X106431250Y-64881250D02*
X106431250Y-66881250D01*
X106431250Y-64881250D02*
X110331250Y-64881250D01*
X106431250Y-66881250D02*
X110331250Y-66881250D01*
%TO.C,D6*%
X68331250Y-71231250D02*
X68331250Y-73231250D01*
X68331250Y-71231250D02*
X72231250Y-71231250D01*
X68331250Y-73231250D02*
X72231250Y-73231250D01*
%TO.C,D17*%
X125481250Y-49006250D02*
X125481250Y-51006250D01*
X125481250Y-49006250D02*
X129381250Y-49006250D01*
X125481250Y-51006250D02*
X129381250Y-51006250D01*
%TO.C,D24*%
X144531250Y-109331250D02*
X144531250Y-111331250D01*
X144531250Y-109331250D02*
X148431250Y-109331250D01*
X144531250Y-111331250D02*
X148431250Y-111331250D01*
D10*
%TO.C,U2*%
X29643750Y-106343750D02*
X35443750Y-106343750D01*
X29643750Y-118093750D02*
X29643750Y-106343750D01*
X35443750Y-106343750D02*
X35443750Y-118093750D01*
X35443750Y-118093750D02*
X29643750Y-118093750D01*
D11*
%TO.C,D21*%
X144531250Y-52181250D02*
X144531250Y-54181250D01*
X144531250Y-52181250D02*
X148431250Y-52181250D01*
X144531250Y-54181250D02*
X148431250Y-54181250D01*
%TO.C,D25*%
X192376729Y-79590229D02*
X190376729Y-79590229D01*
X192376729Y-79590229D02*
X192376729Y-83490229D01*
X190376729Y-79590229D02*
X190376729Y-83490229D01*
%TO.C,D2*%
X49281250Y-74406250D02*
X49281250Y-76406250D01*
X49281250Y-74406250D02*
X53181250Y-74406250D01*
X49281250Y-76406250D02*
X53181250Y-76406250D01*
%TO.C,D5*%
X68331250Y-52181250D02*
X68331250Y-54181250D01*
X68331250Y-52181250D02*
X72231250Y-52181250D01*
X68331250Y-54181250D02*
X72231250Y-54181250D01*
%TO.C,D18*%
X125481250Y-68056250D02*
X125481250Y-70056250D01*
X125481250Y-68056250D02*
X129381250Y-68056250D01*
X125481250Y-70056250D02*
X129381250Y-70056250D01*
%TO.C,D26*%
X176143750Y-88376004D02*
X176143750Y-86376004D01*
X176143750Y-88376004D02*
X172243750Y-88376004D01*
X176143750Y-86376004D02*
X172243750Y-86376004D01*
%TO.C,D12*%
X87381250Y-106156250D02*
X87381250Y-108156250D01*
X87381250Y-106156250D02*
X91281250Y-106156250D01*
X87381250Y-108156250D02*
X91281250Y-108156250D01*
D12*
%TO.C,SW0*%
X36305650Y-75594202D02*
X36305650Y-78845402D01*
X39048850Y-78845402D02*
X39048850Y-75594202D01*
D11*
%TO.C,D11*%
X87381250Y-87106250D02*
X87381250Y-89106250D01*
X87381250Y-87106250D02*
X91281250Y-87106250D01*
X87381250Y-89106250D02*
X91281250Y-89106250D01*
%TO.C,D20*%
X125481250Y-106156250D02*
X125481250Y-108156250D01*
X125481250Y-106156250D02*
X129381250Y-106156250D01*
X125481250Y-108156250D02*
X129381250Y-108156250D01*
%TO.C,D4*%
X49281250Y-112506250D02*
X49281250Y-114506250D01*
X49281250Y-112506250D02*
X53181250Y-112506250D01*
X49281250Y-114506250D02*
X53181250Y-114506250D01*
%TO.C,D19*%
X125481250Y-87106250D02*
X125481250Y-89106250D01*
X125481250Y-87106250D02*
X129381250Y-87106250D01*
X125481250Y-89106250D02*
X129381250Y-89106250D01*
%TO.C,D23*%
X144531250Y-90281250D02*
X144531250Y-92281250D01*
X144531250Y-90281250D02*
X148431250Y-90281250D01*
X144531250Y-92281250D02*
X148431250Y-92281250D01*
%TO.C,J1*%
X34831250Y-78553000D02*
X32831250Y-78553000D01*
X34831250Y-75753000D02*
X34831250Y-78553000D01*
X32831250Y-78553000D02*
X32831250Y-75753000D01*
X32831250Y-75753000D02*
X34831250Y-75753000D01*
X32331250Y-78553000D02*
X30331250Y-78553000D01*
X32331250Y-75753000D02*
X32331250Y-78553000D01*
X30331250Y-78553000D02*
X30331250Y-75753000D01*
X30331250Y-75753000D02*
X32331250Y-75753000D01*
X29831250Y-78553000D02*
X27831250Y-78553000D01*
X29831250Y-75753000D02*
X29831250Y-78553000D01*
X27831250Y-78553000D02*
X27831250Y-75753000D01*
X27831250Y-75753000D02*
X29831250Y-75753000D01*
X27331250Y-78553000D02*
X25331250Y-78553000D01*
X27331250Y-75753000D02*
X27331250Y-78553000D01*
X25331250Y-78553000D02*
X25331250Y-75753000D01*
X25331250Y-75753000D02*
X27331250Y-75753000D01*
X24831250Y-78553000D02*
X22831250Y-78553000D01*
X24831250Y-75753000D02*
X24831250Y-78553000D01*
X22831250Y-78553000D02*
X22831250Y-75753000D01*
X22831250Y-75753000D02*
X24831250Y-75753000D01*
%TO.C,D16*%
X106431250Y-102981250D02*
X106431250Y-104981250D01*
X106431250Y-102981250D02*
X110331250Y-102981250D01*
X106431250Y-104981250D02*
X110331250Y-104981250D01*
%TO.C,D7*%
X68331250Y-90281250D02*
X68331250Y-92281250D01*
X68331250Y-90281250D02*
X72231250Y-90281250D01*
X68331250Y-92281250D02*
X72231250Y-92281250D01*
%TO.C,D1*%
X49281250Y-55356250D02*
X49281250Y-57356250D01*
X49281250Y-55356250D02*
X53181250Y-55356250D01*
X49281250Y-57356250D02*
X53181250Y-57356250D01*
%TO.C,D10*%
X87381250Y-68056250D02*
X87381250Y-70056250D01*
X87381250Y-68056250D02*
X91281250Y-68056250D01*
X87381250Y-70056250D02*
X91281250Y-70056250D01*
%TO.C,D15*%
X106431250Y-83931250D02*
X106431250Y-85931250D01*
X106431250Y-83931250D02*
X110331250Y-83931250D01*
X106431250Y-85931250D02*
X110331250Y-85931250D01*
D13*
%TO.C,SW1*%
X24121000Y-108860429D02*
X23521000Y-108860429D01*
X25121000Y-103910429D02*
X25121000Y-105610429D01*
X22521000Y-102610429D02*
X22521000Y-108410429D01*
X23521000Y-102160429D02*
X24121000Y-102160429D01*
D14*
X26421000Y-102310429D02*
G75*
G03*
X26421000Y-102310429I-100000J0D01*
G01*
D11*
%TO.C,J2*%
X26637000Y-95089250D02*
X34457000Y-95089250D01*
X32857000Y-95089250D02*
X32857000Y-94169250D01*
X34457000Y-95089250D02*
X34457000Y-94169250D01*
X28897000Y-94329250D02*
X28897000Y-93329250D01*
X30497000Y-94329250D02*
X28897000Y-94329250D01*
X32857000Y-94169250D02*
X32857000Y-93889250D01*
X34457000Y-94169250D02*
X32857000Y-94169250D01*
X28897000Y-93329250D02*
X30497000Y-93329250D01*
X30497000Y-93329250D02*
X30497000Y-94329250D01*
X30997000Y-92529250D02*
X26637000Y-92529250D01*
X26637000Y-91529250D02*
X30997000Y-91529250D01*
X30997000Y-91529250D02*
X30997000Y-92529250D01*
X28897000Y-90729250D02*
X26637000Y-90729250D01*
X28897000Y-90729250D02*
X30497000Y-90729250D01*
X30497000Y-90729250D02*
X30497000Y-89729250D01*
X28897000Y-90229250D02*
X26637000Y-90229250D01*
X32857000Y-90169250D02*
X34072000Y-90169250D01*
X32857000Y-90169250D02*
X32857000Y-89889250D01*
X32857000Y-89889250D02*
X34457000Y-89889250D01*
X34457000Y-89889250D02*
X34457000Y-88969250D01*
X28897000Y-89729250D02*
X28897000Y-90729250D01*
X30497000Y-89729250D02*
X28897000Y-89729250D01*
X26637000Y-88969250D02*
X26637000Y-95089250D01*
X32857000Y-88969250D02*
X32857000Y-89889250D01*
X34457000Y-88969250D02*
X26637000Y-88969250D01*
D10*
%TO.C,U1*%
X37721250Y-40264179D02*
X19941250Y-40264179D01*
X37721250Y-40264179D02*
X37721250Y-70744179D01*
X19941250Y-40264179D02*
X19941250Y-70744179D01*
X19941250Y-70744179D02*
X37721250Y-70744179D01*
D11*
%TO.C,D8*%
X68331250Y-109331250D02*
X68331250Y-111331250D01*
X68331250Y-109331250D02*
X72231250Y-109331250D01*
X68331250Y-111331250D02*
X72231250Y-111331250D01*
%TO.C,D9*%
X87381250Y-49006250D02*
X87381250Y-51006250D01*
X87381250Y-49006250D02*
X91281250Y-49006250D01*
X87381250Y-51006250D02*
X91281250Y-51006250D01*
D10*
%TO.C,U3*%
X204862125Y-50525521D02*
X204862125Y-56325521D01*
X193112125Y-50525521D02*
X204862125Y-50525521D01*
X204862125Y-56325521D02*
X193112125Y-56325521D01*
X193112125Y-56325521D02*
X193112125Y-50525521D01*
D11*
%TO.C,D22*%
X144531250Y-71231250D02*
X144531250Y-73231250D01*
X144531250Y-71231250D02*
X148431250Y-71231250D01*
X144531250Y-73231250D02*
X148431250Y-73231250D01*
%TD*%
M02*
