%TF.GenerationSoftware,KiCad,Pcbnew,7.0.7*%
%TF.CreationDate,2024-02-04T16:52:20-05:00*%
%TF.ProjectId,garden,67617264-656e-42e6-9b69-6361645f7063,rev?*%
%TF.SameCoordinates,Original*%
%TF.FileFunction,Soldermask,Top*%
%TF.FilePolarity,Negative*%
%FSLAX46Y46*%
G04 Gerber Fmt 4.6, Leading zero omitted, Abs format (unit mm)*
G04 Created by KiCad (PCBNEW 7.0.7) date 2024-02-04 16:52:20*
%MOMM*%
%LPD*%
G01*
G04 APERTURE LIST*
G04 Aperture macros list*
%AMRoundRect*
0 Rectangle with rounded corners*
0 $1 Rounding radius*
0 $2 $3 $4 $5 $6 $7 $8 $9 X,Y pos of 4 corners*
0 Add a 4 corners polygon primitive as box body*
4,1,4,$2,$3,$4,$5,$6,$7,$8,$9,$2,$3,0*
0 Add four circle primitives for the rounded corners*
1,1,$1+$1,$2,$3*
1,1,$1+$1,$4,$5*
1,1,$1+$1,$6,$7*
1,1,$1+$1,$8,$9*
0 Add four rect primitives between the rounded corners*
20,1,$1+$1,$2,$3,$4,$5,0*
20,1,$1+$1,$4,$5,$6,$7,0*
20,1,$1+$1,$6,$7,$8,$9,0*
20,1,$1+$1,$8,$9,$2,$3,0*%
%AMFreePoly0*
4,1,6,0.600000,-0.200000,0.600000,-0.500000,-0.600000,-0.500000,-0.600000,-0.200000,0.000000,0.400000,0.600000,-0.200000,0.600000,-0.200000,$1*%
%AMFreePoly1*
4,1,6,0.600000,-1.000000,0.000000,-0.400000,-0.600000,-1.000000,-0.600000,0.250000,0.600000,0.250000,0.600000,-1.000000,0.600000,-1.000000,$1*%
%AMFreePoly2*
4,1,6,1.000000,0.000000,0.500000,-0.750000,-0.500000,-0.750000,-0.500000,0.750000,0.500000,0.750000,1.000000,0.000000,1.000000,0.000000,$1*%
%AMFreePoly3*
4,1,6,0.500000,-0.750000,-0.650000,-0.750000,-0.150000,0.000000,-0.650000,0.750000,0.500000,0.750000,0.500000,-0.750000,0.500000,-0.750000,$1*%
%AMFreePoly4*
4,1,6,0.600000,-0.200000,0.600000,-0.400000,-0.600000,-0.400000,-0.600000,-0.200000,0.000000,0.400000,0.600000,-0.200000,0.600000,-0.200000,$1*%
%AMFreePoly5*
4,1,6,0.600000,0.200000,0.000000,-0.400000,-0.600000,0.200000,-0.600000,0.500000,0.600000,0.500000,0.600000,0.200000,0.600000,0.200000,$1*%
%AMFreePoly6*
4,1,6,0.600000,-0.250000,-0.600000,-0.250000,-0.600000,1.000000,0.000000,0.400000,0.600000,1.000000,0.600000,-0.250000,0.600000,-0.250000,$1*%
G04 Aperture macros list end*
%ADD10C,0.250000*%
%ADD11C,0.100000*%
%ADD12C,0.787400*%
%ADD13C,2.600000*%
%ADD14C,3.800000*%
%ADD15C,1.750000*%
%ADD16C,3.000000*%
%ADD17C,3.987800*%
%ADD18R,0.900000X1.200000*%
%ADD19R,2.550000X2.500000*%
%ADD20O,1.700000X3.700000*%
%ADD21FreePoly0,270.000000*%
%ADD22C,1.200000*%
%ADD23FreePoly0,90.000000*%
%ADD24FreePoly1,270.000000*%
%ADD25FreePoly1,90.000000*%
%ADD26O,1.700000X2.200000*%
%ADD27R,1.200000X0.900000*%
%ADD28R,1.803400X0.812800*%
%ADD29FreePoly2,270.000000*%
%ADD30FreePoly3,270.000000*%
%ADD31C,3.048000*%
%ADD32R,2.500000X2.550000*%
%ADD33C,1.752600*%
%ADD34C,0.900000*%
%ADD35RoundRect,0.102000X0.750000X-0.350000X0.750000X0.350000X-0.750000X0.350000X-0.750000X-0.350000X0*%
%ADD36RoundRect,0.102000X0.400000X-0.500000X0.400000X0.500000X-0.400000X0.500000X-0.400000X-0.500000X0*%
%ADD37RoundRect,0.250000X0.625000X-0.350000X0.625000X0.350000X-0.625000X0.350000X-0.625000X-0.350000X0*%
%ADD38RoundRect,0.250000X-0.625000X0.350000X-0.625000X-0.350000X0.625000X-0.350000X0.625000X0.350000X0*%
%ADD39O,1.750000X1.200000*%
%ADD40C,1.600000*%
%ADD41FreePoly4,90.000000*%
%ADD42FreePoly4,270.000000*%
%ADD43R,1.600000X1.600000*%
%ADD44O,3.700000X1.700000*%
%ADD45FreePoly5,0.000000*%
%ADD46FreePoly5,180.000000*%
%ADD47FreePoly6,180.000000*%
%ADD48FreePoly6,0.000000*%
%ADD49O,2.200000X1.700000*%
G04 APERTURE END LIST*
D10*
%TO.C,U1*%
X30859250Y-41534179D02*
G75*
G03*
X30859250Y-41534179I-125000J0D01*
G01*
X27053250Y-41534179D02*
G75*
G03*
X27053250Y-41534179I-125000J0D01*
G01*
X30859250Y-44074179D02*
G75*
G03*
X30859250Y-44074179I-125000J0D01*
G01*
X27053250Y-44074179D02*
G75*
G03*
X27053250Y-44074179I-125000J0D01*
G01*
X30859250Y-46614179D02*
G75*
G03*
X30859250Y-46614179I-125000J0D01*
G01*
X27053250Y-46614179D02*
G75*
G03*
X27053250Y-46614179I-125000J0D01*
G01*
X30859250Y-49154179D02*
G75*
G03*
X30859250Y-49154179I-125000J0D01*
G01*
X27053250Y-49154179D02*
G75*
G03*
X27053250Y-49154179I-125000J0D01*
G01*
X30859250Y-51694179D02*
G75*
G03*
X30859250Y-51694179I-125000J0D01*
G01*
X27053250Y-51694179D02*
G75*
G03*
X27053250Y-51694179I-125000J0D01*
G01*
X30859250Y-54234179D02*
G75*
G03*
X30859250Y-54234179I-125000J0D01*
G01*
X27053250Y-54234179D02*
G75*
G03*
X27053250Y-54234179I-125000J0D01*
G01*
X30859250Y-56774179D02*
G75*
G03*
X30859250Y-56774179I-125000J0D01*
G01*
X27053250Y-56774179D02*
G75*
G03*
X27053250Y-56774179I-125000J0D01*
G01*
X30859250Y-59314179D02*
G75*
G03*
X30859250Y-59314179I-125000J0D01*
G01*
X27053250Y-59314179D02*
G75*
G03*
X27053250Y-59314179I-125000J0D01*
G01*
X30859250Y-61854179D02*
G75*
G03*
X30859250Y-61854179I-125000J0D01*
G01*
X27053250Y-61854179D02*
G75*
G03*
X27053250Y-61854179I-125000J0D01*
G01*
X30859250Y-64394179D02*
G75*
G03*
X30859250Y-64394179I-125000J0D01*
G01*
X27053250Y-64394179D02*
G75*
G03*
X27053250Y-64394179I-125000J0D01*
G01*
X30859250Y-66934179D02*
G75*
G03*
X30859250Y-66934179I-125000J0D01*
G01*
X27053250Y-66934179D02*
G75*
G03*
X27053250Y-66934179I-125000J0D01*
G01*
X30859250Y-69474179D02*
G75*
G03*
X30859250Y-69474179I-125000J0D01*
G01*
X27053250Y-69474179D02*
G75*
G03*
X27053250Y-69474179I-125000J0D01*
G01*
D11*
X34927250Y-42042179D02*
X33911250Y-42042179D01*
X33911250Y-41026179D01*
X34927250Y-41026179D01*
X34927250Y-42042179D01*
G36*
X34927250Y-42042179D02*
G01*
X33911250Y-42042179D01*
X33911250Y-41026179D01*
X34927250Y-41026179D01*
X34927250Y-42042179D01*
G37*
X23751250Y-42042179D02*
X22735250Y-42042179D01*
X22735250Y-41026179D01*
X23751250Y-41026179D01*
X23751250Y-42042179D01*
G36*
X23751250Y-42042179D02*
G01*
X22735250Y-42042179D01*
X22735250Y-41026179D01*
X23751250Y-41026179D01*
X23751250Y-42042179D01*
G37*
X34927250Y-44582179D02*
X33911250Y-44582179D01*
X33911250Y-43566179D01*
X34927250Y-43566179D01*
X34927250Y-44582179D01*
G36*
X34927250Y-44582179D02*
G01*
X33911250Y-44582179D01*
X33911250Y-43566179D01*
X34927250Y-43566179D01*
X34927250Y-44582179D01*
G37*
X23751250Y-44582179D02*
X22735250Y-44582179D01*
X22735250Y-43566179D01*
X23751250Y-43566179D01*
X23751250Y-44582179D01*
G36*
X23751250Y-44582179D02*
G01*
X22735250Y-44582179D01*
X22735250Y-43566179D01*
X23751250Y-43566179D01*
X23751250Y-44582179D01*
G37*
X34927250Y-47122179D02*
X33911250Y-47122179D01*
X33911250Y-46106179D01*
X34927250Y-46106179D01*
X34927250Y-47122179D01*
G36*
X34927250Y-47122179D02*
G01*
X33911250Y-47122179D01*
X33911250Y-46106179D01*
X34927250Y-46106179D01*
X34927250Y-47122179D01*
G37*
X23751250Y-47122179D02*
X22735250Y-47122179D01*
X22735250Y-46106179D01*
X23751250Y-46106179D01*
X23751250Y-47122179D01*
G36*
X23751250Y-47122179D02*
G01*
X22735250Y-47122179D01*
X22735250Y-46106179D01*
X23751250Y-46106179D01*
X23751250Y-47122179D01*
G37*
X34927250Y-49662179D02*
X33911250Y-49662179D01*
X33911250Y-48646179D01*
X34927250Y-48646179D01*
X34927250Y-49662179D01*
G36*
X34927250Y-49662179D02*
G01*
X33911250Y-49662179D01*
X33911250Y-48646179D01*
X34927250Y-48646179D01*
X34927250Y-49662179D01*
G37*
X23751250Y-49662179D02*
X22735250Y-49662179D01*
X22735250Y-48646179D01*
X23751250Y-48646179D01*
X23751250Y-49662179D01*
G36*
X23751250Y-49662179D02*
G01*
X22735250Y-49662179D01*
X22735250Y-48646179D01*
X23751250Y-48646179D01*
X23751250Y-49662179D01*
G37*
X34927250Y-52202179D02*
X33911250Y-52202179D01*
X33911250Y-51186179D01*
X34927250Y-51186179D01*
X34927250Y-52202179D01*
G36*
X34927250Y-52202179D02*
G01*
X33911250Y-52202179D01*
X33911250Y-51186179D01*
X34927250Y-51186179D01*
X34927250Y-52202179D01*
G37*
X23751250Y-52202179D02*
X22735250Y-52202179D01*
X22735250Y-51186179D01*
X23751250Y-51186179D01*
X23751250Y-52202179D01*
G36*
X23751250Y-52202179D02*
G01*
X22735250Y-52202179D01*
X22735250Y-51186179D01*
X23751250Y-51186179D01*
X23751250Y-52202179D01*
G37*
X34927250Y-54742179D02*
X33911250Y-54742179D01*
X33911250Y-53726179D01*
X34927250Y-53726179D01*
X34927250Y-54742179D01*
G36*
X34927250Y-54742179D02*
G01*
X33911250Y-54742179D01*
X33911250Y-53726179D01*
X34927250Y-53726179D01*
X34927250Y-54742179D01*
G37*
X23751250Y-54742179D02*
X22735250Y-54742179D01*
X22735250Y-53726179D01*
X23751250Y-53726179D01*
X23751250Y-54742179D01*
G36*
X23751250Y-54742179D02*
G01*
X22735250Y-54742179D01*
X22735250Y-53726179D01*
X23751250Y-53726179D01*
X23751250Y-54742179D01*
G37*
X34927250Y-57282179D02*
X33911250Y-57282179D01*
X33911250Y-56266179D01*
X34927250Y-56266179D01*
X34927250Y-57282179D01*
G36*
X34927250Y-57282179D02*
G01*
X33911250Y-57282179D01*
X33911250Y-56266179D01*
X34927250Y-56266179D01*
X34927250Y-57282179D01*
G37*
X23751250Y-57282179D02*
X22735250Y-57282179D01*
X22735250Y-56266179D01*
X23751250Y-56266179D01*
X23751250Y-57282179D01*
G36*
X23751250Y-57282179D02*
G01*
X22735250Y-57282179D01*
X22735250Y-56266179D01*
X23751250Y-56266179D01*
X23751250Y-57282179D01*
G37*
X34927250Y-59822179D02*
X33911250Y-59822179D01*
X33911250Y-58806179D01*
X34927250Y-58806179D01*
X34927250Y-59822179D01*
G36*
X34927250Y-59822179D02*
G01*
X33911250Y-59822179D01*
X33911250Y-58806179D01*
X34927250Y-58806179D01*
X34927250Y-59822179D01*
G37*
X23751250Y-59822179D02*
X22735250Y-59822179D01*
X22735250Y-58806179D01*
X23751250Y-58806179D01*
X23751250Y-59822179D01*
G36*
X23751250Y-59822179D02*
G01*
X22735250Y-59822179D01*
X22735250Y-58806179D01*
X23751250Y-58806179D01*
X23751250Y-59822179D01*
G37*
X34927250Y-62362179D02*
X33911250Y-62362179D01*
X33911250Y-61346179D01*
X34927250Y-61346179D01*
X34927250Y-62362179D01*
G36*
X34927250Y-62362179D02*
G01*
X33911250Y-62362179D01*
X33911250Y-61346179D01*
X34927250Y-61346179D01*
X34927250Y-62362179D01*
G37*
X23751250Y-62362179D02*
X22735250Y-62362179D01*
X22735250Y-61346179D01*
X23751250Y-61346179D01*
X23751250Y-62362179D01*
G36*
X23751250Y-62362179D02*
G01*
X22735250Y-62362179D01*
X22735250Y-61346179D01*
X23751250Y-61346179D01*
X23751250Y-62362179D01*
G37*
X34927250Y-64902179D02*
X33911250Y-64902179D01*
X33911250Y-63886179D01*
X34927250Y-63886179D01*
X34927250Y-64902179D01*
G36*
X34927250Y-64902179D02*
G01*
X33911250Y-64902179D01*
X33911250Y-63886179D01*
X34927250Y-63886179D01*
X34927250Y-64902179D01*
G37*
X23751250Y-64902179D02*
X22735250Y-64902179D01*
X22735250Y-63886179D01*
X23751250Y-63886179D01*
X23751250Y-64902179D01*
G36*
X23751250Y-64902179D02*
G01*
X22735250Y-64902179D01*
X22735250Y-63886179D01*
X23751250Y-63886179D01*
X23751250Y-64902179D01*
G37*
X34927250Y-67442179D02*
X33911250Y-67442179D01*
X33911250Y-66426179D01*
X34927250Y-66426179D01*
X34927250Y-67442179D01*
G36*
X34927250Y-67442179D02*
G01*
X33911250Y-67442179D01*
X33911250Y-66426179D01*
X34927250Y-66426179D01*
X34927250Y-67442179D01*
G37*
X23751250Y-67442179D02*
X22735250Y-67442179D01*
X22735250Y-66426179D01*
X23751250Y-66426179D01*
X23751250Y-67442179D01*
G36*
X23751250Y-67442179D02*
G01*
X22735250Y-67442179D01*
X22735250Y-66426179D01*
X23751250Y-66426179D01*
X23751250Y-67442179D01*
G37*
X34927250Y-69982179D02*
X33911250Y-69982179D01*
X33911250Y-68966179D01*
X34927250Y-68966179D01*
X34927250Y-69982179D01*
G36*
X34927250Y-69982179D02*
G01*
X33911250Y-69982179D01*
X33911250Y-68966179D01*
X34927250Y-68966179D01*
X34927250Y-69982179D01*
G37*
X23751250Y-69982179D02*
X22735250Y-69982179D01*
X22735250Y-68966179D01*
X23751250Y-68966179D01*
X23751250Y-69982179D01*
G36*
X23751250Y-69982179D02*
G01*
X22735250Y-69982179D01*
X22735250Y-68966179D01*
X23751250Y-68966179D01*
X23751250Y-69982179D01*
G37*
%TD*%
D12*
%TO.C,REF\u002A\u002A*%
X156368750Y8572500D03*
X156368750Y9842500D03*
X156368750Y11112500D03*
X156368750Y12382500D03*
X156368750Y13652500D03*
%TD*%
%TO.C,REF\u002A\u002A*%
X156368750Y46672500D03*
X156368750Y47942500D03*
X156368750Y49212500D03*
X156368750Y50482500D03*
X156368750Y51752500D03*
%TD*%
%TO.C,REF\u002A\u002A*%
X156368750Y40322500D03*
X156368750Y41592500D03*
X156368750Y42862500D03*
X156368750Y44132500D03*
X156368750Y45402500D03*
%TD*%
%TO.C,REF\u002A\u002A*%
X156368750Y33972500D03*
X156368750Y35242500D03*
X156368750Y36512500D03*
X156368750Y37782500D03*
X156368750Y39052500D03*
%TD*%
%TO.C,REF\u002A\u002A*%
X156368750Y14922500D03*
X156368750Y16192500D03*
X156368750Y17462500D03*
X156368750Y18732500D03*
X156368750Y20002500D03*
%TD*%
%TO.C,REF\u002A\u002A*%
X156368750Y21272500D03*
X156368750Y22542500D03*
X156368750Y23812500D03*
X156368750Y25082500D03*
X156368750Y26352500D03*
%TD*%
%TO.C,REF\u002A\u002A*%
X156368750Y2222500D03*
X156368750Y3492500D03*
X156368750Y4762500D03*
X156368750Y6032500D03*
X156368750Y7302500D03*
%TD*%
%TO.C,REF\u002A\u002A*%
X156368750Y53022500D03*
X156368750Y54292500D03*
%TD*%
%TO.C,REF\u002A\u002A*%
X156368750Y27622500D03*
X156368750Y28892500D03*
X156368750Y30162500D03*
X156368750Y31432500D03*
X156368750Y32702500D03*
%TD*%
D13*
%TO.C,REF\u002A\u002A*%
X162718750Y-84137500D03*
D14*
X162718750Y-84137500D03*
%TD*%
D12*
%TO.C,REF\u002A\u002A*%
X157956250Y-88741250D03*
X157956250Y-90011250D03*
X157956250Y-91281250D03*
X157956250Y-92551250D03*
X157956250Y-93821250D03*
%TD*%
D15*
%TO.C,MX15*%
X103601250Y-78581250D03*
D16*
X104871250Y-76041250D03*
D17*
X108681250Y-78581250D03*
D16*
X111221250Y-73501250D03*
D15*
X113761250Y-78581250D03*
%TD*%
D18*
%TO.C,D28*%
X175543750Y-49276004D03*
X172243750Y-49276004D03*
%TD*%
%TO.C,D3*%
X49881250Y-94456250D03*
X53181250Y-94456250D03*
%TD*%
D13*
%TO.C,REF\u002A\u002A*%
X118268750Y-89693750D03*
D14*
X118268750Y-89693750D03*
%TD*%
D15*
%TO.C,MX4*%
X46451250Y-107156250D03*
D16*
X47721250Y-104616250D03*
D17*
X51531250Y-107156250D03*
D16*
X54071250Y-102076250D03*
D15*
X56611250Y-107156250D03*
%TD*%
D18*
%TO.C,D13*%
X107031250Y-46831250D03*
X110331250Y-46831250D03*
%TD*%
D13*
%TO.C,REF\u002A\u002A*%
X60325000Y-78581250D03*
D14*
X60325000Y-78581250D03*
%TD*%
D12*
%TO.C,REF\u002A\u002A*%
X157956250Y-50641250D03*
X157956250Y-51911250D03*
X157956250Y-53181250D03*
X157956250Y-54451250D03*
X157956250Y-55721250D03*
%TD*%
D18*
%TO.C,D27*%
X175543750Y-68326004D03*
X172243750Y-68326004D03*
%TD*%
D13*
%TO.C,REF\u002A\u002A*%
X40481250Y-81756250D03*
D14*
X40481250Y-81756250D03*
%TD*%
D13*
%TO.C,REF\u002A\u002A*%
X137318750Y-92868750D03*
D14*
X137318750Y-92868750D03*
%TD*%
D12*
%TO.C,REF\u002A\u002A*%
X157956250Y-56991250D03*
X157956250Y-58261250D03*
X157956250Y-59531250D03*
X157956250Y-60801250D03*
X157956250Y-62071250D03*
%TD*%
D18*
%TO.C,D14*%
X107031250Y-65881250D03*
X110331250Y-65881250D03*
%TD*%
%TO.C,D6*%
X68931250Y-72231250D03*
X72231250Y-72231250D03*
%TD*%
D13*
%TO.C,REF\u002A\u002A*%
X79375000Y-94456250D03*
D14*
X79375000Y-94456250D03*
%TD*%
D13*
%TO.C,REF\u002A\u002A*%
X98425000Y-90487500D03*
D14*
X98425000Y-90487500D03*
%TD*%
D13*
%TO.C,REF\u002A\u002A*%
X79375000Y-75406250D03*
D14*
X79375000Y-75406250D03*
%TD*%
D12*
%TO.C,REF\u002A\u002A*%
X157956250Y-63341250D03*
X157956250Y-64611250D03*
X157956250Y-65881250D03*
X157956250Y-67151250D03*
X157956250Y-68421250D03*
%TD*%
D18*
%TO.C,D17*%
X126081250Y-50006250D03*
X129381250Y-50006250D03*
%TD*%
D13*
%TO.C,REF\u002A\u002A*%
X137318750Y-73818750D03*
D14*
X137318750Y-73818750D03*
%TD*%
D18*
%TO.C,D24*%
X145131250Y-110331250D03*
X148431250Y-110331250D03*
%TD*%
D15*
%TO.C,MX15*%
X113761250Y-78581250D03*
D16*
X112491250Y-76041250D03*
D17*
X108681250Y-78581250D03*
D16*
X106141250Y-73501250D03*
D15*
X103601250Y-78581250D03*
D19*
X115766250Y-76041250D03*
X102839250Y-73501250D03*
%TD*%
D15*
%TO.C,MX17*%
X132811250Y-43656250D03*
D16*
X131541250Y-41116250D03*
D17*
X127731250Y-43656250D03*
D16*
X125191250Y-38576250D03*
D15*
X122651250Y-43656250D03*
D19*
X134816250Y-41116250D03*
X121889250Y-38576250D03*
%TD*%
D15*
%TO.C,MX9*%
X94711250Y-43656250D03*
D16*
X93441250Y-41116250D03*
D17*
X89631250Y-43656250D03*
D16*
X87091250Y-38576250D03*
D15*
X84551250Y-43656250D03*
D19*
X96716250Y-41116250D03*
X83789250Y-38576250D03*
%TD*%
D15*
%TO.C,MX21*%
X151861250Y-46831250D03*
D16*
X150591250Y-44291250D03*
D17*
X146781250Y-46831250D03*
D16*
X144241250Y-41751250D03*
D15*
X141701250Y-46831250D03*
D19*
X153866250Y-44291250D03*
X140939250Y-41751250D03*
%TD*%
D15*
%TO.C,MX20*%
X132811250Y-100806250D03*
D16*
X131541250Y-98266250D03*
D17*
X127731250Y-100806250D03*
D16*
X125191250Y-95726250D03*
D15*
X122651250Y-100806250D03*
D19*
X134816250Y-98266250D03*
X121889250Y-95726250D03*
%TD*%
D15*
%TO.C,MX8*%
X75661250Y-103981250D03*
D16*
X74391250Y-101441250D03*
D17*
X70581250Y-103981250D03*
D16*
X68041250Y-98901250D03*
D15*
X65501250Y-103981250D03*
D19*
X77666250Y-101441250D03*
X64739250Y-98901250D03*
%TD*%
D20*
%TO.C,U2*%
X30443750Y-107193750D03*
D21*
X32035750Y-106305750D03*
D22*
X32543750Y-109743750D03*
X32543750Y-109743750D03*
X32543750Y-116743750D03*
X32543750Y-116743750D03*
D23*
X33051750Y-108083750D03*
D20*
X34643750Y-107193750D03*
D24*
X33051750Y-106305750D03*
D25*
X32035750Y-108083750D03*
D26*
X34643750Y-111943750D03*
X34643750Y-114943750D03*
%TD*%
D18*
%TO.C,D21*%
X145131250Y-53181250D03*
X148431250Y-53181250D03*
%TD*%
D15*
%TO.C,MX1*%
X46451250Y-50006250D03*
D16*
X47721250Y-47466250D03*
D17*
X51531250Y-50006250D03*
D16*
X54071250Y-44926250D03*
D15*
X56611250Y-50006250D03*
%TD*%
D13*
%TO.C,REF\u002A\u002A*%
X60325000Y-59531250D03*
D14*
X60325000Y-59531250D03*
%TD*%
D13*
%TO.C,REF\u002A\u002A*%
X198437500Y-99218750D03*
D14*
X198437500Y-99218750D03*
%TD*%
D27*
%TO.C,D25*%
X191376729Y-80190229D03*
X191376729Y-83490229D03*
%TD*%
D15*
%TO.C,MX23*%
X141701250Y-84931250D03*
D16*
X142971250Y-82391250D03*
D17*
X146781250Y-84931250D03*
D16*
X149321250Y-79851250D03*
D15*
X151861250Y-84931250D03*
%TD*%
D18*
%TO.C,D2*%
X49881250Y-75406250D03*
X53181250Y-75406250D03*
%TD*%
%TO.C,D5*%
X68931250Y-53181250D03*
X72231250Y-53181250D03*
%TD*%
D15*
%TO.C,MX27*%
X178973750Y-74676004D03*
X178973750Y-74676004D03*
D16*
X177703750Y-77216004D03*
X176433750Y-79756004D03*
D17*
X173893750Y-74676004D03*
X173893750Y-74676004D03*
D16*
X171353750Y-79756004D03*
X170083750Y-77216004D03*
D15*
X168813750Y-74676004D03*
X168813750Y-74676004D03*
D19*
X166808750Y-77216004D03*
X179735750Y-79756004D03*
%TD*%
D15*
%TO.C,MX22*%
X141701250Y-65881250D03*
D16*
X142971250Y-63341250D03*
D17*
X146781250Y-65881250D03*
D16*
X149321250Y-60801250D03*
D15*
X151861250Y-65881250D03*
%TD*%
%TO.C,MX28*%
X178973750Y-55626004D03*
X178973750Y-55626004D03*
D16*
X177703750Y-58166004D03*
X176433750Y-60706004D03*
D17*
X173893750Y-55626004D03*
X173893750Y-55626004D03*
D16*
X171353750Y-60706004D03*
X170083750Y-58166004D03*
D15*
X168813750Y-55626004D03*
X168813750Y-55626004D03*
D19*
X166808750Y-58166004D03*
X179735750Y-60706004D03*
%TD*%
D15*
%TO.C,MX8*%
X65501250Y-103981250D03*
D16*
X66771250Y-101441250D03*
D17*
X70581250Y-103981250D03*
D16*
X73121250Y-98901250D03*
D15*
X75661250Y-103981250D03*
%TD*%
D18*
%TO.C,D18*%
X126081250Y-69056250D03*
X129381250Y-69056250D03*
%TD*%
D15*
%TO.C,MX16*%
X103601250Y-97631250D03*
D16*
X104871250Y-95091250D03*
D17*
X108681250Y-97631250D03*
D16*
X111221250Y-92551250D03*
D15*
X113761250Y-97631250D03*
%TD*%
D13*
%TO.C,REF\u002A\u002A*%
X137318750Y-54768750D03*
D14*
X137318750Y-54768750D03*
%TD*%
D18*
%TO.C,D26*%
X175543750Y-87376004D03*
X172243750Y-87376004D03*
%TD*%
D12*
%TO.C,REF\u002A\u002A*%
X157956250Y-82391250D03*
X157956250Y-83661250D03*
X157956250Y-84931250D03*
X157956250Y-86201250D03*
X157956250Y-87471250D03*
%TD*%
D13*
%TO.C,REF\u002A\u002A*%
X98425000Y-52387500D03*
D14*
X98425000Y-52387500D03*
%TD*%
D18*
%TO.C,D12*%
X87981250Y-107156250D03*
X91281250Y-107156250D03*
%TD*%
D28*
%TO.C,SW0*%
X37677250Y-75519800D03*
X37677250Y-78919804D03*
%TD*%
D15*
%TO.C,MX11*%
X84551250Y-81756250D03*
D16*
X85821250Y-79216250D03*
D17*
X89631250Y-81756250D03*
D16*
X92171250Y-76676250D03*
D15*
X94711250Y-81756250D03*
%TD*%
D13*
%TO.C,REF\u002A\u002A*%
X183356250Y-53181250D03*
D14*
X183356250Y-53181250D03*
%TD*%
D18*
%TO.C,D11*%
X87981250Y-88106250D03*
X91281250Y-88106250D03*
%TD*%
D15*
%TO.C,MX18*%
X122651250Y-62706250D03*
D16*
X123921250Y-60166250D03*
D17*
X127731250Y-62706250D03*
D16*
X130271250Y-57626250D03*
D15*
X132811250Y-62706250D03*
%TD*%
D18*
%TO.C,D20*%
X126081250Y-107156250D03*
X129381250Y-107156250D03*
%TD*%
D15*
%TO.C,MX26*%
X178973750Y-93726004D03*
X178973750Y-93726004D03*
D16*
X177703750Y-96266004D03*
X176433750Y-98806004D03*
D17*
X173893750Y-93726004D03*
X173893750Y-93726004D03*
D16*
X171353750Y-98806004D03*
X170083750Y-96266004D03*
D15*
X168813750Y-93726004D03*
X168813750Y-93726004D03*
D19*
X166808750Y-96266004D03*
X179735750Y-98806004D03*
%TD*%
D15*
%TO.C,MX9*%
X84551250Y-43656250D03*
D16*
X85821250Y-41116250D03*
D17*
X89631250Y-43656250D03*
D16*
X92171250Y-38576250D03*
D15*
X94711250Y-43656250D03*
%TD*%
D18*
%TO.C,D4*%
X49881250Y-113506250D03*
X53181250Y-113506250D03*
%TD*%
D15*
%TO.C,MX3*%
X46451250Y-88106250D03*
D16*
X47721250Y-85566250D03*
D17*
X51531250Y-88106250D03*
D16*
X54071250Y-83026250D03*
D15*
X56611250Y-88106250D03*
%TD*%
D18*
%TO.C,D19*%
X126081250Y-88106250D03*
X129381250Y-88106250D03*
%TD*%
%TO.C,D23*%
X145131250Y-91281250D03*
X148431250Y-91281250D03*
%TD*%
D13*
%TO.C,REF\u002A\u002A*%
X60325000Y-97631250D03*
D14*
X60325000Y-97631250D03*
%TD*%
D29*
%TO.C,J1*%
X33831250Y-76428000D03*
X31331250Y-76428000D03*
X28831250Y-76428000D03*
X26331250Y-76428000D03*
X23831250Y-76428000D03*
D30*
X33831250Y-77878000D03*
X31331250Y-77878000D03*
X28831250Y-77878000D03*
X26331250Y-77878000D03*
X23831250Y-77878000D03*
%TD*%
D18*
%TO.C,D16*%
X107031250Y-103981250D03*
X110331250Y-103981250D03*
%TD*%
D31*
%TO.C,MX25*%
X204711729Y-69902229D03*
D17*
X189471729Y-69902229D03*
D15*
X197726729Y-76760229D03*
D16*
X200266729Y-78030229D03*
X202806729Y-79300229D03*
D17*
X197726729Y-81840229D03*
D16*
X202806729Y-84380229D03*
X200266729Y-85650229D03*
D15*
X197726729Y-86920229D03*
D31*
X204711729Y-93778229D03*
D17*
X189471729Y-93778229D03*
D32*
X200266729Y-88925229D03*
X202806729Y-75998229D03*
%TD*%
D12*
%TO.C,REF\u002A\u002A*%
X157956250Y-76041250D03*
X157956250Y-77311250D03*
X157956250Y-78581250D03*
X157956250Y-79851250D03*
X157956250Y-81121250D03*
%TD*%
D15*
%TO.C,MX10*%
X84551250Y-62706250D03*
D16*
X85821250Y-60166250D03*
D17*
X89631250Y-62706250D03*
D16*
X92171250Y-57626250D03*
D15*
X94711250Y-62706250D03*
%TD*%
D18*
%TO.C,D7*%
X68931250Y-91281250D03*
X72231250Y-91281250D03*
%TD*%
%TO.C,D1*%
X49881250Y-56356250D03*
X53181250Y-56356250D03*
%TD*%
%TO.C,D10*%
X87981250Y-69056250D03*
X91281250Y-69056250D03*
%TD*%
%TO.C,D15*%
X107031250Y-84931250D03*
X110331250Y-84931250D03*
%TD*%
D13*
%TO.C,REF\u002A\u002A*%
X98425000Y-71437500D03*
D14*
X98425000Y-71437500D03*
%TD*%
D15*
%TO.C,MX18*%
X132811250Y-62706250D03*
D16*
X131541250Y-60166250D03*
D17*
X127731250Y-62706250D03*
D16*
X125191250Y-57626250D03*
D15*
X122651250Y-62706250D03*
D19*
X134816250Y-60166250D03*
X121889250Y-57626250D03*
%TD*%
D33*
%TO.C,Display1*%
X23591250Y-84137500D03*
X26131250Y-84137500D03*
X28671250Y-84137500D03*
X31211250Y-84137500D03*
X33751250Y-84137500D03*
%TD*%
D34*
%TO.C,SW1*%
X23821000Y-107010429D03*
X23821000Y-107010429D03*
X23821000Y-104010429D03*
X23821000Y-104010429D03*
D35*
X25571000Y-103260429D03*
X25571000Y-106260429D03*
X25571000Y-107760429D03*
D36*
X24786000Y-101860429D03*
X22856000Y-101860429D03*
X22856000Y-109160429D03*
X24786000Y-109160429D03*
%TD*%
D37*
%TO.C,J2*%
X32997000Y-95029250D03*
D38*
X32997000Y-95029250D03*
D37*
X32997000Y-91029250D03*
D38*
X32997000Y-91029250D03*
D39*
X32997000Y-93029250D03*
X32997000Y-93029250D03*
X32997000Y-93029250D03*
X32997000Y-93029250D03*
%TD*%
D15*
%TO.C,MX2*%
X56611250Y-69056250D03*
D16*
X55341250Y-66516250D03*
D17*
X51531250Y-69056250D03*
D16*
X48991250Y-63976250D03*
D15*
X46451250Y-69056250D03*
D19*
X58616250Y-66516250D03*
X45689250Y-63976250D03*
%TD*%
D15*
%TO.C,MX16*%
X113761250Y-97631250D03*
D16*
X112491250Y-95091250D03*
D17*
X108681250Y-97631250D03*
D16*
X106141250Y-92551250D03*
D15*
X103601250Y-97631250D03*
D19*
X115766250Y-95091250D03*
X102839250Y-92551250D03*
%TD*%
D15*
%TO.C,MX1*%
X56611250Y-50006250D03*
D16*
X55341250Y-47466250D03*
D17*
X51531250Y-50006250D03*
D16*
X48991250Y-44926250D03*
D15*
X46451250Y-50006250D03*
D19*
X58616250Y-47466250D03*
X45689250Y-44926250D03*
%TD*%
D15*
%TO.C,MX7*%
X75661250Y-84931250D03*
D16*
X74391250Y-82391250D03*
D17*
X70581250Y-84931250D03*
D16*
X68041250Y-79851250D03*
D15*
X65501250Y-84931250D03*
D19*
X77666250Y-82391250D03*
X64739250Y-79851250D03*
%TD*%
D15*
%TO.C,MX5*%
X75661250Y-46831250D03*
D16*
X74391250Y-44291250D03*
D17*
X70581250Y-46831250D03*
D16*
X68041250Y-41751250D03*
D15*
X65501250Y-46831250D03*
D19*
X77666250Y-44291250D03*
X64739250Y-41751250D03*
%TD*%
D15*
%TO.C,MX13*%
X113761250Y-40481250D03*
D16*
X112491250Y-37941250D03*
D17*
X108681250Y-40481250D03*
D16*
X106141250Y-35401250D03*
D15*
X103601250Y-40481250D03*
D19*
X115766250Y-37941250D03*
X102839250Y-35401250D03*
%TD*%
D15*
%TO.C,MX3*%
X56611250Y-88106250D03*
D16*
X55341250Y-85566250D03*
D17*
X51531250Y-88106250D03*
D16*
X48991250Y-83026250D03*
D15*
X46451250Y-88106250D03*
D19*
X58616250Y-85566250D03*
X45689250Y-83026250D03*
%TD*%
D15*
%TO.C,MX6*%
X75661250Y-65881250D03*
D16*
X74391250Y-63341250D03*
D17*
X70581250Y-65881250D03*
D16*
X68041250Y-60801250D03*
D15*
X65501250Y-65881250D03*
D19*
X77666250Y-63341250D03*
X64739250Y-60801250D03*
%TD*%
D40*
%TO.C,U1*%
X36451250Y-41534179D03*
D41*
X34673250Y-41534179D03*
D42*
X22989250Y-41534179D03*
D40*
X21211250Y-41534179D03*
D43*
X21211250Y-41534179D03*
D40*
X36451250Y-44074179D03*
D41*
X34673250Y-44074179D03*
D42*
X22989250Y-44074179D03*
D40*
X21211250Y-44074179D03*
X36451250Y-46614179D03*
D41*
X34673250Y-46614179D03*
D42*
X22989250Y-46614179D03*
D40*
X21211250Y-46614179D03*
X36451250Y-49154179D03*
D41*
X34673250Y-49154179D03*
D42*
X22989250Y-49154179D03*
D40*
X21211250Y-49154179D03*
X36451250Y-51694179D03*
D41*
X34673250Y-51694179D03*
D42*
X22989250Y-51694179D03*
D40*
X21211250Y-51694179D03*
X36451250Y-54234179D03*
D41*
X34673250Y-54234179D03*
D42*
X22989250Y-54234179D03*
D40*
X21211250Y-54234179D03*
X36451250Y-56774179D03*
D41*
X34673250Y-56774179D03*
D42*
X22989250Y-56774179D03*
D40*
X21211250Y-56774179D03*
X36451250Y-59314179D03*
D41*
X34673250Y-59314179D03*
D42*
X22989250Y-59314179D03*
D40*
X21211250Y-59314179D03*
X36451250Y-61854179D03*
D41*
X34673250Y-61854179D03*
D42*
X22989250Y-61854179D03*
D40*
X21211250Y-61854179D03*
X36451250Y-64394179D03*
D41*
X34673250Y-64394179D03*
D42*
X22989250Y-64394179D03*
D40*
X21211250Y-64394179D03*
X36451250Y-66934179D03*
D41*
X34673250Y-66934179D03*
D42*
X22989250Y-66934179D03*
D40*
X21211250Y-66934179D03*
X36451250Y-69474179D03*
D41*
X34673250Y-69474179D03*
D42*
X22989250Y-69474179D03*
D40*
X21211250Y-69474179D03*
D25*
X33657250Y-41534179D03*
X33657250Y-44074179D03*
X33657250Y-46614179D03*
X33657250Y-49154179D03*
X33657250Y-51694179D03*
X33657250Y-54234179D03*
X33657250Y-56774179D03*
X33657250Y-59314179D03*
X33657250Y-61854179D03*
X33657250Y-64394179D03*
X33657250Y-66934179D03*
X33657250Y-69474179D03*
D24*
X24005250Y-69474179D03*
X24005250Y-66934179D03*
X24005250Y-64394179D03*
X24005250Y-61854179D03*
X24005250Y-59314179D03*
X24005250Y-56774179D03*
X24005250Y-54234179D03*
X24005250Y-51694179D03*
X24005250Y-49154179D03*
X24005250Y-46614179D03*
X24005250Y-44074179D03*
X24005250Y-41534179D03*
%TD*%
D15*
%TO.C,MX4*%
X56611250Y-107156250D03*
D16*
X55341250Y-104616250D03*
D17*
X51531250Y-107156250D03*
D16*
X48991250Y-102076250D03*
D15*
X46451250Y-107156250D03*
D19*
X58616250Y-104616250D03*
X45689250Y-102076250D03*
%TD*%
D15*
%TO.C,MX12*%
X94711250Y-100806250D03*
D16*
X93441250Y-98266250D03*
D17*
X89631250Y-100806250D03*
D16*
X87091250Y-95726250D03*
D15*
X84551250Y-100806250D03*
D19*
X96716250Y-98266250D03*
X83789250Y-95726250D03*
%TD*%
D15*
%TO.C,MX14*%
X113761250Y-59531250D03*
D16*
X112491250Y-56991250D03*
D17*
X108681250Y-59531250D03*
D16*
X106141250Y-54451250D03*
D15*
X103601250Y-59531250D03*
D19*
X115766250Y-56991250D03*
X102839250Y-54451250D03*
%TD*%
D15*
%TO.C,MX22*%
X151861250Y-65881250D03*
D16*
X150591250Y-63341250D03*
D17*
X146781250Y-65881250D03*
D16*
X144241250Y-60801250D03*
D15*
X141701250Y-65881250D03*
D19*
X153866250Y-63341250D03*
X140939250Y-60801250D03*
%TD*%
D15*
%TO.C,MX11*%
X94711250Y-81756250D03*
D16*
X93441250Y-79216250D03*
D17*
X89631250Y-81756250D03*
D16*
X87091250Y-76676250D03*
D15*
X84551250Y-81756250D03*
D19*
X96716250Y-79216250D03*
X83789250Y-76676250D03*
%TD*%
D15*
%TO.C,MX19*%
X132811250Y-81756250D03*
D16*
X131541250Y-79216250D03*
D17*
X127731250Y-81756250D03*
D16*
X125191250Y-76676250D03*
D15*
X122651250Y-81756250D03*
D19*
X134816250Y-79216250D03*
X121889250Y-76676250D03*
%TD*%
D15*
%TO.C,MX23*%
X151861250Y-84931250D03*
D16*
X150591250Y-82391250D03*
D17*
X146781250Y-84931250D03*
D16*
X144241250Y-79851250D03*
D15*
X141701250Y-84931250D03*
D19*
X153866250Y-82391250D03*
X140939250Y-79851250D03*
%TD*%
D15*
%TO.C,MX10*%
X94711250Y-62706250D03*
D16*
X93441250Y-60166250D03*
D17*
X89631250Y-62706250D03*
D16*
X87091250Y-57626250D03*
D15*
X84551250Y-62706250D03*
D19*
X96716250Y-60166250D03*
X83789250Y-57626250D03*
%TD*%
D15*
%TO.C,MX21*%
X141701250Y-46831250D03*
D16*
X142971250Y-44291250D03*
D17*
X146781250Y-46831250D03*
D16*
X149321250Y-41751250D03*
D15*
X151861250Y-46831250D03*
%TD*%
%TO.C,MX2*%
X46451250Y-69056250D03*
D16*
X47721250Y-66516250D03*
D17*
X51531250Y-69056250D03*
D16*
X54071250Y-63976250D03*
D15*
X56611250Y-69056250D03*
%TD*%
%TO.C,MX13*%
X103601250Y-40481250D03*
D16*
X104871250Y-37941250D03*
D17*
X108681250Y-40481250D03*
D16*
X111221250Y-35401250D03*
D15*
X113761250Y-40481250D03*
%TD*%
D12*
%TO.C,REF\u002A\u002A*%
X157956250Y-95091250D03*
X157956250Y-96361250D03*
X157956250Y-97631250D03*
X157956250Y-98901250D03*
X157956250Y-100171250D03*
%TD*%
%TO.C,REF\u002A\u002A*%
X157956250Y-48101250D03*
X157956250Y-49371250D03*
%TD*%
D15*
%TO.C,MX20*%
X122651250Y-100806250D03*
D16*
X123921250Y-98266250D03*
D17*
X127731250Y-100806250D03*
D16*
X130271250Y-95726250D03*
D15*
X132811250Y-100806250D03*
%TD*%
%TO.C,MX14*%
X103601250Y-59531250D03*
D16*
X104871250Y-56991250D03*
D17*
X108681250Y-59531250D03*
D16*
X111221250Y-54451250D03*
D15*
X113761250Y-59531250D03*
%TD*%
D13*
%TO.C,REF\u002A\u002A*%
X79375000Y-56356250D03*
D14*
X79375000Y-56356250D03*
%TD*%
D12*
%TO.C,REF\u002A\u002A*%
X157956250Y-69691250D03*
X157956250Y-70961250D03*
X157956250Y-72231250D03*
X157956250Y-73501250D03*
X157956250Y-74771250D03*
%TD*%
D13*
%TO.C,REF\u002A\u002A*%
X40481250Y-110331250D03*
D14*
X40481250Y-110331250D03*
%TD*%
D18*
%TO.C,D8*%
X68931250Y-110331250D03*
X72231250Y-110331250D03*
%TD*%
D13*
%TO.C,REF\u002A\u002A*%
X118268750Y-70643750D03*
D14*
X118268750Y-70643750D03*
%TD*%
D15*
%TO.C,MX12*%
X84551250Y-100806250D03*
D16*
X85821250Y-98266250D03*
D17*
X89631250Y-100806250D03*
D16*
X92171250Y-95726250D03*
D15*
X94711250Y-100806250D03*
%TD*%
%TO.C,MX19*%
X122651250Y-81756250D03*
D16*
X123921250Y-79216250D03*
D17*
X127731250Y-81756250D03*
D16*
X130271250Y-76676250D03*
D15*
X132811250Y-81756250D03*
%TD*%
%TO.C,MX24*%
X141701250Y-103981250D03*
X141701250Y-103981250D03*
D16*
X142971250Y-101441250D03*
X144241250Y-98901250D03*
D17*
X146781250Y-103981250D03*
X146781250Y-103981250D03*
D16*
X149321250Y-98901250D03*
X150591250Y-101441250D03*
D15*
X151861250Y-103981250D03*
X151861250Y-103981250D03*
D19*
X153866250Y-101441250D03*
X140939250Y-98901250D03*
%TD*%
D15*
%TO.C,MX5*%
X65501250Y-46831250D03*
D16*
X66771250Y-44291250D03*
D17*
X70581250Y-46831250D03*
D16*
X73121250Y-41751250D03*
D15*
X75661250Y-46831250D03*
%TD*%
D13*
%TO.C,REF\u002A\u002A*%
X118268750Y-51593750D03*
D14*
X118268750Y-51593750D03*
%TD*%
D18*
%TO.C,D9*%
X87981250Y-50006250D03*
X91281250Y-50006250D03*
%TD*%
D15*
%TO.C,MX17*%
X122651250Y-43656250D03*
D16*
X123921250Y-41116250D03*
D17*
X127731250Y-43656250D03*
D16*
X130271250Y-38576250D03*
D15*
X132811250Y-43656250D03*
%TD*%
D44*
%TO.C,U3*%
X193962125Y-51325521D03*
D45*
X194852125Y-52917521D03*
D22*
X203512125Y-53425521D03*
X203512125Y-53425521D03*
X196512125Y-53425521D03*
X196512125Y-53425521D03*
D46*
X193074125Y-53933521D03*
D44*
X193962125Y-55525521D03*
D47*
X193074125Y-52917521D03*
D48*
X194852125Y-53933521D03*
D49*
X198712125Y-51325521D03*
X201712125Y-51325521D03*
%TD*%
D15*
%TO.C,MX6*%
X65501250Y-65881250D03*
D16*
X66771250Y-63341250D03*
D17*
X70581250Y-65881250D03*
D16*
X73121250Y-60801250D03*
D15*
X75661250Y-65881250D03*
%TD*%
D18*
%TO.C,D22*%
X145131250Y-72231250D03*
X148431250Y-72231250D03*
%TD*%
D15*
%TO.C,MX7*%
X65501250Y-84931250D03*
D16*
X66771250Y-82391250D03*
D17*
X70581250Y-84931250D03*
D16*
X73121250Y-79851250D03*
D15*
X75661250Y-84931250D03*
%TD*%
M02*
