%TF.GenerationSoftware,KiCad,Pcbnew,7.0.7*%
%TF.CreationDate,2024-02-04T16:52:20-05:00*%
%TF.ProjectId,garden,67617264-656e-42e6-9b69-6361645f7063,rev?*%
%TF.SameCoordinates,Original*%
%TF.FileFunction,Legend,Bot*%
%TF.FilePolarity,Positive*%
%FSLAX46Y46*%
G04 Gerber Fmt 4.6, Leading zero omitted, Abs format (unit mm)*
G04 Created by KiCad (PCBNEW 7.0.7) date 2024-02-04 16:52:20*
%MOMM*%
%LPD*%
G01*
G04 APERTURE LIST*
%ADD10C,0.150000*%
%ADD11C,0.120000*%
%ADD12C,0.152400*%
%ADD13C,0.127000*%
%ADD14C,0.250000*%
G04 APERTURE END LIST*
D10*
X31998569Y-111401845D02*
X31998569Y-111973273D01*
X32998569Y-111687559D02*
X31998569Y-111687559D01*
X32998569Y-112878035D02*
X32522378Y-112544702D01*
X32998569Y-112306607D02*
X31998569Y-112306607D01*
X31998569Y-112306607D02*
X31998569Y-112687559D01*
X31998569Y-112687559D02*
X32046188Y-112782797D01*
X32046188Y-112782797D02*
X32093807Y-112830416D01*
X32093807Y-112830416D02*
X32189045Y-112878035D01*
X32189045Y-112878035D02*
X32331902Y-112878035D01*
X32331902Y-112878035D02*
X32427140Y-112830416D01*
X32427140Y-112830416D02*
X32474759Y-112782797D01*
X32474759Y-112782797D02*
X32522378Y-112687559D01*
X32522378Y-112687559D02*
X32522378Y-112306607D01*
X32998569Y-113878035D02*
X32522378Y-113544702D01*
X32998569Y-113306607D02*
X31998569Y-113306607D01*
X31998569Y-113306607D02*
X31998569Y-113687559D01*
X31998569Y-113687559D02*
X32046188Y-113782797D01*
X32046188Y-113782797D02*
X32093807Y-113830416D01*
X32093807Y-113830416D02*
X32189045Y-113878035D01*
X32189045Y-113878035D02*
X32331902Y-113878035D01*
X32331902Y-113878035D02*
X32427140Y-113830416D01*
X32427140Y-113830416D02*
X32474759Y-113782797D01*
X32474759Y-113782797D02*
X32522378Y-113687559D01*
X32522378Y-113687559D02*
X32522378Y-113306607D01*
X32950950Y-114258988D02*
X32998569Y-114401845D01*
X32998569Y-114401845D02*
X32998569Y-114639940D01*
X32998569Y-114639940D02*
X32950950Y-114735178D01*
X32950950Y-114735178D02*
X32903330Y-114782797D01*
X32903330Y-114782797D02*
X32808092Y-114830416D01*
X32808092Y-114830416D02*
X32712854Y-114830416D01*
X32712854Y-114830416D02*
X32617616Y-114782797D01*
X32617616Y-114782797D02*
X32569997Y-114735178D01*
X32569997Y-114735178D02*
X32522378Y-114639940D01*
X32522378Y-114639940D02*
X32474759Y-114449464D01*
X32474759Y-114449464D02*
X32427140Y-114354226D01*
X32427140Y-114354226D02*
X32379521Y-114306607D01*
X32379521Y-114306607D02*
X32284283Y-114258988D01*
X32284283Y-114258988D02*
X32189045Y-114258988D01*
X32189045Y-114258988D02*
X32093807Y-114306607D01*
X32093807Y-114306607D02*
X32046188Y-114354226D01*
X32046188Y-114354226D02*
X31998569Y-114449464D01*
X31998569Y-114449464D02*
X31998569Y-114687559D01*
X31998569Y-114687559D02*
X32046188Y-114830416D01*
X40370450Y-75886469D02*
X40418069Y-76029326D01*
X40418069Y-76029326D02*
X40418069Y-76267421D01*
X40418069Y-76267421D02*
X40370450Y-76362659D01*
X40370450Y-76362659D02*
X40322830Y-76410278D01*
X40322830Y-76410278D02*
X40227592Y-76457897D01*
X40227592Y-76457897D02*
X40132354Y-76457897D01*
X40132354Y-76457897D02*
X40037116Y-76410278D01*
X40037116Y-76410278D02*
X39989497Y-76362659D01*
X39989497Y-76362659D02*
X39941878Y-76267421D01*
X39941878Y-76267421D02*
X39894259Y-76076945D01*
X39894259Y-76076945D02*
X39846640Y-75981707D01*
X39846640Y-75981707D02*
X39799021Y-75934088D01*
X39799021Y-75934088D02*
X39703783Y-75886469D01*
X39703783Y-75886469D02*
X39608545Y-75886469D01*
X39608545Y-75886469D02*
X39513307Y-75934088D01*
X39513307Y-75934088D02*
X39465688Y-75981707D01*
X39465688Y-75981707D02*
X39418069Y-76076945D01*
X39418069Y-76076945D02*
X39418069Y-76315040D01*
X39418069Y-76315040D02*
X39465688Y-76457897D01*
X39418069Y-76791231D02*
X40418069Y-77029326D01*
X40418069Y-77029326D02*
X39703783Y-77219802D01*
X39703783Y-77219802D02*
X40418069Y-77410278D01*
X40418069Y-77410278D02*
X39418069Y-77648374D01*
X39418069Y-78219802D02*
X39418069Y-78315040D01*
X39418069Y-78315040D02*
X39465688Y-78410278D01*
X39465688Y-78410278D02*
X39513307Y-78457897D01*
X39513307Y-78457897D02*
X39608545Y-78505516D01*
X39608545Y-78505516D02*
X39799021Y-78553135D01*
X39799021Y-78553135D02*
X40037116Y-78553135D01*
X40037116Y-78553135D02*
X40227592Y-78505516D01*
X40227592Y-78505516D02*
X40322830Y-78457897D01*
X40322830Y-78457897D02*
X40370450Y-78410278D01*
X40370450Y-78410278D02*
X40418069Y-78315040D01*
X40418069Y-78315040D02*
X40418069Y-78219802D01*
X40418069Y-78219802D02*
X40370450Y-78124564D01*
X40370450Y-78124564D02*
X40322830Y-78076945D01*
X40322830Y-78076945D02*
X40227592Y-78029326D01*
X40227592Y-78029326D02*
X40037116Y-77981707D01*
X40037116Y-77981707D02*
X39799021Y-77981707D01*
X39799021Y-77981707D02*
X39608545Y-78029326D01*
X39608545Y-78029326D02*
X39513307Y-78076945D01*
X39513307Y-78076945D02*
X39465688Y-78124564D01*
X39465688Y-78124564D02*
X39418069Y-78219802D01*
X34370830Y-79847458D02*
X34418450Y-79799839D01*
X34418450Y-79799839D02*
X34466069Y-79656982D01*
X34466069Y-79656982D02*
X34466069Y-79561744D01*
X34466069Y-79561744D02*
X34418450Y-79418887D01*
X34418450Y-79418887D02*
X34323211Y-79323649D01*
X34323211Y-79323649D02*
X34227973Y-79276030D01*
X34227973Y-79276030D02*
X34037497Y-79228411D01*
X34037497Y-79228411D02*
X33894640Y-79228411D01*
X33894640Y-79228411D02*
X33704164Y-79276030D01*
X33704164Y-79276030D02*
X33608926Y-79323649D01*
X33608926Y-79323649D02*
X33513688Y-79418887D01*
X33513688Y-79418887D02*
X33466069Y-79561744D01*
X33466069Y-79561744D02*
X33466069Y-79656982D01*
X33466069Y-79656982D02*
X33513688Y-79799839D01*
X33513688Y-79799839D02*
X33561307Y-79847458D01*
X34418450Y-80228411D02*
X34466069Y-80371268D01*
X34466069Y-80371268D02*
X34466069Y-80609363D01*
X34466069Y-80609363D02*
X34418450Y-80704601D01*
X34418450Y-80704601D02*
X34370830Y-80752220D01*
X34370830Y-80752220D02*
X34275592Y-80799839D01*
X34275592Y-80799839D02*
X34180354Y-80799839D01*
X34180354Y-80799839D02*
X34085116Y-80752220D01*
X34085116Y-80752220D02*
X34037497Y-80704601D01*
X34037497Y-80704601D02*
X33989878Y-80609363D01*
X33989878Y-80609363D02*
X33942259Y-80418887D01*
X33942259Y-80418887D02*
X33894640Y-80323649D01*
X33894640Y-80323649D02*
X33847021Y-80276030D01*
X33847021Y-80276030D02*
X33751783Y-80228411D01*
X33751783Y-80228411D02*
X33656545Y-80228411D01*
X33656545Y-80228411D02*
X33561307Y-80276030D01*
X33561307Y-80276030D02*
X33513688Y-80323649D01*
X33513688Y-80323649D02*
X33466069Y-80418887D01*
X33466069Y-80418887D02*
X33466069Y-80656982D01*
X33466069Y-80656982D02*
X33513688Y-80799839D01*
X24306069Y-79133364D02*
X23306069Y-79133364D01*
X23306069Y-79133364D02*
X24020354Y-79466697D01*
X24020354Y-79466697D02*
X23306069Y-79800030D01*
X23306069Y-79800030D02*
X24306069Y-79800030D01*
X23306069Y-80466697D02*
X23306069Y-80657173D01*
X23306069Y-80657173D02*
X23353688Y-80752411D01*
X23353688Y-80752411D02*
X23448926Y-80847649D01*
X23448926Y-80847649D02*
X23639402Y-80895268D01*
X23639402Y-80895268D02*
X23972735Y-80895268D01*
X23972735Y-80895268D02*
X24163211Y-80847649D01*
X24163211Y-80847649D02*
X24258450Y-80752411D01*
X24258450Y-80752411D02*
X24306069Y-80657173D01*
X24306069Y-80657173D02*
X24306069Y-80466697D01*
X24306069Y-80466697D02*
X24258450Y-80371459D01*
X24258450Y-80371459D02*
X24163211Y-80276221D01*
X24163211Y-80276221D02*
X23972735Y-80228602D01*
X23972735Y-80228602D02*
X23639402Y-80228602D01*
X23639402Y-80228602D02*
X23448926Y-80276221D01*
X23448926Y-80276221D02*
X23353688Y-80371459D01*
X23353688Y-80371459D02*
X23306069Y-80466697D01*
X24258450Y-81276221D02*
X24306069Y-81419078D01*
X24306069Y-81419078D02*
X24306069Y-81657173D01*
X24306069Y-81657173D02*
X24258450Y-81752411D01*
X24258450Y-81752411D02*
X24210830Y-81800030D01*
X24210830Y-81800030D02*
X24115592Y-81847649D01*
X24115592Y-81847649D02*
X24020354Y-81847649D01*
X24020354Y-81847649D02*
X23925116Y-81800030D01*
X23925116Y-81800030D02*
X23877497Y-81752411D01*
X23877497Y-81752411D02*
X23829878Y-81657173D01*
X23829878Y-81657173D02*
X23782259Y-81466697D01*
X23782259Y-81466697D02*
X23734640Y-81371459D01*
X23734640Y-81371459D02*
X23687021Y-81323840D01*
X23687021Y-81323840D02*
X23591783Y-81276221D01*
X23591783Y-81276221D02*
X23496545Y-81276221D01*
X23496545Y-81276221D02*
X23401307Y-81323840D01*
X23401307Y-81323840D02*
X23353688Y-81371459D01*
X23353688Y-81371459D02*
X23306069Y-81466697D01*
X23306069Y-81466697D02*
X23306069Y-81704792D01*
X23306069Y-81704792D02*
X23353688Y-81847649D01*
X24306069Y-82276221D02*
X23306069Y-82276221D01*
X28386069Y-79244411D02*
X29386069Y-79577744D01*
X29386069Y-79577744D02*
X28386069Y-79911077D01*
X29290830Y-80815839D02*
X29338450Y-80768220D01*
X29338450Y-80768220D02*
X29386069Y-80625363D01*
X29386069Y-80625363D02*
X29386069Y-80530125D01*
X29386069Y-80530125D02*
X29338450Y-80387268D01*
X29338450Y-80387268D02*
X29243211Y-80292030D01*
X29243211Y-80292030D02*
X29147973Y-80244411D01*
X29147973Y-80244411D02*
X28957497Y-80196792D01*
X28957497Y-80196792D02*
X28814640Y-80196792D01*
X28814640Y-80196792D02*
X28624164Y-80244411D01*
X28624164Y-80244411D02*
X28528926Y-80292030D01*
X28528926Y-80292030D02*
X28433688Y-80387268D01*
X28433688Y-80387268D02*
X28386069Y-80530125D01*
X28386069Y-80530125D02*
X28386069Y-80625363D01*
X28386069Y-80625363D02*
X28433688Y-80768220D01*
X28433688Y-80768220D02*
X28481307Y-80815839D01*
X29290830Y-81815839D02*
X29338450Y-81768220D01*
X29338450Y-81768220D02*
X29386069Y-81625363D01*
X29386069Y-81625363D02*
X29386069Y-81530125D01*
X29386069Y-81530125D02*
X29338450Y-81387268D01*
X29338450Y-81387268D02*
X29243211Y-81292030D01*
X29243211Y-81292030D02*
X29147973Y-81244411D01*
X29147973Y-81244411D02*
X28957497Y-81196792D01*
X28957497Y-81196792D02*
X28814640Y-81196792D01*
X28814640Y-81196792D02*
X28624164Y-81244411D01*
X28624164Y-81244411D02*
X28528926Y-81292030D01*
X28528926Y-81292030D02*
X28433688Y-81387268D01*
X28433688Y-81387268D02*
X28386069Y-81530125D01*
X28386069Y-81530125D02*
X28386069Y-81625363D01*
X28386069Y-81625363D02*
X28433688Y-81768220D01*
X28433688Y-81768220D02*
X28481307Y-81815839D01*
X26798450Y-79244411D02*
X26846069Y-79387268D01*
X26846069Y-79387268D02*
X26846069Y-79625363D01*
X26846069Y-79625363D02*
X26798450Y-79720601D01*
X26798450Y-79720601D02*
X26750830Y-79768220D01*
X26750830Y-79768220D02*
X26655592Y-79815839D01*
X26655592Y-79815839D02*
X26560354Y-79815839D01*
X26560354Y-79815839D02*
X26465116Y-79768220D01*
X26465116Y-79768220D02*
X26417497Y-79720601D01*
X26417497Y-79720601D02*
X26369878Y-79625363D01*
X26369878Y-79625363D02*
X26322259Y-79434887D01*
X26322259Y-79434887D02*
X26274640Y-79339649D01*
X26274640Y-79339649D02*
X26227021Y-79292030D01*
X26227021Y-79292030D02*
X26131783Y-79244411D01*
X26131783Y-79244411D02*
X26036545Y-79244411D01*
X26036545Y-79244411D02*
X25941307Y-79292030D01*
X25941307Y-79292030D02*
X25893688Y-79339649D01*
X25893688Y-79339649D02*
X25846069Y-79434887D01*
X25846069Y-79434887D02*
X25846069Y-79672982D01*
X25846069Y-79672982D02*
X25893688Y-79815839D01*
X26750830Y-80815839D02*
X26798450Y-80768220D01*
X26798450Y-80768220D02*
X26846069Y-80625363D01*
X26846069Y-80625363D02*
X26846069Y-80530125D01*
X26846069Y-80530125D02*
X26798450Y-80387268D01*
X26798450Y-80387268D02*
X26703211Y-80292030D01*
X26703211Y-80292030D02*
X26607973Y-80244411D01*
X26607973Y-80244411D02*
X26417497Y-80196792D01*
X26417497Y-80196792D02*
X26274640Y-80196792D01*
X26274640Y-80196792D02*
X26084164Y-80244411D01*
X26084164Y-80244411D02*
X25988926Y-80292030D01*
X25988926Y-80292030D02*
X25893688Y-80387268D01*
X25893688Y-80387268D02*
X25846069Y-80530125D01*
X25846069Y-80530125D02*
X25846069Y-80625363D01*
X25846069Y-80625363D02*
X25893688Y-80768220D01*
X25893688Y-80768220D02*
X25941307Y-80815839D01*
X26846069Y-81244411D02*
X25846069Y-81244411D01*
X26846069Y-81815839D02*
X26274640Y-81387268D01*
X25846069Y-81815839D02*
X26417497Y-81244411D01*
X30973688Y-79720601D02*
X30926069Y-79625363D01*
X30926069Y-79625363D02*
X30926069Y-79482506D01*
X30926069Y-79482506D02*
X30973688Y-79339649D01*
X30973688Y-79339649D02*
X31068926Y-79244411D01*
X31068926Y-79244411D02*
X31164164Y-79196792D01*
X31164164Y-79196792D02*
X31354640Y-79149173D01*
X31354640Y-79149173D02*
X31497497Y-79149173D01*
X31497497Y-79149173D02*
X31687973Y-79196792D01*
X31687973Y-79196792D02*
X31783211Y-79244411D01*
X31783211Y-79244411D02*
X31878450Y-79339649D01*
X31878450Y-79339649D02*
X31926069Y-79482506D01*
X31926069Y-79482506D02*
X31926069Y-79577744D01*
X31926069Y-79577744D02*
X31878450Y-79720601D01*
X31878450Y-79720601D02*
X31830830Y-79768220D01*
X31830830Y-79768220D02*
X31497497Y-79768220D01*
X31497497Y-79768220D02*
X31497497Y-79577744D01*
X31926069Y-80196792D02*
X30926069Y-80196792D01*
X30926069Y-80196792D02*
X31926069Y-80768220D01*
X31926069Y-80768220D02*
X30926069Y-80768220D01*
X31926069Y-81244411D02*
X30926069Y-81244411D01*
X30926069Y-81244411D02*
X30926069Y-81482506D01*
X30926069Y-81482506D02*
X30973688Y-81625363D01*
X30973688Y-81625363D02*
X31068926Y-81720601D01*
X31068926Y-81720601D02*
X31164164Y-81768220D01*
X31164164Y-81768220D02*
X31354640Y-81815839D01*
X31354640Y-81815839D02*
X31497497Y-81815839D01*
X31497497Y-81815839D02*
X31687973Y-81768220D01*
X31687973Y-81768220D02*
X31783211Y-81720601D01*
X31783211Y-81720601D02*
X31878450Y-81625363D01*
X31878450Y-81625363D02*
X31926069Y-81482506D01*
X31926069Y-81482506D02*
X31926069Y-81244411D01*
X28344200Y-103643762D02*
X28410866Y-103843762D01*
X28410866Y-103843762D02*
X28410866Y-104177096D01*
X28410866Y-104177096D02*
X28344200Y-104310429D01*
X28344200Y-104310429D02*
X28277533Y-104377096D01*
X28277533Y-104377096D02*
X28144200Y-104443762D01*
X28144200Y-104443762D02*
X28010866Y-104443762D01*
X28010866Y-104443762D02*
X27877533Y-104377096D01*
X27877533Y-104377096D02*
X27810866Y-104310429D01*
X27810866Y-104310429D02*
X27744200Y-104177096D01*
X27744200Y-104177096D02*
X27677533Y-103910429D01*
X27677533Y-103910429D02*
X27610866Y-103777096D01*
X27610866Y-103777096D02*
X27544200Y-103710429D01*
X27544200Y-103710429D02*
X27410866Y-103643762D01*
X27410866Y-103643762D02*
X27277533Y-103643762D01*
X27277533Y-103643762D02*
X27144200Y-103710429D01*
X27144200Y-103710429D02*
X27077533Y-103777096D01*
X27077533Y-103777096D02*
X27010866Y-103910429D01*
X27010866Y-103910429D02*
X27010866Y-104243762D01*
X27010866Y-104243762D02*
X27077533Y-104443762D01*
X27010866Y-104910429D02*
X28410866Y-105243762D01*
X28410866Y-105243762D02*
X27410866Y-105510429D01*
X27410866Y-105510429D02*
X28410866Y-105777095D01*
X28410866Y-105777095D02*
X27010866Y-106110429D01*
X28410866Y-107377095D02*
X28410866Y-106577095D01*
X28410866Y-106977095D02*
X27010866Y-106977095D01*
X27010866Y-106977095D02*
X27210866Y-106843762D01*
X27210866Y-106843762D02*
X27344200Y-106710429D01*
X27344200Y-106710429D02*
X27410866Y-106577095D01*
X35001819Y-92695916D02*
X35716104Y-92695916D01*
X35716104Y-92695916D02*
X35858961Y-92648297D01*
X35858961Y-92648297D02*
X35954200Y-92553059D01*
X35954200Y-92553059D02*
X36001819Y-92410202D01*
X36001819Y-92410202D02*
X36001819Y-92314964D01*
X35097057Y-93124488D02*
X35049438Y-93172107D01*
X35049438Y-93172107D02*
X35001819Y-93267345D01*
X35001819Y-93267345D02*
X35001819Y-93505440D01*
X35001819Y-93505440D02*
X35049438Y-93600678D01*
X35049438Y-93600678D02*
X35097057Y-93648297D01*
X35097057Y-93648297D02*
X35192295Y-93695916D01*
X35192295Y-93695916D02*
X35287533Y-93695916D01*
X35287533Y-93695916D02*
X35430390Y-93648297D01*
X35430390Y-93648297D02*
X36001819Y-93076869D01*
X36001819Y-93076869D02*
X36001819Y-93695916D01*
X201694029Y-52880340D02*
X201122601Y-52880340D01*
X201408315Y-53880340D02*
X201408315Y-52880340D01*
X200217839Y-53880340D02*
X200551172Y-53404149D01*
X200789267Y-53880340D02*
X200789267Y-52880340D01*
X200789267Y-52880340D02*
X200408315Y-52880340D01*
X200408315Y-52880340D02*
X200313077Y-52927959D01*
X200313077Y-52927959D02*
X200265458Y-52975578D01*
X200265458Y-52975578D02*
X200217839Y-53070816D01*
X200217839Y-53070816D02*
X200217839Y-53213673D01*
X200217839Y-53213673D02*
X200265458Y-53308911D01*
X200265458Y-53308911D02*
X200313077Y-53356530D01*
X200313077Y-53356530D02*
X200408315Y-53404149D01*
X200408315Y-53404149D02*
X200789267Y-53404149D01*
X199217839Y-53880340D02*
X199551172Y-53404149D01*
X199789267Y-53880340D02*
X199789267Y-52880340D01*
X199789267Y-52880340D02*
X199408315Y-52880340D01*
X199408315Y-52880340D02*
X199313077Y-52927959D01*
X199313077Y-52927959D02*
X199265458Y-52975578D01*
X199265458Y-52975578D02*
X199217839Y-53070816D01*
X199217839Y-53070816D02*
X199217839Y-53213673D01*
X199217839Y-53213673D02*
X199265458Y-53308911D01*
X199265458Y-53308911D02*
X199313077Y-53356530D01*
X199313077Y-53356530D02*
X199408315Y-53404149D01*
X199408315Y-53404149D02*
X199789267Y-53404149D01*
X198836886Y-53832721D02*
X198694029Y-53880340D01*
X198694029Y-53880340D02*
X198455934Y-53880340D01*
X198455934Y-53880340D02*
X198360696Y-53832721D01*
X198360696Y-53832721D02*
X198313077Y-53785101D01*
X198313077Y-53785101D02*
X198265458Y-53689863D01*
X198265458Y-53689863D02*
X198265458Y-53594625D01*
X198265458Y-53594625D02*
X198313077Y-53499387D01*
X198313077Y-53499387D02*
X198360696Y-53451768D01*
X198360696Y-53451768D02*
X198455934Y-53404149D01*
X198455934Y-53404149D02*
X198646410Y-53356530D01*
X198646410Y-53356530D02*
X198741648Y-53308911D01*
X198741648Y-53308911D02*
X198789267Y-53261292D01*
X198789267Y-53261292D02*
X198836886Y-53166054D01*
X198836886Y-53166054D02*
X198836886Y-53070816D01*
X198836886Y-53070816D02*
X198789267Y-52975578D01*
X198789267Y-52975578D02*
X198741648Y-52927959D01*
X198741648Y-52927959D02*
X198646410Y-52880340D01*
X198646410Y-52880340D02*
X198408315Y-52880340D01*
X198408315Y-52880340D02*
X198265458Y-52927959D01*
D11*
%TO.C,D28*%
X171643750Y-50276004D02*
X175543750Y-50276004D01*
X171643750Y-50276004D02*
X171643750Y-48276004D01*
X171643750Y-48276004D02*
X175543750Y-48276004D01*
%TO.C,D3*%
X53781250Y-93456250D02*
X49881250Y-93456250D01*
X53781250Y-93456250D02*
X53781250Y-95456250D01*
X53781250Y-95456250D02*
X49881250Y-95456250D01*
%TO.C,D13*%
X110931250Y-45831250D02*
X107031250Y-45831250D01*
X110931250Y-45831250D02*
X110931250Y-47831250D01*
X110931250Y-47831250D02*
X107031250Y-47831250D01*
%TO.C,D27*%
X171643750Y-69326004D02*
X175543750Y-69326004D01*
X171643750Y-69326004D02*
X171643750Y-67326004D01*
X171643750Y-67326004D02*
X175543750Y-67326004D01*
%TO.C,D14*%
X110931250Y-64881250D02*
X107031250Y-64881250D01*
X110931250Y-64881250D02*
X110931250Y-66881250D01*
X110931250Y-66881250D02*
X107031250Y-66881250D01*
%TO.C,D6*%
X72831250Y-71231250D02*
X68931250Y-71231250D01*
X72831250Y-71231250D02*
X72831250Y-73231250D01*
X72831250Y-73231250D02*
X68931250Y-73231250D01*
%TO.C,D17*%
X129981250Y-49006250D02*
X126081250Y-49006250D01*
X129981250Y-49006250D02*
X129981250Y-51006250D01*
X129981250Y-51006250D02*
X126081250Y-51006250D01*
%TO.C,D24*%
X149031250Y-109331250D02*
X145131250Y-109331250D01*
X149031250Y-109331250D02*
X149031250Y-111331250D01*
X149031250Y-111331250D02*
X145131250Y-111331250D01*
D10*
%TO.C,U2*%
X29643750Y-106343750D02*
X29643750Y-118093750D01*
X29643750Y-118093750D02*
X35443750Y-118093750D01*
X35443750Y-106343750D02*
X29643750Y-106343750D01*
X35443750Y-118093750D02*
X35443750Y-106343750D01*
D11*
%TO.C,D21*%
X149031250Y-52181250D02*
X145131250Y-52181250D01*
X149031250Y-52181250D02*
X149031250Y-54181250D01*
X149031250Y-54181250D02*
X145131250Y-54181250D01*
%TO.C,D25*%
X192376729Y-84090229D02*
X192376729Y-80190229D01*
X192376729Y-84090229D02*
X190376729Y-84090229D01*
X190376729Y-84090229D02*
X190376729Y-80190229D01*
%TO.C,D2*%
X53781250Y-74406250D02*
X49881250Y-74406250D01*
X53781250Y-74406250D02*
X53781250Y-76406250D01*
X53781250Y-76406250D02*
X49881250Y-76406250D01*
%TO.C,D5*%
X72831250Y-52181250D02*
X68931250Y-52181250D01*
X72831250Y-52181250D02*
X72831250Y-54181250D01*
X72831250Y-54181250D02*
X68931250Y-54181250D01*
%TO.C,D18*%
X129981250Y-68056250D02*
X126081250Y-68056250D01*
X129981250Y-68056250D02*
X129981250Y-70056250D01*
X129981250Y-70056250D02*
X126081250Y-70056250D01*
%TO.C,D26*%
X171643750Y-88376004D02*
X175543750Y-88376004D01*
X171643750Y-88376004D02*
X171643750Y-86376004D01*
X171643750Y-86376004D02*
X175543750Y-86376004D01*
%TO.C,D12*%
X91881250Y-106156250D02*
X87981250Y-106156250D01*
X91881250Y-106156250D02*
X91881250Y-108156250D01*
X91881250Y-108156250D02*
X87981250Y-108156250D01*
D12*
%TO.C,SW0*%
X39048850Y-75594202D02*
X39048850Y-78845402D01*
X36305650Y-78845402D02*
X36305650Y-75594202D01*
D11*
%TO.C,D11*%
X91881250Y-87106250D02*
X87981250Y-87106250D01*
X91881250Y-87106250D02*
X91881250Y-89106250D01*
X91881250Y-89106250D02*
X87981250Y-89106250D01*
%TO.C,D20*%
X129981250Y-106156250D02*
X126081250Y-106156250D01*
X129981250Y-106156250D02*
X129981250Y-108156250D01*
X129981250Y-108156250D02*
X126081250Y-108156250D01*
%TO.C,D4*%
X53781250Y-112506250D02*
X49881250Y-112506250D01*
X53781250Y-112506250D02*
X53781250Y-114506250D01*
X53781250Y-114506250D02*
X49881250Y-114506250D01*
%TO.C,D19*%
X129981250Y-87106250D02*
X126081250Y-87106250D01*
X129981250Y-87106250D02*
X129981250Y-89106250D01*
X129981250Y-89106250D02*
X126081250Y-89106250D01*
%TO.C,D23*%
X149031250Y-90281250D02*
X145131250Y-90281250D01*
X149031250Y-90281250D02*
X149031250Y-92281250D01*
X149031250Y-92281250D02*
X145131250Y-92281250D01*
%TO.C,J1*%
X34831250Y-78553000D02*
X34831250Y-75753000D01*
X34831250Y-75753000D02*
X32831250Y-75753000D01*
X32831250Y-78553000D02*
X34831250Y-78553000D01*
X32831250Y-75753000D02*
X32831250Y-78553000D01*
X32331250Y-78553000D02*
X32331250Y-75753000D01*
X32331250Y-75753000D02*
X30331250Y-75753000D01*
X30331250Y-78553000D02*
X32331250Y-78553000D01*
X30331250Y-75753000D02*
X30331250Y-78553000D01*
X29831250Y-78553000D02*
X29831250Y-75753000D01*
X29831250Y-75753000D02*
X27831250Y-75753000D01*
X27831250Y-78553000D02*
X29831250Y-78553000D01*
X27831250Y-75753000D02*
X27831250Y-78553000D01*
X27331250Y-78553000D02*
X27331250Y-75753000D01*
X27331250Y-75753000D02*
X25331250Y-75753000D01*
X25331250Y-78553000D02*
X27331250Y-78553000D01*
X25331250Y-75753000D02*
X25331250Y-78553000D01*
X24831250Y-78553000D02*
X24831250Y-75753000D01*
X24831250Y-75753000D02*
X22831250Y-75753000D01*
X22831250Y-78553000D02*
X24831250Y-78553000D01*
X22831250Y-75753000D02*
X22831250Y-78553000D01*
%TO.C,D16*%
X110931250Y-102981250D02*
X107031250Y-102981250D01*
X110931250Y-102981250D02*
X110931250Y-104981250D01*
X110931250Y-104981250D02*
X107031250Y-104981250D01*
%TO.C,D7*%
X72831250Y-90281250D02*
X68931250Y-90281250D01*
X72831250Y-90281250D02*
X72831250Y-92281250D01*
X72831250Y-92281250D02*
X68931250Y-92281250D01*
%TO.C,D1*%
X53781250Y-55356250D02*
X49881250Y-55356250D01*
X53781250Y-55356250D02*
X53781250Y-57356250D01*
X53781250Y-57356250D02*
X49881250Y-57356250D01*
%TO.C,D10*%
X91881250Y-68056250D02*
X87981250Y-68056250D01*
X91881250Y-68056250D02*
X91881250Y-70056250D01*
X91881250Y-70056250D02*
X87981250Y-70056250D01*
%TO.C,D15*%
X110931250Y-83931250D02*
X107031250Y-83931250D01*
X110931250Y-83931250D02*
X110931250Y-85931250D01*
X110931250Y-85931250D02*
X107031250Y-85931250D01*
%TO.C,Display1*%
X22321250Y-85437500D02*
X35021250Y-85437500D01*
X35021250Y-85437500D02*
X35021250Y-82837500D01*
X35021250Y-82837500D02*
X22321250Y-82837500D01*
X22321250Y-82837500D02*
X22321250Y-85437500D01*
D13*
%TO.C,SW1*%
X23521000Y-108860429D02*
X24121000Y-108860429D01*
X22521000Y-108410429D02*
X22521000Y-102610429D01*
X25121000Y-107110429D02*
X25121000Y-105410429D01*
X24121000Y-102160429D02*
X23521000Y-102160429D01*
D14*
X26421000Y-108710429D02*
G75*
G03*
X26421000Y-108710429I-100000J0D01*
G01*
D11*
%TO.C,J2*%
X26637000Y-97089250D02*
X26637000Y-90969250D01*
X32857000Y-97089250D02*
X32857000Y-96169250D01*
X34457000Y-97089250D02*
X26637000Y-97089250D01*
X28897000Y-96329250D02*
X28897000Y-95329250D01*
X30497000Y-96329250D02*
X28897000Y-96329250D01*
X32857000Y-96169250D02*
X34457000Y-96169250D01*
X34457000Y-96169250D02*
X34457000Y-97089250D01*
X32857000Y-95889250D02*
X32857000Y-96169250D01*
X32857000Y-95889250D02*
X34072000Y-95889250D01*
X28897000Y-95829250D02*
X26637000Y-95829250D01*
X28897000Y-95329250D02*
X26637000Y-95329250D01*
X28897000Y-95329250D02*
X30497000Y-95329250D01*
X30497000Y-95329250D02*
X30497000Y-96329250D01*
X26637000Y-94529250D02*
X30997000Y-94529250D01*
X30997000Y-94529250D02*
X30997000Y-93529250D01*
X30997000Y-93529250D02*
X26637000Y-93529250D01*
X28897000Y-92729250D02*
X30497000Y-92729250D01*
X30497000Y-92729250D02*
X30497000Y-91729250D01*
X32857000Y-91889250D02*
X32857000Y-92169250D01*
X34457000Y-91889250D02*
X32857000Y-91889250D01*
X28897000Y-91729250D02*
X28897000Y-92729250D01*
X30497000Y-91729250D02*
X28897000Y-91729250D01*
X26637000Y-90969250D02*
X34457000Y-90969250D01*
X32857000Y-90969250D02*
X32857000Y-91889250D01*
X34457000Y-90969250D02*
X34457000Y-91889250D01*
D10*
%TO.C,U1*%
X37721250Y-40264179D02*
X19941250Y-40264179D01*
X37721250Y-40264179D02*
X37721250Y-70744179D01*
X19941250Y-40264179D02*
X19941250Y-70744179D01*
X19941250Y-70744179D02*
X37721250Y-70744179D01*
D11*
%TO.C,D8*%
X72831250Y-109331250D02*
X68931250Y-109331250D01*
X72831250Y-109331250D02*
X72831250Y-111331250D01*
X72831250Y-111331250D02*
X68931250Y-111331250D01*
%TO.C,D9*%
X91881250Y-49006250D02*
X87981250Y-49006250D01*
X91881250Y-49006250D02*
X91881250Y-51006250D01*
X91881250Y-51006250D02*
X87981250Y-51006250D01*
D10*
%TO.C,U3*%
X204862125Y-50525521D02*
X193112125Y-50525521D01*
X193112125Y-50525521D02*
X193112125Y-56325521D01*
X204862125Y-56325521D02*
X204862125Y-50525521D01*
X193112125Y-56325521D02*
X204862125Y-56325521D01*
D11*
%TO.C,D22*%
X149031250Y-71231250D02*
X145131250Y-71231250D01*
X149031250Y-71231250D02*
X149031250Y-73231250D01*
X149031250Y-73231250D02*
X145131250Y-73231250D01*
%TD*%
M02*
