M48
; DRILL file {KiCad 7.0.7} date Sun Feb  4 16:52:09 2024
; FORMAT={-:-/ absolute / inch / decimal}
; #@! TF.CreationDate,2024-02-04T16:52:09-05:00
; #@! TF.GenerationSoftware,Kicad,Pcbnew,7.0.7
; #@! TF.FileFunction,NonPlated,1,2,NPTH
FMAT,2
INCH
; #@! TA.AperFunction,NonPlated,NPTH,ComponentDrill
T1C0.0310
; #@! TA.AperFunction,NonPlated,NPTH,ComponentDrill
T2C0.0354
; #@! TA.AperFunction,NonPlated,NPTH,ComponentDrill
T3C0.0472
; #@! TA.AperFunction,NonPlated,NPTH,ComponentDrill
T4C0.0689
; #@! TA.AperFunction,NonPlated,NPTH,ComponentDrill
T5C0.1181
; #@! TA.AperFunction,NonPlated,NPTH,ComponentDrill
T6C0.1200
; #@! TA.AperFunction,NonPlated,NPTH,ComponentDrill
T7C0.1570
%
G90
G05
T1
X6.1562Y2.1375
X6.1562Y2.0875
X6.1562Y2.0375
X6.1562Y1.9875
X6.1562Y1.9375
X6.1562Y1.8875
X6.1562Y1.8375
X6.1562Y1.7875
X6.1562Y1.7375
X6.1562Y1.6875
X6.1562Y1.6375
X6.1562Y1.5875
X6.1562Y1.5375
X6.1562Y1.4875
X6.1562Y1.4375
X6.1562Y1.3875
X6.1562Y1.3375
X6.1562Y1.2875
X6.1562Y1.2375
X6.1562Y1.1875
X6.1562Y1.1375
X6.1562Y1.0875
X6.1562Y1.0375
X6.1562Y0.9875
X6.1562Y0.9375
X6.1562Y0.8875
X6.1562Y0.8375
X6.1562Y0.7875
X6.1562Y0.7375
X6.1562Y0.6875
X6.1562Y0.6375
X6.1562Y0.5875
X6.1562Y0.5375
X6.1562Y0.4875
X6.1562Y0.4375
X6.1562Y0.3875
X6.1562Y0.3375
X6.1562Y0.2875
X6.1562Y0.2375
X6.1562Y0.1875
X6.1562Y0.1375
X6.1562Y0.0875
X6.2188Y-1.8938
X6.2188Y-1.9437
X6.2188Y-1.9937
X6.2188Y-2.0437
X6.2188Y-2.0938
X6.2188Y-2.1437
X6.2188Y-2.1938
X6.2188Y-2.2437
X6.2188Y-2.2937
X6.2188Y-2.3438
X6.2188Y-2.3937
X6.2188Y-2.4438
X6.2188Y-2.4937
X6.2188Y-2.5437
X6.2188Y-2.5938
X6.2188Y-2.6437
X6.2188Y-2.6938
X6.2188Y-2.7437
X6.2188Y-2.7937
X6.2188Y-2.8438
X6.2188Y-2.8937
X6.2188Y-2.9438
X6.2188Y-2.9937
X6.2188Y-3.0437
X6.2188Y-3.0938
X6.2188Y-3.1437
X6.2188Y-3.1938
X6.2188Y-3.2437
X6.2188Y-3.2937
X6.2188Y-3.3438
X6.2188Y-3.3937
X6.2188Y-3.4438
X6.2188Y-3.4937
X6.2188Y-3.5437
X6.2188Y-3.5938
X6.2188Y-3.6437
X6.2188Y-3.6938
X6.2188Y-3.7437
X6.2188Y-3.7937
X6.2188Y-3.8438
X6.2188Y-3.8937
X6.2188Y-3.9438
T2
X0.9378Y-4.0949
X0.9378Y-4.0949
X0.9378Y-4.213
X0.9378Y-4.213
T3
X1.2812Y-4.3206
X1.2812Y-4.3206
X1.2812Y-4.5962
X1.2812Y-4.5962
X7.7367Y-2.1034
X7.7367Y-2.1034
X8.0123Y-2.1034
X8.0123Y-2.1034
T4
X1.8288Y-1.9688
X1.8288Y-1.9688
X1.8288Y-2.7188
X1.8288Y-2.7188
X1.8288Y-3.4688
X1.8288Y-3.4688
X1.8288Y-4.2188
X1.8288Y-4.2188
X2.2288Y-1.9688
X2.2288Y-1.9688
X2.2288Y-2.7188
X2.2288Y-2.7188
X2.2288Y-3.4688
X2.2288Y-3.4688
X2.2288Y-4.2188
X2.2288Y-4.2188
X2.5788Y-1.8438
X2.5788Y-1.8438
X2.5788Y-2.5938
X2.5788Y-2.5938
X2.5788Y-3.3438
X2.5788Y-3.3438
X2.5788Y-4.0938
X2.5788Y-4.0938
X2.9788Y-1.8438
X2.9788Y-1.8438
X2.9788Y-2.5938
X2.9788Y-2.5938
X2.9788Y-3.3438
X2.9788Y-3.3438
X2.9788Y-4.0938
X2.9788Y-4.0938
X3.3288Y-1.7188
X3.3288Y-1.7188
X3.3288Y-2.4688
X3.3288Y-2.4688
X3.3288Y-3.2188
X3.3288Y-3.2188
X3.3288Y-3.9688
X3.3288Y-3.9688
X3.7288Y-1.7188
X3.7288Y-1.7188
X3.7288Y-2.4688
X3.7288Y-2.4688
X3.7288Y-3.2188
X3.7288Y-3.2188
X3.7288Y-3.9688
X3.7288Y-3.9688
X4.0788Y-1.5938
X4.0788Y-1.5938
X4.0788Y-2.3438
X4.0788Y-2.3438
X4.0788Y-3.0938
X4.0788Y-3.0938
X4.0788Y-3.8438
X4.0788Y-3.8438
X4.4788Y-1.5938
X4.4788Y-1.5938
X4.4788Y-2.3438
X4.4788Y-2.3438
X4.4788Y-3.0938
X4.4788Y-3.0938
X4.4788Y-3.8438
X4.4788Y-3.8438
X4.8288Y-1.7188
X4.8288Y-1.7188
X4.8288Y-2.4688
X4.8288Y-2.4688
X4.8288Y-3.2188
X4.8288Y-3.2188
X4.8288Y-3.9688
X4.8288Y-3.9688
X5.2288Y-1.7188
X5.2288Y-1.7188
X5.2288Y-2.4688
X5.2288Y-2.4688
X5.2288Y-3.2188
X5.2288Y-3.2188
X5.2288Y-3.9688
X5.2288Y-3.9688
X5.5788Y-1.8438
X5.5788Y-1.8438
X5.5788Y-2.5938
X5.5788Y-2.5938
X5.5788Y-3.3438
X5.5788Y-3.3438
X5.5788Y-4.0938
X5.5788Y-4.0938
X5.9788Y-1.8438
X5.9788Y-1.8438
X5.9788Y-2.5938
X5.9788Y-2.5938
X5.9788Y-3.3438
X5.9788Y-3.3438
X5.9788Y-4.0938
X5.9788Y-4.0938
X6.6462Y-2.19
X6.6462Y-2.19
X6.6462Y-2.94
X6.6462Y-2.94
X6.6462Y-3.69
X6.6462Y-3.69
X7.0462Y-2.19
X7.0462Y-2.19
X7.0462Y-2.94
X7.0462Y-2.94
X7.0462Y-3.69
X7.0462Y-3.69
X7.7845Y-3.0221
X7.7845Y-3.4221
T5
X1.8788Y-1.8687
X1.8788Y-2.6187
X1.8788Y-3.3687
X1.8788Y-4.1187
X1.9288Y-1.7688
X1.9288Y-2.5187
X1.9288Y-3.2687
X1.9288Y-4.0187
X2.1288Y-1.7688
X2.1288Y-2.5187
X2.1288Y-3.2687
X2.1288Y-4.0187
X2.1788Y-1.8687
X2.1788Y-2.6187
X2.1788Y-3.3687
X2.1788Y-4.1187
X2.6288Y-1.7437
X2.6288Y-2.4937
X2.6288Y-3.2437
X2.6288Y-3.9937
X2.6788Y-1.6438
X2.6788Y-2.3937
X2.6788Y-3.1437
X2.6788Y-3.8937
X2.8788Y-1.6438
X2.8788Y-2.3937
X2.8788Y-3.1437
X2.8788Y-3.8937
X2.9288Y-1.7437
X2.9288Y-2.4937
X2.9288Y-3.2437
X2.9288Y-3.9937
X3.3788Y-1.6187
X3.3788Y-2.3687
X3.3788Y-3.1187
X3.3788Y-3.8687
X3.4288Y-1.5188
X3.4288Y-2.2687
X3.4288Y-3.0187
X3.4288Y-3.7687
X3.6288Y-1.5188
X3.6288Y-2.2687
X3.6288Y-3.0187
X3.6288Y-3.7687
X3.6788Y-1.6187
X3.6788Y-2.3687
X3.6788Y-3.1187
X3.6788Y-3.8687
X4.1288Y-1.4937
X4.1288Y-2.2437
X4.1288Y-2.9937
X4.1288Y-3.7437
X4.1788Y-1.3938
X4.1788Y-2.1437
X4.1788Y-2.8937
X4.1788Y-3.6437
X4.3788Y-1.3938
X4.3788Y-2.1437
X4.3788Y-2.8937
X4.3788Y-3.6437
X4.4288Y-1.4937
X4.4288Y-2.2437
X4.4288Y-2.9937
X4.4288Y-3.7437
X4.8788Y-1.6187
X4.8788Y-2.3687
X4.8788Y-3.1187
X4.8788Y-3.8687
X4.9288Y-1.5188
X4.9288Y-2.2687
X4.9288Y-3.0187
X4.9288Y-3.7687
X5.1288Y-1.5188
X5.1288Y-2.2687
X5.1288Y-3.0187
X5.1288Y-3.7687
X5.1788Y-1.6187
X5.1788Y-2.3687
X5.1788Y-3.1187
X5.1788Y-3.8687
X5.6288Y-1.7437
X5.6288Y-2.4937
X5.6288Y-3.2437
X5.6288Y-3.9937
X5.6788Y-1.6438
X5.6788Y-2.3937
X5.6788Y-3.1437
X5.6788Y-3.8937
X5.8788Y-1.6438
X5.8788Y-2.3937
X5.8788Y-3.1437
X5.8788Y-3.8937
X5.9288Y-1.7437
X5.9288Y-2.4937
X5.9288Y-3.2437
X5.9288Y-3.9937
X6.6962Y-2.29
X6.6962Y-3.04
X6.6962Y-3.79
X6.7462Y-2.39
X6.7462Y-3.14
X6.7462Y-3.89
X6.9462Y-2.39
X6.9462Y-3.14
X6.9462Y-3.89
X6.9962Y-2.29
X6.9962Y-3.04
X6.9962Y-3.79
X7.8845Y-3.0721
X7.8845Y-3.3721
X7.9845Y-3.1221
X7.9845Y-3.3221
T6
X8.0595Y-2.7521
X8.0595Y-3.6921
T7
X2.0288Y-1.9688
X2.0288Y-1.9688
X2.0288Y-2.7188
X2.0288Y-2.7188
X2.0288Y-3.4688
X2.0288Y-3.4688
X2.0288Y-4.2188
X2.0288Y-4.2188
X2.7788Y-1.8438
X2.7788Y-1.8438
X2.7788Y-2.5938
X2.7788Y-2.5938
X2.7788Y-3.3438
X2.7788Y-3.3438
X2.7788Y-4.0938
X2.7788Y-4.0938
X3.5288Y-1.7188
X3.5288Y-1.7188
X3.5288Y-2.4688
X3.5288Y-2.4688
X3.5288Y-3.2188
X3.5288Y-3.2188
X3.5288Y-3.9688
X3.5288Y-3.9688
X4.2788Y-1.5938
X4.2788Y-1.5938
X4.2788Y-2.3438
X4.2788Y-2.3438
X4.2788Y-3.0938
X4.2788Y-3.0938
X4.2788Y-3.8438
X4.2788Y-3.8438
X5.0288Y-1.7188
X5.0288Y-1.7188
X5.0288Y-2.4688
X5.0288Y-2.4688
X5.0288Y-3.2188
X5.0288Y-3.2188
X5.0288Y-3.9688
X5.0288Y-3.9688
X5.7788Y-1.8438
X5.7788Y-1.8438
X5.7788Y-2.5938
X5.7788Y-2.5938
X5.7788Y-3.3438
X5.7788Y-3.3438
X5.7788Y-4.0938
X5.7788Y-4.0938
X6.8462Y-2.19
X6.8462Y-2.19
X6.8462Y-2.94
X6.8462Y-2.94
X6.8462Y-3.69
X6.8462Y-3.69
X7.4595Y-2.7521
X7.4595Y-3.6921
X7.7845Y-3.2221
T0
M30
