%TF.GenerationSoftware,KiCad,Pcbnew,7.0.7*%
%TF.CreationDate,2024-02-04T16:52:20-05:00*%
%TF.ProjectId,garden,67617264-656e-42e6-9b69-6361645f7063,rev?*%
%TF.SameCoordinates,Original*%
%TF.FileFunction,Paste,Bot*%
%TF.FilePolarity,Positive*%
%FSLAX46Y46*%
G04 Gerber Fmt 4.6, Leading zero omitted, Abs format (unit mm)*
G04 Created by KiCad (PCBNEW 7.0.7) date 2024-02-04 16:52:20*
%MOMM*%
%LPD*%
G01*
G04 APERTURE LIST*
%ADD10R,2.550000X2.500000*%
%ADD11R,0.900000X1.200000*%
%ADD12R,1.200000X0.900000*%
%ADD13R,1.803400X0.812800*%
%ADD14R,2.500000X2.550000*%
%ADD15R,1.500000X0.700000*%
%ADD16R,0.800000X1.000000*%
G04 APERTURE END LIST*
D10*
%TO.C,MX15*%
X101596250Y-76041250D03*
X114523250Y-73501250D03*
%TD*%
D11*
%TO.C,D28*%
X172243750Y-49276004D03*
X175543750Y-49276004D03*
%TD*%
%TO.C,D3*%
X53181250Y-94456250D03*
X49881250Y-94456250D03*
%TD*%
D10*
%TO.C,MX4*%
X44446250Y-104616250D03*
X57373250Y-102076250D03*
%TD*%
D11*
%TO.C,D13*%
X110331250Y-46831250D03*
X107031250Y-46831250D03*
%TD*%
%TO.C,D27*%
X172243750Y-68326004D03*
X175543750Y-68326004D03*
%TD*%
%TO.C,D14*%
X110331250Y-65881250D03*
X107031250Y-65881250D03*
%TD*%
%TO.C,D6*%
X72231250Y-72231250D03*
X68931250Y-72231250D03*
%TD*%
%TO.C,D17*%
X129381250Y-50006250D03*
X126081250Y-50006250D03*
%TD*%
%TO.C,D24*%
X148431250Y-110331250D03*
X145131250Y-110331250D03*
%TD*%
%TO.C,D21*%
X148431250Y-53181250D03*
X145131250Y-53181250D03*
%TD*%
D10*
%TO.C,MX1*%
X44446250Y-47466250D03*
X57373250Y-44926250D03*
%TD*%
D12*
%TO.C,D25*%
X191376729Y-83490229D03*
X191376729Y-80190229D03*
%TD*%
D10*
%TO.C,MX23*%
X139696250Y-82391250D03*
X152623250Y-79851250D03*
%TD*%
D11*
%TO.C,D2*%
X53181250Y-75406250D03*
X49881250Y-75406250D03*
%TD*%
%TO.C,D5*%
X72231250Y-53181250D03*
X68931250Y-53181250D03*
%TD*%
D10*
%TO.C,MX27*%
X180978750Y-77216004D03*
X168051750Y-79756004D03*
%TD*%
%TO.C,MX22*%
X139696250Y-63341250D03*
X152623250Y-60801250D03*
%TD*%
%TO.C,MX28*%
X180978750Y-58166004D03*
X168051750Y-60706004D03*
%TD*%
%TO.C,MX8*%
X63496250Y-101441250D03*
X76423250Y-98901250D03*
%TD*%
D11*
%TO.C,D18*%
X129381250Y-69056250D03*
X126081250Y-69056250D03*
%TD*%
D10*
%TO.C,MX16*%
X101596250Y-95091250D03*
X114523250Y-92551250D03*
%TD*%
D11*
%TO.C,D26*%
X172243750Y-87376004D03*
X175543750Y-87376004D03*
%TD*%
%TO.C,D12*%
X91281250Y-107156250D03*
X87981250Y-107156250D03*
%TD*%
D13*
%TO.C,SW0*%
X37677250Y-78919804D03*
X37677250Y-75519800D03*
%TD*%
D10*
%TO.C,MX11*%
X82546250Y-79216250D03*
X95473250Y-76676250D03*
%TD*%
D11*
%TO.C,D11*%
X91281250Y-88106250D03*
X87981250Y-88106250D03*
%TD*%
D10*
%TO.C,MX18*%
X120646250Y-60166250D03*
X133573250Y-57626250D03*
%TD*%
D11*
%TO.C,D20*%
X129381250Y-107156250D03*
X126081250Y-107156250D03*
%TD*%
D10*
%TO.C,MX26*%
X180978750Y-96266004D03*
X168051750Y-98806004D03*
%TD*%
%TO.C,MX9*%
X82546250Y-41116250D03*
X95473250Y-38576250D03*
%TD*%
D11*
%TO.C,D4*%
X53181250Y-113506250D03*
X49881250Y-113506250D03*
%TD*%
D10*
%TO.C,MX3*%
X44446250Y-85566250D03*
X57373250Y-83026250D03*
%TD*%
D11*
%TO.C,D19*%
X129381250Y-88106250D03*
X126081250Y-88106250D03*
%TD*%
%TO.C,D23*%
X148431250Y-91281250D03*
X145131250Y-91281250D03*
%TD*%
%TO.C,D16*%
X110331250Y-103981250D03*
X107031250Y-103981250D03*
%TD*%
D14*
%TO.C,MX25*%
X200266729Y-74755229D03*
X202806729Y-87682229D03*
%TD*%
D10*
%TO.C,MX10*%
X82546250Y-60166250D03*
X95473250Y-57626250D03*
%TD*%
D11*
%TO.C,D7*%
X72231250Y-91281250D03*
X68931250Y-91281250D03*
%TD*%
%TO.C,D1*%
X53181250Y-56356250D03*
X49881250Y-56356250D03*
%TD*%
%TO.C,D10*%
X91281250Y-69056250D03*
X87981250Y-69056250D03*
%TD*%
%TO.C,D15*%
X110331250Y-84931250D03*
X107031250Y-84931250D03*
%TD*%
D15*
%TO.C,SW1*%
X25571000Y-107760429D03*
X25571000Y-104760429D03*
X25571000Y-103260429D03*
D16*
X24786000Y-109160429D03*
X22856000Y-109160429D03*
X22856000Y-101860429D03*
X24786000Y-101860429D03*
%TD*%
D10*
%TO.C,MX21*%
X139696250Y-44291250D03*
X152623250Y-41751250D03*
%TD*%
%TO.C,MX2*%
X44446250Y-66516250D03*
X57373250Y-63976250D03*
%TD*%
%TO.C,MX13*%
X101596250Y-37941250D03*
X114523250Y-35401250D03*
%TD*%
%TO.C,MX20*%
X120646250Y-98266250D03*
X133573250Y-95726250D03*
%TD*%
%TO.C,MX14*%
X101596250Y-56991250D03*
X114523250Y-54451250D03*
%TD*%
D11*
%TO.C,D8*%
X72231250Y-110331250D03*
X68931250Y-110331250D03*
%TD*%
D10*
%TO.C,MX12*%
X82546250Y-98266250D03*
X95473250Y-95726250D03*
%TD*%
%TO.C,MX19*%
X120646250Y-79216250D03*
X133573250Y-76676250D03*
%TD*%
%TO.C,MX24*%
X139696250Y-101441250D03*
X152623250Y-98901250D03*
%TD*%
%TO.C,MX5*%
X63496250Y-44291250D03*
X76423250Y-41751250D03*
%TD*%
D11*
%TO.C,D9*%
X91281250Y-50006250D03*
X87981250Y-50006250D03*
%TD*%
D10*
%TO.C,MX17*%
X120646250Y-41116250D03*
X133573250Y-38576250D03*
%TD*%
%TO.C,MX6*%
X63496250Y-63341250D03*
X76423250Y-60801250D03*
%TD*%
D11*
%TO.C,D22*%
X148431250Y-72231250D03*
X145131250Y-72231250D03*
%TD*%
D10*
%TO.C,MX7*%
X63496250Y-82391250D03*
X76423250Y-79851250D03*
%TD*%
M02*
