M48
; DRILL file {KiCad 7.0.7} date Sun Feb  4 16:52:09 2024
; FORMAT={-:-/ absolute / inch / decimal}
; #@! TF.CreationDate,2024-02-04T16:52:09-05:00
; #@! TF.GenerationSoftware,Kicad,Pcbnew,7.0.7
; #@! TF.FileFunction,Plated,1,2,PTH
FMAT,2
INCH
; #@! TA.AperFunction,Plated,PTH,ViaDrill
T1C0.0157
; #@! TA.AperFunction,Plated,PTH,ComponentDrill
T2C0.0157
; #@! TA.AperFunction,Plated,PTH,ComponentDrill
T3C0.0295
; #@! TA.AperFunction,Plated,PTH,ComponentDrill
T4C0.0394
; #@! TA.AperFunction,Plated,PTH,ComponentDrill
T5C0.0430
; #@! TA.AperFunction,Plated,PTH,ComponentDrill
T6C0.0433
; #@! TA.AperFunction,Plated,PTH,ComponentDrill
T7C0.0866
%
G90
G05
T1
X0.9319Y-4.154
X0.9632Y-2.9657
X1.0257Y-2.9657
X1.053Y-3.8727
X1.1194Y-1.6653
X1.1194Y-4.154
X1.1351Y-2.9665
X1.2141Y-2.9657
X1.2757Y-1.9352
X1.2812Y-4.125
X1.2812Y-4.375
X1.332Y-2.9657
X1.4319Y-3.2477
X1.4521Y-3.0401
X1.5146Y-3.0401
X1.6562Y-2.3438
X1.6562Y-3.0938
X1.6562Y-3.8438
X2.0288Y-2.0938
X2.0288Y-2.1875
X2.0288Y-2.25
X2.0288Y-2.8438
X2.0288Y-2.9375
X2.0288Y-3.0
X2.0288Y-3.5938
X2.0288Y-3.6875
X2.0288Y-3.75
X2.0288Y-4.3438
X2.0288Y-4.4375
X2.0288Y-4.5
X2.4062Y-1.9688
X2.4062Y-2.7188
X2.4062Y-3.4688
X2.4062Y-4.2188
X2.7788Y-1.5625
X2.7788Y-1.9688
X2.7788Y-2.0625
X2.7788Y-2.125
X2.7788Y-2.3125
X2.7788Y-2.7188
X2.7788Y-2.8125
X2.7788Y-2.875
X2.7788Y-3.0625
X2.7788Y-3.4688
X2.7788Y-3.5625
X2.7788Y-3.625
X2.7788Y-3.8125
X2.7788Y-4.2188
X2.7788Y-4.3125
X2.7788Y-4.375
X3.1562Y-1.8438
X3.1562Y-2.5938
X3.1562Y-3.3438
X3.1562Y-4.0938
X3.5288Y-1.4375
X3.5288Y-1.8438
X3.5288Y-1.9375
X3.5288Y-2.0
X3.5288Y-2.1875
X3.5288Y-2.5938
X3.5288Y-2.6875
X3.5288Y-2.75
X3.5288Y-2.9375
X3.5288Y-3.3438
X3.5288Y-3.4375
X3.5288Y-3.5
X3.5288Y-3.6875
X3.5288Y-4.0938
X3.5288Y-4.1875
X3.5288Y-4.25
X3.9062Y-1.7188
X3.9062Y-2.4688
X3.9062Y-3.2188
X3.9062Y-3.9688
X4.2788Y-1.3125
X4.2788Y-1.7188
X4.2788Y-1.8125
X4.2788Y-1.875
X4.2788Y-2.0625
X4.2788Y-2.4688
X4.2788Y-2.5625
X4.2788Y-2.625
X4.2788Y-2.8125
X4.2788Y-3.2188
X4.2788Y-3.3125
X4.2788Y-3.375
X4.2788Y-3.5625
X4.2788Y-3.9688
X4.2788Y-4.0625
X4.2788Y-4.125
X4.6562Y-1.5938
X4.6562Y-2.3438
X4.6562Y-3.0938
X4.6562Y-3.8438
X5.0288Y-1.4375
X5.0288Y-1.8438
X5.0288Y-1.9375
X5.0288Y-2.0
X5.0288Y-2.1875
X5.0288Y-2.5938
X5.0288Y-2.6875
X5.0288Y-2.75
X5.0288Y-2.9375
X5.0288Y-3.3438
X5.0288Y-3.4375
X5.0288Y-3.5
X5.0288Y-3.6875
X5.0288Y-4.0938
X5.0288Y-4.1875
X5.0288Y-4.25
X5.4062Y-1.7188
X5.4062Y-2.4688
X5.4062Y-3.2188
X5.4062Y-3.9688
X5.7788Y-1.5625
X5.7788Y-1.9688
X5.7788Y-2.0625
X5.7788Y-2.125
X5.7788Y-2.3125
X5.7788Y-2.7188
X5.7788Y-2.8125
X5.7788Y-2.875
X5.7788Y-3.0625
X5.7788Y-3.4688
X5.7788Y-3.5625
X5.7788Y-3.625
X5.7788Y-3.8125
X5.7788Y-4.2188
X5.7788Y-4.3125
X5.7788Y-4.375
X6.4375Y-2.0938
X6.4375Y-2.8438
X6.4375Y-3.5625
X6.8462Y-1.9088
X6.8462Y-1.9713
X6.8462Y-2.065
X6.8462Y-2.6588
X6.8462Y-2.815
X6.8462Y-3.4088
X6.8462Y-3.4713
X6.8462Y-3.565
X6.8495Y-2.7179
X7.5345Y-3.2221
X7.5411Y-2.1034
X7.597Y-3.4096
X7.6595Y-3.2221
X7.6875Y-2.75
X7.7812Y-3.6875
X7.7911Y-2.1034
T2
X1.0602Y-1.6352
X1.0602Y-1.7352
X1.0602Y-1.8352
X1.0602Y-1.9352
X1.0602Y-2.0352
X1.0602Y-2.1352
X1.0602Y-2.2352
X1.0602Y-2.3352
X1.0602Y-2.4352
X1.0602Y-2.5352
X1.0602Y-2.6352
X1.0602Y-2.7352
X1.21Y-1.6352
X1.21Y-1.7352
X1.21Y-1.8352
X1.21Y-1.9352
X1.21Y-2.0352
X1.21Y-2.1352
X1.21Y-2.2352
X1.21Y-2.3352
X1.21Y-2.4352
X1.21Y-2.5352
X1.21Y-2.6352
X1.21Y-2.7352
T3
X1.2991Y-3.5838
X1.2991Y-3.5838
X1.2991Y-3.6626
X1.2991Y-3.6626
X1.2991Y-3.6626
X1.2991Y-3.6626
X1.2991Y-3.7413
X1.2991Y-3.7413
T5
X0.9288Y-3.3125
X1.0288Y-3.3125
X1.1288Y-3.3125
X1.2288Y-3.3125
X1.3288Y-3.3125
T6
X0.8351Y-1.6352
X0.8351Y-1.6352
X0.8351Y-1.7352
X0.8351Y-1.8352
X0.8351Y-1.9352
X0.8351Y-2.0352
X0.8351Y-2.1352
X0.8351Y-2.2352
X0.8351Y-2.3352
X0.8351Y-2.4352
X0.8351Y-2.5352
X0.8351Y-2.6352
X0.8351Y-2.7352
X1.4351Y-1.6352
X1.4351Y-1.6352
X1.4351Y-1.7352
X1.4351Y-1.8352
X1.4351Y-1.9352
X1.4351Y-2.0352
X1.4351Y-2.1352
X1.4351Y-2.2352
X1.4351Y-2.3352
X1.4351Y-2.4352
X1.4351Y-2.5352
X1.4351Y-2.6352
X1.4351Y-2.7352
T7
X1.5938Y-3.2188
X1.5938Y-4.3438
X2.375Y-2.3438
X2.375Y-3.0938
X2.375Y-3.8438
X3.125Y-2.2188
X3.125Y-2.9688
X3.125Y-3.7188
X3.875Y-2.0625
X3.875Y-2.8125
X3.875Y-3.5625
X4.6562Y-2.0312
X4.6562Y-2.7812
X4.6562Y-3.5312
X5.4062Y-2.1562
X5.4062Y-2.9062
X5.4062Y-3.6562
X6.4062Y-3.3125
X7.2188Y-2.0938
X7.8125Y-3.9062
T4
G00X1.1986Y-4.2596
M15
G01X1.1986Y-4.1809
M16
G05
G00X1.1986Y-4.4171
M15
G01X1.1986Y-4.3974
M16
G05
G00X1.1986Y-4.5352
M15
G01X1.1986Y-4.5155
M16
G05
G00X1.3639Y-4.2596
M15
G01X1.3639Y-4.1809
M16
G05
G00X1.3639Y-4.3974
M15
G01X1.3639Y-4.4171
M16
G05
G00X1.3639Y-4.5155
M15
G01X1.3639Y-4.5352
M16
G05
G00X7.5969Y-2.0207
M15
G01X7.6757Y-2.0207
M16
G05
G00X7.5969Y-2.186
M15
G01X7.6757Y-2.186
M16
G05
G00X7.8135Y-2.0207
M15
G01X7.8332Y-2.0207
M16
G05
G00X7.8332Y-2.186
M15
G01X7.8135Y-2.186
M16
G05
G00X7.9316Y-2.0207
M15
G01X7.9513Y-2.0207
M16
G05
G00X7.9513Y-2.186
M15
G01X7.9316Y-2.186
M16
G05
T0
M30
