%TF.GenerationSoftware,KiCad,Pcbnew,7.0.7*%
%TF.CreationDate,2023-08-28T12:27:39-04:00*%
%TF.ProjectId,garden,67617264-656e-42e6-9b69-6361645f7063,rev?*%
%TF.SameCoordinates,Original*%
%TF.FileFunction,Paste,Bot*%
%TF.FilePolarity,Positive*%
%FSLAX46Y46*%
G04 Gerber Fmt 4.6, Leading zero omitted, Abs format (unit mm)*
G04 Created by KiCad (PCBNEW 7.0.7) date 2023-08-28 12:27:39*
%MOMM*%
%LPD*%
G01*
G04 APERTURE LIST*
%ADD10R,2.550000X2.500000*%
%ADD11R,0.900000X1.200000*%
%ADD12R,2.500000X2.550000*%
%ADD13R,1.200000X0.900000*%
%ADD14R,1.803400X0.812800*%
%ADD15R,1.500000X0.700000*%
%ADD16R,0.800000X1.000000*%
G04 APERTURE END LIST*
D10*
%TO.C,MX15*%
X114296250Y-90328750D03*
X127223250Y-87788750D03*
%TD*%
D11*
%TO.C,D28*%
X184943750Y-63563504D03*
X188243750Y-63563504D03*
%TD*%
D10*
%TO.C,MX7*%
X76196250Y-96678750D03*
X89123250Y-94138750D03*
%TD*%
D11*
%TO.C,D3*%
X65881250Y-108743750D03*
X62581250Y-108743750D03*
%TD*%
D10*
%TO.C,MX21*%
X152396250Y-58578750D03*
X165323250Y-56038750D03*
%TD*%
D11*
%TO.C,D27*%
X184943750Y-82613504D03*
X188243750Y-82613504D03*
%TD*%
%TO.C,D13*%
X123031250Y-61118750D03*
X119731250Y-61118750D03*
%TD*%
D10*
%TO.C,MX4*%
X57146250Y-118903750D03*
X70073250Y-116363750D03*
%TD*%
D11*
%TO.C,D6*%
X84931250Y-86518750D03*
X81631250Y-86518750D03*
%TD*%
%TO.C,D17*%
X142081250Y-64293750D03*
X138781250Y-64293750D03*
%TD*%
%TO.C,D14*%
X123031250Y-80168750D03*
X119731250Y-80168750D03*
%TD*%
%TO.C,D24*%
X161131250Y-124618750D03*
X157831250Y-124618750D03*
%TD*%
%TO.C,D7*%
X84931250Y-105568750D03*
X81631250Y-105568750D03*
%TD*%
D10*
%TO.C,MX9*%
X95246250Y-55403750D03*
X108173250Y-52863750D03*
%TD*%
D11*
%TO.C,D1*%
X65881250Y-70643750D03*
X62581250Y-70643750D03*
%TD*%
%TO.C,D19*%
X142081250Y-102393750D03*
X138781250Y-102393750D03*
%TD*%
%TO.C,D20*%
X142081250Y-121443750D03*
X138781250Y-121443750D03*
%TD*%
D10*
%TO.C,MX18*%
X133346250Y-74453750D03*
X146273250Y-71913750D03*
%TD*%
D12*
%TO.C,MX25*%
X212966729Y-89042729D03*
X215506729Y-101969729D03*
%TD*%
D11*
%TO.C,D11*%
X103981250Y-102393750D03*
X100681250Y-102393750D03*
%TD*%
D10*
%TO.C,MX10*%
X95246250Y-74453750D03*
X108173250Y-71913750D03*
%TD*%
D11*
%TO.C,D23*%
X161131250Y-105568750D03*
X157831250Y-105568750D03*
%TD*%
%TO.C,D15*%
X123031250Y-99218750D03*
X119731250Y-99218750D03*
%TD*%
%TO.C,D10*%
X103981250Y-83343750D03*
X100681250Y-83343750D03*
%TD*%
%TO.C,D16*%
X123031250Y-118268750D03*
X119731250Y-118268750D03*
%TD*%
D10*
%TO.C,MX3*%
X57146250Y-99853750D03*
X70073250Y-97313750D03*
%TD*%
%TO.C,MX26*%
X193678750Y-110553504D03*
X180751750Y-113093504D03*
%TD*%
D11*
%TO.C,D4*%
X65881250Y-127793750D03*
X62581250Y-127793750D03*
%TD*%
D10*
%TO.C,MX14*%
X114296250Y-71278750D03*
X127223250Y-68738750D03*
%TD*%
%TO.C,MX13*%
X114296250Y-52228750D03*
X127223250Y-49688750D03*
%TD*%
%TO.C,MX2*%
X57146250Y-80803750D03*
X70073250Y-78263750D03*
%TD*%
%TO.C,MX20*%
X133346250Y-112553750D03*
X146273250Y-110013750D03*
%TD*%
%TO.C,MX24*%
X152396250Y-115728750D03*
X165323250Y-113188750D03*
%TD*%
D11*
%TO.C,D22*%
X161131250Y-86518750D03*
X157831250Y-86518750D03*
%TD*%
D10*
%TO.C,MX6*%
X76196250Y-77628750D03*
X89123250Y-75088750D03*
%TD*%
%TO.C,MX17*%
X133346250Y-55403750D03*
X146273250Y-52863750D03*
%TD*%
%TO.C,MX19*%
X133346250Y-93503750D03*
X146273250Y-90963750D03*
%TD*%
D11*
%TO.C,D9*%
X103981250Y-64293750D03*
X100681250Y-64293750D03*
%TD*%
D10*
%TO.C,MX12*%
X95246250Y-112553750D03*
X108173250Y-110013750D03*
%TD*%
%TO.C,MX5*%
X76196250Y-58578750D03*
X89123250Y-56038750D03*
%TD*%
D11*
%TO.C,D8*%
X84931250Y-124618750D03*
X81631250Y-124618750D03*
%TD*%
D10*
%TO.C,MX27*%
X193678750Y-91503504D03*
X180751750Y-94043504D03*
%TD*%
D11*
%TO.C,D5*%
X84931250Y-67468750D03*
X81631250Y-67468750D03*
%TD*%
%TO.C,D2*%
X65881250Y-89693750D03*
X62581250Y-89693750D03*
%TD*%
D10*
%TO.C,MX28*%
X193678750Y-72453504D03*
X180751750Y-74993504D03*
%TD*%
%TO.C,MX23*%
X152396250Y-96678750D03*
X165323250Y-94138750D03*
%TD*%
D13*
%TO.C,D25*%
X204076729Y-97777729D03*
X204076729Y-94477729D03*
%TD*%
D10*
%TO.C,MX1*%
X57146250Y-61753750D03*
X70073250Y-59213750D03*
%TD*%
D11*
%TO.C,D21*%
X161131250Y-67468750D03*
X157831250Y-67468750D03*
%TD*%
D10*
%TO.C,MX11*%
X95246250Y-93503750D03*
X108173250Y-90963750D03*
%TD*%
%TO.C,MX22*%
X152396250Y-77628750D03*
X165323250Y-75088750D03*
%TD*%
D14*
%TO.C,SW0*%
X50377250Y-93207304D03*
X50377250Y-89807300D03*
%TD*%
D10*
%TO.C,MX16*%
X114296250Y-109378750D03*
X127223250Y-106838750D03*
%TD*%
D11*
%TO.C,D12*%
X103981250Y-121443750D03*
X100681250Y-121443750D03*
%TD*%
%TO.C,D18*%
X142081250Y-83343750D03*
X138781250Y-83343750D03*
%TD*%
D10*
%TO.C,MX8*%
X76196250Y-115728750D03*
X89123250Y-113188750D03*
%TD*%
D15*
%TO.C,SW1*%
X38271000Y-122047929D03*
X38271000Y-119047929D03*
X38271000Y-117547929D03*
D16*
X37486000Y-123447929D03*
X35556000Y-123447929D03*
X35556000Y-116147929D03*
X37486000Y-116147929D03*
%TD*%
D11*
%TO.C,D26*%
X184943750Y-101663504D03*
X188243750Y-101663504D03*
%TD*%
M02*
