M48
; DRILL file {KiCad 7.0.7} date Sun Aug 27 15:15:02 2023
; FORMAT={-:-/ absolute / inch / decimal}
; #@! TF.CreationDate,2023-08-27T15:15:02-04:00
; #@! TF.GenerationSoftware,Kicad,Pcbnew,7.0.7
; #@! TF.FileFunction,Plated,1,2,PTH
FMAT,2
INCH
; #@! TA.AperFunction,Plated,PTH,ViaDrill
T1C0.0157
; #@! TA.AperFunction,Plated,PTH,ComponentDrill
T2C0.0157
; #@! TA.AperFunction,Plated,PTH,ComponentDrill
T3C0.0295
; #@! TA.AperFunction,Plated,PTH,ComponentDrill
T4C0.0394
; #@! TA.AperFunction,Plated,PTH,ComponentDrill
T5C0.0430
; #@! TA.AperFunction,Plated,PTH,ComponentDrill
T6C0.0433
; #@! TA.AperFunction,Plated,PTH,ComponentDrill
T7C0.0866
%
G90
G05
T1
X1.4319Y-4.7165
X1.4632Y-3.5282
X1.5257Y-3.5282
X1.553Y-4.4352
X1.6194Y-2.2278
X1.6194Y-4.7165
X1.6351Y-3.529
X1.7141Y-3.5282
X1.7757Y-2.4977
X1.7812Y-4.6875
X1.7812Y-4.9375
X1.832Y-3.5282
X1.9319Y-3.8102
X1.9521Y-3.6026
X2.0146Y-3.6026
X2.1562Y-2.9062
X2.1562Y-3.6562
X2.1562Y-4.4062
X2.5288Y-2.6562
X2.5288Y-2.75
X2.5288Y-2.8125
X2.5288Y-3.4062
X2.5288Y-3.5
X2.5288Y-3.5625
X2.5288Y-4.1562
X2.5288Y-4.25
X2.5288Y-4.3125
X2.5288Y-4.9062
X2.5288Y-5.0
X2.5288Y-5.0625
X2.9062Y-2.5312
X2.9062Y-3.2812
X2.9062Y-4.0312
X2.9062Y-4.7812
X3.2788Y-2.125
X3.2788Y-2.5312
X3.2788Y-2.625
X3.2788Y-2.6875
X3.2788Y-2.875
X3.2788Y-3.2812
X3.2788Y-3.375
X3.2788Y-3.4375
X3.2788Y-3.625
X3.2788Y-4.0312
X3.2788Y-4.125
X3.2788Y-4.1875
X3.2788Y-4.375
X3.2788Y-4.7812
X3.2788Y-4.875
X3.2788Y-4.9375
X3.6562Y-2.4062
X3.6562Y-3.1562
X3.6562Y-3.9062
X3.6562Y-4.6562
X4.0288Y-2.0
X4.0288Y-2.4062
X4.0288Y-2.5
X4.0288Y-2.5625
X4.0288Y-2.75
X4.0288Y-3.1562
X4.0288Y-3.25
X4.0288Y-3.3125
X4.0288Y-3.5
X4.0288Y-3.9062
X4.0288Y-4.0
X4.0288Y-4.0625
X4.0288Y-4.25
X4.0288Y-4.6562
X4.0288Y-4.75
X4.0288Y-4.8125
X4.4062Y-2.2812
X4.4062Y-3.0312
X4.4062Y-3.7812
X4.4062Y-4.5312
X4.7788Y-1.875
X4.7788Y-2.2812
X4.7788Y-2.375
X4.7788Y-2.4375
X4.7788Y-2.625
X4.7788Y-3.0312
X4.7788Y-3.125
X4.7788Y-3.1875
X4.7788Y-3.375
X4.7788Y-3.7812
X4.7788Y-3.875
X4.7788Y-3.9375
X4.7788Y-4.125
X4.7788Y-4.5312
X4.7788Y-4.625
X4.7788Y-4.6875
X5.1562Y-2.1562
X5.1562Y-2.9062
X5.1562Y-3.6562
X5.1562Y-4.4062
X5.5288Y-2.0
X5.5288Y-2.4062
X5.5288Y-2.5
X5.5288Y-2.5625
X5.5288Y-2.75
X5.5288Y-3.1562
X5.5288Y-3.25
X5.5288Y-3.3125
X5.5288Y-3.5
X5.5288Y-3.9062
X5.5288Y-4.0
X5.5288Y-4.0625
X5.5288Y-4.25
X5.5288Y-4.6562
X5.5288Y-4.75
X5.5288Y-4.8125
X5.9062Y-2.2812
X5.9062Y-3.0312
X5.9062Y-3.7812
X5.9062Y-4.5312
X6.2788Y-2.125
X6.2788Y-2.5312
X6.2788Y-2.625
X6.2788Y-2.6875
X6.2788Y-2.875
X6.2788Y-3.2812
X6.2788Y-3.375
X6.2788Y-3.4375
X6.2788Y-3.625
X6.2788Y-4.0312
X6.2788Y-4.125
X6.2788Y-4.1875
X6.2788Y-4.375
X6.2788Y-4.7812
X6.2788Y-4.875
X6.2788Y-4.9375
X6.9375Y-2.6562
X6.9375Y-3.4062
X6.9375Y-4.125
X7.3462Y-2.4713
X7.3462Y-2.5338
X7.3462Y-2.6275
X7.3462Y-3.2213
X7.3462Y-3.3775
X7.3462Y-3.9713
X7.3462Y-4.0338
X7.3462Y-4.1275
X7.3495Y-3.2804
X8.0345Y-3.7846
X8.0411Y-2.6659
X8.097Y-3.9721
X8.1595Y-3.7846
X8.1875Y-3.3125
X8.2812Y-4.25
X8.2911Y-2.6659
T2
X1.5602Y-2.1977
X1.5602Y-2.2977
X1.5602Y-2.3977
X1.5602Y-2.4977
X1.5602Y-2.5977
X1.5602Y-2.6977
X1.5602Y-2.7977
X1.5602Y-2.8977
X1.5602Y-2.9977
X1.5602Y-3.0977
X1.5602Y-3.1977
X1.5602Y-3.2977
X1.71Y-2.1977
X1.71Y-2.2977
X1.71Y-2.3977
X1.71Y-2.4977
X1.71Y-2.5977
X1.71Y-2.6977
X1.71Y-2.7977
X1.71Y-2.8977
X1.71Y-2.9977
X1.71Y-3.0977
X1.71Y-3.1977
X1.71Y-3.2977
T3
X1.7991Y-4.1463
X1.7991Y-4.1463
X1.7991Y-4.2251
X1.7991Y-4.2251
X1.7991Y-4.2251
X1.7991Y-4.2251
X1.7991Y-4.3038
X1.7991Y-4.3038
T5
X1.4288Y-3.875
X1.5288Y-3.875
X1.6288Y-3.875
X1.7288Y-3.875
X1.8288Y-3.875
T6
X1.3351Y-2.1977
X1.3351Y-2.1977
X1.3351Y-2.2977
X1.3351Y-2.3977
X1.3351Y-2.4977
X1.3351Y-2.5977
X1.3351Y-2.6977
X1.3351Y-2.7977
X1.3351Y-2.8977
X1.3351Y-2.9977
X1.3351Y-3.0977
X1.3351Y-3.1977
X1.3351Y-3.2977
X1.9351Y-2.1977
X1.9351Y-2.1977
X1.9351Y-2.2977
X1.9351Y-2.3977
X1.9351Y-2.4977
X1.9351Y-2.5977
X1.9351Y-2.6977
X1.9351Y-2.7977
X1.9351Y-2.8977
X1.9351Y-2.9977
X1.9351Y-3.0977
X1.9351Y-3.1977
X1.9351Y-3.2977
T7
X2.0938Y-3.7812
X2.0938Y-4.9062
X2.875Y-2.9062
X2.875Y-3.6562
X2.875Y-4.4062
X3.625Y-2.7812
X3.625Y-3.5312
X3.625Y-4.2812
X4.375Y-2.625
X4.375Y-3.375
X4.375Y-4.125
X5.1562Y-2.5938
X5.1562Y-3.3438
X5.1562Y-4.0938
X5.9062Y-2.7188
X5.9062Y-3.4688
X5.9062Y-4.2188
X6.9062Y-3.875
X7.7188Y-2.6562
X8.3125Y-4.4688
T4
G00X1.6986Y-4.8221
M15
G01X1.6986Y-4.7434
M16
G05
G00X1.6986Y-4.9796
M15
G01X1.6986Y-4.9599
M16
G05
G00X1.6986Y-5.0977
M15
G01X1.6986Y-5.078
M16
G05
G00X1.8639Y-4.8221
M15
G01X1.8639Y-4.7434
M16
G05
G00X1.8639Y-4.9599
M15
G01X1.8639Y-4.9796
M16
G05
G00X1.8639Y-5.078
M15
G01X1.8639Y-5.0977
M16
G05
G00X8.0969Y-2.5832
M15
G01X8.1757Y-2.5832
M16
G05
G00X8.0969Y-2.7485
M15
G01X8.1757Y-2.7485
M16
G05
G00X8.3135Y-2.5832
M15
G01X8.3332Y-2.5832
M16
G05
G00X8.3332Y-2.7485
M15
G01X8.3135Y-2.7485
M16
G05
G00X8.4316Y-2.5832
M15
G01X8.4513Y-2.5832
M16
G05
G00X8.4513Y-2.7485
M15
G01X8.4316Y-2.7485
M16
G05
T0
M30
