%TF.GenerationSoftware,KiCad,Pcbnew,7.0.7*%
%TF.CreationDate,2023-08-27T15:15:09-04:00*%
%TF.ProjectId,garden,67617264-656e-42e6-9b69-6361645f7063,rev?*%
%TF.SameCoordinates,Original*%
%TF.FileFunction,Profile,NP*%
%FSLAX46Y46*%
G04 Gerber Fmt 4.6, Leading zero omitted, Abs format (unit mm)*
G04 Created by KiCad (PCBNEW 7.0.7) date 2023-08-27 15:15:09*
%MOMM*%
%LPD*%
G01*
G04 APERTURE LIST*
%TA.AperFunction,Profile*%
%ADD10C,0.100000*%
%TD*%
G04 APERTURE END LIST*
D10*
X150812500Y-49149000D02*
G75*
G03*
X149288500Y-47625000I-1524000J0D01*
G01*
X34131250Y-132619750D02*
G75*
G03*
X35655250Y-134143750I1523950J-50D01*
G01*
X49212500Y-133286500D02*
X49212500Y-133381750D01*
X114236500Y-122237500D02*
G75*
G03*
X112712500Y-123761500I0J-1524000D01*
G01*
X171450000Y-116808250D02*
X171450000Y-115093750D01*
X31686500Y-52387500D02*
G75*
G03*
X30162500Y-53911500I0J-1524000D01*
G01*
X52387500Y-53213000D02*
G75*
G03*
X53149500Y-53975000I762000J0D01*
G01*
X169862500Y-52324000D02*
G75*
G03*
X168338500Y-50800000I-1524000J0D01*
G01*
X93599000Y-47625000D02*
X109601000Y-47625000D01*
X112649000Y-44450000D02*
G75*
G03*
X111125000Y-45974000I0J-1524000D01*
G01*
X131762500Y-45974000D02*
G75*
G03*
X130238500Y-44450000I-1524000J0D01*
G01*
X171449950Y-116808250D02*
G75*
G03*
X172974000Y-118332250I1523950J-50D01*
G01*
X111188500Y-125412500D02*
X95186500Y-125412500D01*
X31686500Y-87312500D02*
X32607250Y-87312500D01*
X169862500Y-61912500D02*
X169862500Y-52324000D01*
X52387500Y-53149500D02*
G75*
G03*
X51625500Y-52387500I-762000J0D01*
G01*
X168338500Y-128587500D02*
G75*
G03*
X169862500Y-127063500I0J1524000D01*
G01*
X112649000Y-44450000D02*
X130238500Y-44450000D01*
X73088500Y-131762500D02*
G75*
G03*
X74612500Y-130238500I0J1524000D01*
G01*
X30162500Y-83506239D02*
X30162500Y-85788500D01*
X219138500Y-73882250D02*
X219011500Y-73882250D01*
X111125000Y-46101000D02*
X111125000Y-45974000D01*
X76136500Y-128587500D02*
G75*
G03*
X74612500Y-130111500I0J-1524000D01*
G01*
X172974000Y-118332250D02*
X219138500Y-118332250D01*
X34131200Y-88836500D02*
G75*
G03*
X32607250Y-87312500I-1523900J100D01*
G01*
X172974000Y-59594800D02*
G75*
G03*
X171450000Y-61118750I0J-1524000D01*
G01*
X30162500Y-85788500D02*
G75*
G03*
X31686500Y-87312500I1524000J0D01*
G01*
X169862500Y-115093750D02*
X169862500Y-127063500D01*
X92075000Y-49276000D02*
X92075000Y-49149000D01*
X171450000Y-61912500D02*
X169862500Y-61912500D01*
X152336500Y-50800000D02*
X168338500Y-50800000D01*
X34131250Y-132619750D02*
X34131250Y-88836500D01*
X48450500Y-134143700D02*
G75*
G03*
X49212500Y-133381750I0J762000D01*
G01*
X74612500Y-130111500D02*
X74612500Y-130238500D01*
X217487550Y-61118750D02*
G75*
G03*
X215963500Y-59594750I-1523950J50D01*
G01*
X71501000Y-53975000D02*
G75*
G03*
X73025000Y-52451000I0J1524000D01*
G01*
X131762500Y-45974000D02*
X131762500Y-46101000D01*
X217487500Y-72358250D02*
X217487500Y-61118750D01*
X220662550Y-75406250D02*
G75*
G03*
X219138500Y-73882250I-1523950J50D01*
G01*
X73025000Y-52451000D02*
X73025000Y-52324000D01*
X52387500Y-53149500D02*
X52387500Y-53213000D01*
X147701000Y-125412500D02*
X131699000Y-125412500D01*
X130175000Y-123888500D02*
G75*
G03*
X131699000Y-125412500I1524000J0D01*
G01*
X149225000Y-126936500D02*
G75*
G03*
X147701000Y-125412500I-1524000J0D01*
G01*
X53149500Y-53975000D02*
X53911500Y-53975000D01*
X112712500Y-123761500D02*
X112712500Y-123888500D01*
X130175000Y-123888500D02*
X130175000Y-123761500D01*
X31686500Y-52387500D02*
X51625500Y-52387500D01*
X130175000Y-123761500D02*
G75*
G03*
X128651000Y-122237500I-1524000J0D01*
G01*
X93599000Y-47625000D02*
G75*
G03*
X92075000Y-49149000I0J-1524000D01*
G01*
X217487450Y-72358250D02*
G75*
G03*
X219011500Y-73882250I1523950J-50D01*
G01*
X220662500Y-116808250D02*
X220662500Y-75406250D01*
X133286500Y-47625000D02*
X149288500Y-47625000D01*
X30162500Y-83506239D02*
X30162500Y-53911500D01*
X48450500Y-134143750D02*
X35655250Y-134143750D01*
X219138500Y-118332200D02*
G75*
G03*
X220662500Y-116808250I0J1524000D01*
G01*
X171450000Y-115093750D02*
X169862500Y-115093750D01*
X93662500Y-126936500D02*
X93662500Y-127063500D01*
X90551000Y-50800000D02*
G75*
G03*
X92075000Y-49276000I0J1524000D01*
G01*
X74549000Y-50800000D02*
G75*
G03*
X73025000Y-52324000I0J-1524000D01*
G01*
X150812500Y-49276000D02*
G75*
G03*
X152336500Y-50800000I1524000J0D01*
G01*
X53911500Y-53975000D02*
X71501000Y-53975000D01*
X149225000Y-127063500D02*
G75*
G03*
X150749000Y-128587500I1524000J0D01*
G01*
X149225000Y-127063500D02*
X149225000Y-126936500D01*
X73088500Y-131762500D02*
X50736500Y-131762500D01*
X131762500Y-46101000D02*
G75*
G03*
X133286500Y-47625000I1524000J0D01*
G01*
X168338500Y-128587500D02*
X150749000Y-128587500D01*
X92138500Y-128587500D02*
G75*
G03*
X93662500Y-127063500I0J1524000D01*
G01*
X95186500Y-125412500D02*
G75*
G03*
X93662500Y-126936500I0J-1524000D01*
G01*
X215963500Y-59594750D02*
X172974000Y-59594750D01*
X150812500Y-49149000D02*
X150812500Y-49276000D01*
X74549000Y-50800000D02*
X90551000Y-50800000D01*
X128651000Y-122237500D02*
X114236500Y-122237500D01*
X171450000Y-61118750D02*
X171450000Y-61912500D01*
X50736500Y-131762500D02*
G75*
G03*
X49212500Y-133286500I0J-1524000D01*
G01*
X109601000Y-47625000D02*
G75*
G03*
X111125000Y-46101000I0J1524000D01*
G01*
X92138500Y-128587500D02*
X76136500Y-128587500D01*
X111188500Y-125412500D02*
G75*
G03*
X112712500Y-123888500I0J1524000D01*
G01*
M02*
