%TF.GenerationSoftware,KiCad,Pcbnew,7.0.7*%
%TF.CreationDate,2023-08-27T15:15:09-04:00*%
%TF.ProjectId,garden,67617264-656e-42e6-9b69-6361645f7063,rev?*%
%TF.SameCoordinates,Original*%
%TF.FileFunction,Legend,Top*%
%TF.FilePolarity,Positive*%
%FSLAX46Y46*%
G04 Gerber Fmt 4.6, Leading zero omitted, Abs format (unit mm)*
G04 Created by KiCad (PCBNEW 7.0.7) date 2023-08-27 15:15:09*
%MOMM*%
%LPD*%
G01*
G04 APERTURE LIST*
%ADD10C,0.150000*%
%ADD11C,0.120000*%
%ADD12C,0.152400*%
%ADD13C,0.127000*%
%ADD14C,0.250000*%
G04 APERTURE END LIST*
D10*
X185379464Y-66018323D02*
X185379464Y-65018323D01*
X185379464Y-65018323D02*
X185617559Y-65018323D01*
X185617559Y-65018323D02*
X185760416Y-65065942D01*
X185760416Y-65065942D02*
X185855654Y-65161180D01*
X185855654Y-65161180D02*
X185903273Y-65256418D01*
X185903273Y-65256418D02*
X185950892Y-65446894D01*
X185950892Y-65446894D02*
X185950892Y-65589751D01*
X185950892Y-65589751D02*
X185903273Y-65780227D01*
X185903273Y-65780227D02*
X185855654Y-65875465D01*
X185855654Y-65875465D02*
X185760416Y-65970704D01*
X185760416Y-65970704D02*
X185617559Y-66018323D01*
X185617559Y-66018323D02*
X185379464Y-66018323D01*
X186331845Y-65113561D02*
X186379464Y-65065942D01*
X186379464Y-65065942D02*
X186474702Y-65018323D01*
X186474702Y-65018323D02*
X186712797Y-65018323D01*
X186712797Y-65018323D02*
X186808035Y-65065942D01*
X186808035Y-65065942D02*
X186855654Y-65113561D01*
X186855654Y-65113561D02*
X186903273Y-65208799D01*
X186903273Y-65208799D02*
X186903273Y-65304037D01*
X186903273Y-65304037D02*
X186855654Y-65446894D01*
X186855654Y-65446894D02*
X186284226Y-66018323D01*
X186284226Y-66018323D02*
X186903273Y-66018323D01*
X187474702Y-65446894D02*
X187379464Y-65399275D01*
X187379464Y-65399275D02*
X187331845Y-65351656D01*
X187331845Y-65351656D02*
X187284226Y-65256418D01*
X187284226Y-65256418D02*
X187284226Y-65208799D01*
X187284226Y-65208799D02*
X187331845Y-65113561D01*
X187331845Y-65113561D02*
X187379464Y-65065942D01*
X187379464Y-65065942D02*
X187474702Y-65018323D01*
X187474702Y-65018323D02*
X187665178Y-65018323D01*
X187665178Y-65018323D02*
X187760416Y-65065942D01*
X187760416Y-65065942D02*
X187808035Y-65113561D01*
X187808035Y-65113561D02*
X187855654Y-65208799D01*
X187855654Y-65208799D02*
X187855654Y-65256418D01*
X187855654Y-65256418D02*
X187808035Y-65351656D01*
X187808035Y-65351656D02*
X187760416Y-65399275D01*
X187760416Y-65399275D02*
X187665178Y-65446894D01*
X187665178Y-65446894D02*
X187474702Y-65446894D01*
X187474702Y-65446894D02*
X187379464Y-65494513D01*
X187379464Y-65494513D02*
X187331845Y-65542132D01*
X187331845Y-65542132D02*
X187284226Y-65637370D01*
X187284226Y-65637370D02*
X187284226Y-65827846D01*
X187284226Y-65827846D02*
X187331845Y-65923084D01*
X187331845Y-65923084D02*
X187379464Y-65970704D01*
X187379464Y-65970704D02*
X187474702Y-66018323D01*
X187474702Y-66018323D02*
X187665178Y-66018323D01*
X187665178Y-66018323D02*
X187760416Y-65970704D01*
X187760416Y-65970704D02*
X187808035Y-65923084D01*
X187808035Y-65923084D02*
X187855654Y-65827846D01*
X187855654Y-65827846D02*
X187855654Y-65637370D01*
X187855654Y-65637370D02*
X187808035Y-65542132D01*
X187808035Y-65542132D02*
X187760416Y-65494513D01*
X187760416Y-65494513D02*
X187665178Y-65446894D01*
X63493155Y-107198569D02*
X63493155Y-106198569D01*
X63493155Y-106198569D02*
X63731250Y-106198569D01*
X63731250Y-106198569D02*
X63874107Y-106246188D01*
X63874107Y-106246188D02*
X63969345Y-106341426D01*
X63969345Y-106341426D02*
X64016964Y-106436664D01*
X64016964Y-106436664D02*
X64064583Y-106627140D01*
X64064583Y-106627140D02*
X64064583Y-106769997D01*
X64064583Y-106769997D02*
X64016964Y-106960473D01*
X64016964Y-106960473D02*
X63969345Y-107055711D01*
X63969345Y-107055711D02*
X63874107Y-107150950D01*
X63874107Y-107150950D02*
X63731250Y-107198569D01*
X63731250Y-107198569D02*
X63493155Y-107198569D01*
X64397917Y-106198569D02*
X65016964Y-106198569D01*
X65016964Y-106198569D02*
X64683631Y-106579521D01*
X64683631Y-106579521D02*
X64826488Y-106579521D01*
X64826488Y-106579521D02*
X64921726Y-106627140D01*
X64921726Y-106627140D02*
X64969345Y-106674759D01*
X64969345Y-106674759D02*
X65016964Y-106769997D01*
X65016964Y-106769997D02*
X65016964Y-107008092D01*
X65016964Y-107008092D02*
X64969345Y-107103330D01*
X64969345Y-107103330D02*
X64921726Y-107150950D01*
X64921726Y-107150950D02*
X64826488Y-107198569D01*
X64826488Y-107198569D02*
X64540774Y-107198569D01*
X64540774Y-107198569D02*
X64445536Y-107150950D01*
X64445536Y-107150950D02*
X64397917Y-107103330D01*
X174085416Y-95979819D02*
X173752083Y-95503628D01*
X173513988Y-95979819D02*
X173513988Y-94979819D01*
X173513988Y-94979819D02*
X173894940Y-94979819D01*
X173894940Y-94979819D02*
X173990178Y-95027438D01*
X173990178Y-95027438D02*
X174037797Y-95075057D01*
X174037797Y-95075057D02*
X174085416Y-95170295D01*
X174085416Y-95170295D02*
X174085416Y-95313152D01*
X174085416Y-95313152D02*
X174037797Y-95408390D01*
X174037797Y-95408390D02*
X173990178Y-95456009D01*
X173990178Y-95456009D02*
X173894940Y-95503628D01*
X173894940Y-95503628D02*
X173513988Y-95503628D01*
X174513988Y-95456009D02*
X174847321Y-95456009D01*
X174990178Y-95979819D02*
X174513988Y-95979819D01*
X174513988Y-95979819D02*
X174513988Y-94979819D01*
X174513988Y-94979819D02*
X174990178Y-94979819D01*
X175752083Y-95456009D02*
X175418750Y-95456009D01*
X175418750Y-95979819D02*
X175418750Y-94979819D01*
X175418750Y-94979819D02*
X175894940Y-94979819D01*
X176418750Y-94979819D02*
X176418750Y-95217914D01*
X176180655Y-95122676D02*
X176418750Y-95217914D01*
X176418750Y-95217914D02*
X176656845Y-95122676D01*
X176275893Y-95408390D02*
X176418750Y-95217914D01*
X176418750Y-95217914D02*
X176561607Y-95408390D01*
X177180655Y-94979819D02*
X177180655Y-95217914D01*
X176942560Y-95122676D02*
X177180655Y-95217914D01*
X177180655Y-95217914D02*
X177418750Y-95122676D01*
X177037798Y-95408390D02*
X177180655Y-95217914D01*
X177180655Y-95217914D02*
X177323512Y-95408390D01*
X148685416Y-104711069D02*
X148352083Y-104234878D01*
X148113988Y-104711069D02*
X148113988Y-103711069D01*
X148113988Y-103711069D02*
X148494940Y-103711069D01*
X148494940Y-103711069D02*
X148590178Y-103758688D01*
X148590178Y-103758688D02*
X148637797Y-103806307D01*
X148637797Y-103806307D02*
X148685416Y-103901545D01*
X148685416Y-103901545D02*
X148685416Y-104044402D01*
X148685416Y-104044402D02*
X148637797Y-104139640D01*
X148637797Y-104139640D02*
X148590178Y-104187259D01*
X148590178Y-104187259D02*
X148494940Y-104234878D01*
X148494940Y-104234878D02*
X148113988Y-104234878D01*
X149113988Y-104187259D02*
X149447321Y-104187259D01*
X149590178Y-104711069D02*
X149113988Y-104711069D01*
X149113988Y-104711069D02*
X149113988Y-103711069D01*
X149113988Y-103711069D02*
X149590178Y-103711069D01*
X150352083Y-104187259D02*
X150018750Y-104187259D01*
X150018750Y-104711069D02*
X150018750Y-103711069D01*
X150018750Y-103711069D02*
X150494940Y-103711069D01*
X151018750Y-103711069D02*
X151018750Y-103949164D01*
X150780655Y-103853926D02*
X151018750Y-103949164D01*
X151018750Y-103949164D02*
X151256845Y-103853926D01*
X150875893Y-104139640D02*
X151018750Y-103949164D01*
X151018750Y-103949164D02*
X151161607Y-104139640D01*
X151780655Y-103711069D02*
X151780655Y-103949164D01*
X151542560Y-103853926D02*
X151780655Y-103949164D01*
X151780655Y-103949164D02*
X152018750Y-103853926D01*
X151637798Y-104139640D02*
X151780655Y-103949164D01*
X151780655Y-103949164D02*
X151923512Y-104139640D01*
X51847916Y-93598569D02*
X51514583Y-93122378D01*
X51276488Y-93598569D02*
X51276488Y-92598569D01*
X51276488Y-92598569D02*
X51657440Y-92598569D01*
X51657440Y-92598569D02*
X51752678Y-92646188D01*
X51752678Y-92646188D02*
X51800297Y-92693807D01*
X51800297Y-92693807D02*
X51847916Y-92789045D01*
X51847916Y-92789045D02*
X51847916Y-92931902D01*
X51847916Y-92931902D02*
X51800297Y-93027140D01*
X51800297Y-93027140D02*
X51752678Y-93074759D01*
X51752678Y-93074759D02*
X51657440Y-93122378D01*
X51657440Y-93122378D02*
X51276488Y-93122378D01*
X52276488Y-93074759D02*
X52609821Y-93074759D01*
X52752678Y-93598569D02*
X52276488Y-93598569D01*
X52276488Y-93598569D02*
X52276488Y-92598569D01*
X52276488Y-92598569D02*
X52752678Y-92598569D01*
X53514583Y-93074759D02*
X53181250Y-93074759D01*
X53181250Y-93598569D02*
X53181250Y-92598569D01*
X53181250Y-92598569D02*
X53657440Y-92598569D01*
X54181250Y-92598569D02*
X54181250Y-92836664D01*
X53943155Y-92741426D02*
X54181250Y-92836664D01*
X54181250Y-92836664D02*
X54419345Y-92741426D01*
X54038393Y-93027140D02*
X54181250Y-92836664D01*
X54181250Y-92836664D02*
X54324107Y-93027140D01*
X54943155Y-92598569D02*
X54943155Y-92836664D01*
X54705060Y-92741426D02*
X54943155Y-92836664D01*
X54943155Y-92836664D02*
X55181250Y-92741426D01*
X54800298Y-93027140D02*
X54943155Y-92836664D01*
X54943155Y-92836664D02*
X55086012Y-93027140D01*
X185379464Y-85068323D02*
X185379464Y-84068323D01*
X185379464Y-84068323D02*
X185617559Y-84068323D01*
X185617559Y-84068323D02*
X185760416Y-84115942D01*
X185760416Y-84115942D02*
X185855654Y-84211180D01*
X185855654Y-84211180D02*
X185903273Y-84306418D01*
X185903273Y-84306418D02*
X185950892Y-84496894D01*
X185950892Y-84496894D02*
X185950892Y-84639751D01*
X185950892Y-84639751D02*
X185903273Y-84830227D01*
X185903273Y-84830227D02*
X185855654Y-84925465D01*
X185855654Y-84925465D02*
X185760416Y-85020704D01*
X185760416Y-85020704D02*
X185617559Y-85068323D01*
X185617559Y-85068323D02*
X185379464Y-85068323D01*
X186331845Y-84163561D02*
X186379464Y-84115942D01*
X186379464Y-84115942D02*
X186474702Y-84068323D01*
X186474702Y-84068323D02*
X186712797Y-84068323D01*
X186712797Y-84068323D02*
X186808035Y-84115942D01*
X186808035Y-84115942D02*
X186855654Y-84163561D01*
X186855654Y-84163561D02*
X186903273Y-84258799D01*
X186903273Y-84258799D02*
X186903273Y-84354037D01*
X186903273Y-84354037D02*
X186855654Y-84496894D01*
X186855654Y-84496894D02*
X186284226Y-85068323D01*
X186284226Y-85068323D02*
X186903273Y-85068323D01*
X187236607Y-84068323D02*
X187903273Y-84068323D01*
X187903273Y-84068323D02*
X187474702Y-85068323D01*
X71691666Y-90423569D02*
X71358333Y-89947378D01*
X71120238Y-90423569D02*
X71120238Y-89423569D01*
X71120238Y-89423569D02*
X71501190Y-89423569D01*
X71501190Y-89423569D02*
X71596428Y-89471188D01*
X71596428Y-89471188D02*
X71644047Y-89518807D01*
X71644047Y-89518807D02*
X71691666Y-89614045D01*
X71691666Y-89614045D02*
X71691666Y-89756902D01*
X71691666Y-89756902D02*
X71644047Y-89852140D01*
X71644047Y-89852140D02*
X71596428Y-89899759D01*
X71596428Y-89899759D02*
X71501190Y-89947378D01*
X71501190Y-89947378D02*
X71120238Y-89947378D01*
X72120238Y-89899759D02*
X72453571Y-89899759D01*
X72596428Y-90423569D02*
X72120238Y-90423569D01*
X72120238Y-90423569D02*
X72120238Y-89423569D01*
X72120238Y-89423569D02*
X72596428Y-89423569D01*
X73358333Y-89899759D02*
X73025000Y-89899759D01*
X73025000Y-90423569D02*
X73025000Y-89423569D01*
X73025000Y-89423569D02*
X73501190Y-89423569D01*
X74025000Y-89423569D02*
X74025000Y-89661664D01*
X73786905Y-89566426D02*
X74025000Y-89661664D01*
X74025000Y-89661664D02*
X74263095Y-89566426D01*
X73882143Y-89852140D02*
X74025000Y-89661664D01*
X74025000Y-89661664D02*
X74167857Y-89852140D01*
X74786905Y-89423569D02*
X74786905Y-89661664D01*
X74548810Y-89566426D02*
X74786905Y-89661664D01*
X74786905Y-89661664D02*
X75025000Y-89566426D01*
X74644048Y-89852140D02*
X74786905Y-89661664D01*
X74786905Y-89661664D02*
X74929762Y-89852140D01*
X120166964Y-59573569D02*
X120166964Y-58573569D01*
X120166964Y-58573569D02*
X120405059Y-58573569D01*
X120405059Y-58573569D02*
X120547916Y-58621188D01*
X120547916Y-58621188D02*
X120643154Y-58716426D01*
X120643154Y-58716426D02*
X120690773Y-58811664D01*
X120690773Y-58811664D02*
X120738392Y-59002140D01*
X120738392Y-59002140D02*
X120738392Y-59144997D01*
X120738392Y-59144997D02*
X120690773Y-59335473D01*
X120690773Y-59335473D02*
X120643154Y-59430711D01*
X120643154Y-59430711D02*
X120547916Y-59525950D01*
X120547916Y-59525950D02*
X120405059Y-59573569D01*
X120405059Y-59573569D02*
X120166964Y-59573569D01*
X121690773Y-59573569D02*
X121119345Y-59573569D01*
X121405059Y-59573569D02*
X121405059Y-58573569D01*
X121405059Y-58573569D02*
X121309821Y-58716426D01*
X121309821Y-58716426D02*
X121214583Y-58811664D01*
X121214583Y-58811664D02*
X121119345Y-58859283D01*
X122024107Y-58573569D02*
X122643154Y-58573569D01*
X122643154Y-58573569D02*
X122309821Y-58954521D01*
X122309821Y-58954521D02*
X122452678Y-58954521D01*
X122452678Y-58954521D02*
X122547916Y-59002140D01*
X122547916Y-59002140D02*
X122595535Y-59049759D01*
X122595535Y-59049759D02*
X122643154Y-59144997D01*
X122643154Y-59144997D02*
X122643154Y-59383092D01*
X122643154Y-59383092D02*
X122595535Y-59478330D01*
X122595535Y-59478330D02*
X122547916Y-59525950D01*
X122547916Y-59525950D02*
X122452678Y-59573569D01*
X122452678Y-59573569D02*
X122166964Y-59573569D01*
X122166964Y-59573569D02*
X122071726Y-59525950D01*
X122071726Y-59525950D02*
X122024107Y-59478330D01*
X129635416Y-101536069D02*
X129302083Y-101059878D01*
X129063988Y-101536069D02*
X129063988Y-100536069D01*
X129063988Y-100536069D02*
X129444940Y-100536069D01*
X129444940Y-100536069D02*
X129540178Y-100583688D01*
X129540178Y-100583688D02*
X129587797Y-100631307D01*
X129587797Y-100631307D02*
X129635416Y-100726545D01*
X129635416Y-100726545D02*
X129635416Y-100869402D01*
X129635416Y-100869402D02*
X129587797Y-100964640D01*
X129587797Y-100964640D02*
X129540178Y-101012259D01*
X129540178Y-101012259D02*
X129444940Y-101059878D01*
X129444940Y-101059878D02*
X129063988Y-101059878D01*
X130063988Y-101012259D02*
X130397321Y-101012259D01*
X130540178Y-101536069D02*
X130063988Y-101536069D01*
X130063988Y-101536069D02*
X130063988Y-100536069D01*
X130063988Y-100536069D02*
X130540178Y-100536069D01*
X131302083Y-101012259D02*
X130968750Y-101012259D01*
X130968750Y-101536069D02*
X130968750Y-100536069D01*
X130968750Y-100536069D02*
X131444940Y-100536069D01*
X131968750Y-100536069D02*
X131968750Y-100774164D01*
X131730655Y-100678926D02*
X131968750Y-100774164D01*
X131968750Y-100774164D02*
X132206845Y-100678926D01*
X131825893Y-100964640D02*
X131968750Y-100774164D01*
X131968750Y-100774164D02*
X132111607Y-100964640D01*
X132730655Y-100536069D02*
X132730655Y-100774164D01*
X132492560Y-100678926D02*
X132730655Y-100774164D01*
X132730655Y-100774164D02*
X132968750Y-100678926D01*
X132587798Y-100964640D02*
X132730655Y-100774164D01*
X132730655Y-100774164D02*
X132873512Y-100964640D01*
X148685416Y-85661069D02*
X148352083Y-85184878D01*
X148113988Y-85661069D02*
X148113988Y-84661069D01*
X148113988Y-84661069D02*
X148494940Y-84661069D01*
X148494940Y-84661069D02*
X148590178Y-84708688D01*
X148590178Y-84708688D02*
X148637797Y-84756307D01*
X148637797Y-84756307D02*
X148685416Y-84851545D01*
X148685416Y-84851545D02*
X148685416Y-84994402D01*
X148685416Y-84994402D02*
X148637797Y-85089640D01*
X148637797Y-85089640D02*
X148590178Y-85137259D01*
X148590178Y-85137259D02*
X148494940Y-85184878D01*
X148494940Y-85184878D02*
X148113988Y-85184878D01*
X149113988Y-85137259D02*
X149447321Y-85137259D01*
X149590178Y-85661069D02*
X149113988Y-85661069D01*
X149113988Y-85661069D02*
X149113988Y-84661069D01*
X149113988Y-84661069D02*
X149590178Y-84661069D01*
X150352083Y-85137259D02*
X150018750Y-85137259D01*
X150018750Y-85661069D02*
X150018750Y-84661069D01*
X150018750Y-84661069D02*
X150494940Y-84661069D01*
X151018750Y-84661069D02*
X151018750Y-84899164D01*
X150780655Y-84803926D02*
X151018750Y-84899164D01*
X151018750Y-84899164D02*
X151256845Y-84803926D01*
X150875893Y-85089640D02*
X151018750Y-84899164D01*
X151018750Y-84899164D02*
X151161607Y-85089640D01*
X151780655Y-84661069D02*
X151780655Y-84899164D01*
X151542560Y-84803926D02*
X151780655Y-84899164D01*
X151780655Y-84899164D02*
X152018750Y-84803926D01*
X151637798Y-85089640D02*
X151780655Y-84899164D01*
X151780655Y-84899164D02*
X151923512Y-85089640D01*
X82543155Y-84973569D02*
X82543155Y-83973569D01*
X82543155Y-83973569D02*
X82781250Y-83973569D01*
X82781250Y-83973569D02*
X82924107Y-84021188D01*
X82924107Y-84021188D02*
X83019345Y-84116426D01*
X83019345Y-84116426D02*
X83066964Y-84211664D01*
X83066964Y-84211664D02*
X83114583Y-84402140D01*
X83114583Y-84402140D02*
X83114583Y-84544997D01*
X83114583Y-84544997D02*
X83066964Y-84735473D01*
X83066964Y-84735473D02*
X83019345Y-84830711D01*
X83019345Y-84830711D02*
X82924107Y-84925950D01*
X82924107Y-84925950D02*
X82781250Y-84973569D01*
X82781250Y-84973569D02*
X82543155Y-84973569D01*
X83971726Y-83973569D02*
X83781250Y-83973569D01*
X83781250Y-83973569D02*
X83686012Y-84021188D01*
X83686012Y-84021188D02*
X83638393Y-84068807D01*
X83638393Y-84068807D02*
X83543155Y-84211664D01*
X83543155Y-84211664D02*
X83495536Y-84402140D01*
X83495536Y-84402140D02*
X83495536Y-84783092D01*
X83495536Y-84783092D02*
X83543155Y-84878330D01*
X83543155Y-84878330D02*
X83590774Y-84925950D01*
X83590774Y-84925950D02*
X83686012Y-84973569D01*
X83686012Y-84973569D02*
X83876488Y-84973569D01*
X83876488Y-84973569D02*
X83971726Y-84925950D01*
X83971726Y-84925950D02*
X84019345Y-84878330D01*
X84019345Y-84878330D02*
X84066964Y-84783092D01*
X84066964Y-84783092D02*
X84066964Y-84544997D01*
X84066964Y-84544997D02*
X84019345Y-84449759D01*
X84019345Y-84449759D02*
X83971726Y-84402140D01*
X83971726Y-84402140D02*
X83876488Y-84354521D01*
X83876488Y-84354521D02*
X83686012Y-84354521D01*
X83686012Y-84354521D02*
X83590774Y-84402140D01*
X83590774Y-84402140D02*
X83543155Y-84449759D01*
X83543155Y-84449759D02*
X83495536Y-84544997D01*
X90741666Y-106298569D02*
X90408333Y-105822378D01*
X90170238Y-106298569D02*
X90170238Y-105298569D01*
X90170238Y-105298569D02*
X90551190Y-105298569D01*
X90551190Y-105298569D02*
X90646428Y-105346188D01*
X90646428Y-105346188D02*
X90694047Y-105393807D01*
X90694047Y-105393807D02*
X90741666Y-105489045D01*
X90741666Y-105489045D02*
X90741666Y-105631902D01*
X90741666Y-105631902D02*
X90694047Y-105727140D01*
X90694047Y-105727140D02*
X90646428Y-105774759D01*
X90646428Y-105774759D02*
X90551190Y-105822378D01*
X90551190Y-105822378D02*
X90170238Y-105822378D01*
X91170238Y-105774759D02*
X91503571Y-105774759D01*
X91646428Y-106298569D02*
X91170238Y-106298569D01*
X91170238Y-106298569D02*
X91170238Y-105298569D01*
X91170238Y-105298569D02*
X91646428Y-105298569D01*
X92408333Y-105774759D02*
X92075000Y-105774759D01*
X92075000Y-106298569D02*
X92075000Y-105298569D01*
X92075000Y-105298569D02*
X92551190Y-105298569D01*
X93075000Y-105298569D02*
X93075000Y-105536664D01*
X92836905Y-105441426D02*
X93075000Y-105536664D01*
X93075000Y-105536664D02*
X93313095Y-105441426D01*
X92932143Y-105727140D02*
X93075000Y-105536664D01*
X93075000Y-105536664D02*
X93217857Y-105727140D01*
X93836905Y-105298569D02*
X93836905Y-105536664D01*
X93598810Y-105441426D02*
X93836905Y-105536664D01*
X93836905Y-105536664D02*
X94075000Y-105441426D01*
X93694048Y-105727140D02*
X93836905Y-105536664D01*
X93836905Y-105536664D02*
X93979762Y-105727140D01*
X139216964Y-62748569D02*
X139216964Y-61748569D01*
X139216964Y-61748569D02*
X139455059Y-61748569D01*
X139455059Y-61748569D02*
X139597916Y-61796188D01*
X139597916Y-61796188D02*
X139693154Y-61891426D01*
X139693154Y-61891426D02*
X139740773Y-61986664D01*
X139740773Y-61986664D02*
X139788392Y-62177140D01*
X139788392Y-62177140D02*
X139788392Y-62319997D01*
X139788392Y-62319997D02*
X139740773Y-62510473D01*
X139740773Y-62510473D02*
X139693154Y-62605711D01*
X139693154Y-62605711D02*
X139597916Y-62700950D01*
X139597916Y-62700950D02*
X139455059Y-62748569D01*
X139455059Y-62748569D02*
X139216964Y-62748569D01*
X140740773Y-62748569D02*
X140169345Y-62748569D01*
X140455059Y-62748569D02*
X140455059Y-61748569D01*
X140455059Y-61748569D02*
X140359821Y-61891426D01*
X140359821Y-61891426D02*
X140264583Y-61986664D01*
X140264583Y-61986664D02*
X140169345Y-62034283D01*
X141074107Y-61748569D02*
X141740773Y-61748569D01*
X141740773Y-61748569D02*
X141312202Y-62748569D01*
X90741666Y-87248569D02*
X90408333Y-86772378D01*
X90170238Y-87248569D02*
X90170238Y-86248569D01*
X90170238Y-86248569D02*
X90551190Y-86248569D01*
X90551190Y-86248569D02*
X90646428Y-86296188D01*
X90646428Y-86296188D02*
X90694047Y-86343807D01*
X90694047Y-86343807D02*
X90741666Y-86439045D01*
X90741666Y-86439045D02*
X90741666Y-86581902D01*
X90741666Y-86581902D02*
X90694047Y-86677140D01*
X90694047Y-86677140D02*
X90646428Y-86724759D01*
X90646428Y-86724759D02*
X90551190Y-86772378D01*
X90551190Y-86772378D02*
X90170238Y-86772378D01*
X91170238Y-86724759D02*
X91503571Y-86724759D01*
X91646428Y-87248569D02*
X91170238Y-87248569D01*
X91170238Y-87248569D02*
X91170238Y-86248569D01*
X91170238Y-86248569D02*
X91646428Y-86248569D01*
X92408333Y-86724759D02*
X92075000Y-86724759D01*
X92075000Y-87248569D02*
X92075000Y-86248569D01*
X92075000Y-86248569D02*
X92551190Y-86248569D01*
X93075000Y-86248569D02*
X93075000Y-86486664D01*
X92836905Y-86391426D02*
X93075000Y-86486664D01*
X93075000Y-86486664D02*
X93313095Y-86391426D01*
X92932143Y-86677140D02*
X93075000Y-86486664D01*
X93075000Y-86486664D02*
X93217857Y-86677140D01*
X93836905Y-86248569D02*
X93836905Y-86486664D01*
X93598810Y-86391426D02*
X93836905Y-86486664D01*
X93836905Y-86486664D02*
X94075000Y-86391426D01*
X93694048Y-86677140D02*
X93836905Y-86486664D01*
X93836905Y-86486664D02*
X93979762Y-86677140D01*
X109791666Y-102329819D02*
X109458333Y-101853628D01*
X109220238Y-102329819D02*
X109220238Y-101329819D01*
X109220238Y-101329819D02*
X109601190Y-101329819D01*
X109601190Y-101329819D02*
X109696428Y-101377438D01*
X109696428Y-101377438D02*
X109744047Y-101425057D01*
X109744047Y-101425057D02*
X109791666Y-101520295D01*
X109791666Y-101520295D02*
X109791666Y-101663152D01*
X109791666Y-101663152D02*
X109744047Y-101758390D01*
X109744047Y-101758390D02*
X109696428Y-101806009D01*
X109696428Y-101806009D02*
X109601190Y-101853628D01*
X109601190Y-101853628D02*
X109220238Y-101853628D01*
X110220238Y-101806009D02*
X110553571Y-101806009D01*
X110696428Y-102329819D02*
X110220238Y-102329819D01*
X110220238Y-102329819D02*
X110220238Y-101329819D01*
X110220238Y-101329819D02*
X110696428Y-101329819D01*
X111458333Y-101806009D02*
X111125000Y-101806009D01*
X111125000Y-102329819D02*
X111125000Y-101329819D01*
X111125000Y-101329819D02*
X111601190Y-101329819D01*
X112125000Y-101329819D02*
X112125000Y-101567914D01*
X111886905Y-101472676D02*
X112125000Y-101567914D01*
X112125000Y-101567914D02*
X112363095Y-101472676D01*
X111982143Y-101758390D02*
X112125000Y-101567914D01*
X112125000Y-101567914D02*
X112267857Y-101758390D01*
X112886905Y-101329819D02*
X112886905Y-101567914D01*
X112648810Y-101472676D02*
X112886905Y-101567914D01*
X112886905Y-101567914D02*
X113125000Y-101472676D01*
X112744048Y-101758390D02*
X112886905Y-101567914D01*
X112886905Y-101567914D02*
X113029762Y-101758390D01*
X120166964Y-78623569D02*
X120166964Y-77623569D01*
X120166964Y-77623569D02*
X120405059Y-77623569D01*
X120405059Y-77623569D02*
X120547916Y-77671188D01*
X120547916Y-77671188D02*
X120643154Y-77766426D01*
X120643154Y-77766426D02*
X120690773Y-77861664D01*
X120690773Y-77861664D02*
X120738392Y-78052140D01*
X120738392Y-78052140D02*
X120738392Y-78194997D01*
X120738392Y-78194997D02*
X120690773Y-78385473D01*
X120690773Y-78385473D02*
X120643154Y-78480711D01*
X120643154Y-78480711D02*
X120547916Y-78575950D01*
X120547916Y-78575950D02*
X120405059Y-78623569D01*
X120405059Y-78623569D02*
X120166964Y-78623569D01*
X121690773Y-78623569D02*
X121119345Y-78623569D01*
X121405059Y-78623569D02*
X121405059Y-77623569D01*
X121405059Y-77623569D02*
X121309821Y-77766426D01*
X121309821Y-77766426D02*
X121214583Y-77861664D01*
X121214583Y-77861664D02*
X121119345Y-77909283D01*
X122547916Y-77956902D02*
X122547916Y-78623569D01*
X122309821Y-77575950D02*
X122071726Y-78290235D01*
X122071726Y-78290235D02*
X122690773Y-78290235D01*
X158266964Y-123073569D02*
X158266964Y-122073569D01*
X158266964Y-122073569D02*
X158505059Y-122073569D01*
X158505059Y-122073569D02*
X158647916Y-122121188D01*
X158647916Y-122121188D02*
X158743154Y-122216426D01*
X158743154Y-122216426D02*
X158790773Y-122311664D01*
X158790773Y-122311664D02*
X158838392Y-122502140D01*
X158838392Y-122502140D02*
X158838392Y-122644997D01*
X158838392Y-122644997D02*
X158790773Y-122835473D01*
X158790773Y-122835473D02*
X158743154Y-122930711D01*
X158743154Y-122930711D02*
X158647916Y-123025950D01*
X158647916Y-123025950D02*
X158505059Y-123073569D01*
X158505059Y-123073569D02*
X158266964Y-123073569D01*
X159219345Y-122168807D02*
X159266964Y-122121188D01*
X159266964Y-122121188D02*
X159362202Y-122073569D01*
X159362202Y-122073569D02*
X159600297Y-122073569D01*
X159600297Y-122073569D02*
X159695535Y-122121188D01*
X159695535Y-122121188D02*
X159743154Y-122168807D01*
X159743154Y-122168807D02*
X159790773Y-122264045D01*
X159790773Y-122264045D02*
X159790773Y-122359283D01*
X159790773Y-122359283D02*
X159743154Y-122502140D01*
X159743154Y-122502140D02*
X159171726Y-123073569D01*
X159171726Y-123073569D02*
X159790773Y-123073569D01*
X160647916Y-122406902D02*
X160647916Y-123073569D01*
X160409821Y-122025950D02*
X160171726Y-122740235D01*
X160171726Y-122740235D02*
X160790773Y-122740235D01*
X82543155Y-104023569D02*
X82543155Y-103023569D01*
X82543155Y-103023569D02*
X82781250Y-103023569D01*
X82781250Y-103023569D02*
X82924107Y-103071188D01*
X82924107Y-103071188D02*
X83019345Y-103166426D01*
X83019345Y-103166426D02*
X83066964Y-103261664D01*
X83066964Y-103261664D02*
X83114583Y-103452140D01*
X83114583Y-103452140D02*
X83114583Y-103594997D01*
X83114583Y-103594997D02*
X83066964Y-103785473D01*
X83066964Y-103785473D02*
X83019345Y-103880711D01*
X83019345Y-103880711D02*
X82924107Y-103975950D01*
X82924107Y-103975950D02*
X82781250Y-104023569D01*
X82781250Y-104023569D02*
X82543155Y-104023569D01*
X83447917Y-103023569D02*
X84114583Y-103023569D01*
X84114583Y-103023569D02*
X83686012Y-104023569D01*
X63493155Y-69098569D02*
X63493155Y-68098569D01*
X63493155Y-68098569D02*
X63731250Y-68098569D01*
X63731250Y-68098569D02*
X63874107Y-68146188D01*
X63874107Y-68146188D02*
X63969345Y-68241426D01*
X63969345Y-68241426D02*
X64016964Y-68336664D01*
X64016964Y-68336664D02*
X64064583Y-68527140D01*
X64064583Y-68527140D02*
X64064583Y-68669997D01*
X64064583Y-68669997D02*
X64016964Y-68860473D01*
X64016964Y-68860473D02*
X63969345Y-68955711D01*
X63969345Y-68955711D02*
X63874107Y-69050950D01*
X63874107Y-69050950D02*
X63731250Y-69098569D01*
X63731250Y-69098569D02*
X63493155Y-69098569D01*
X65016964Y-69098569D02*
X64445536Y-69098569D01*
X64731250Y-69098569D02*
X64731250Y-68098569D01*
X64731250Y-68098569D02*
X64636012Y-68241426D01*
X64636012Y-68241426D02*
X64540774Y-68336664D01*
X64540774Y-68336664D02*
X64445536Y-68384283D01*
X71691666Y-109473569D02*
X71358333Y-108997378D01*
X71120238Y-109473569D02*
X71120238Y-108473569D01*
X71120238Y-108473569D02*
X71501190Y-108473569D01*
X71501190Y-108473569D02*
X71596428Y-108521188D01*
X71596428Y-108521188D02*
X71644047Y-108568807D01*
X71644047Y-108568807D02*
X71691666Y-108664045D01*
X71691666Y-108664045D02*
X71691666Y-108806902D01*
X71691666Y-108806902D02*
X71644047Y-108902140D01*
X71644047Y-108902140D02*
X71596428Y-108949759D01*
X71596428Y-108949759D02*
X71501190Y-108997378D01*
X71501190Y-108997378D02*
X71120238Y-108997378D01*
X72120238Y-108949759D02*
X72453571Y-108949759D01*
X72596428Y-109473569D02*
X72120238Y-109473569D01*
X72120238Y-109473569D02*
X72120238Y-108473569D01*
X72120238Y-108473569D02*
X72596428Y-108473569D01*
X73358333Y-108949759D02*
X73025000Y-108949759D01*
X73025000Y-109473569D02*
X73025000Y-108473569D01*
X73025000Y-108473569D02*
X73501190Y-108473569D01*
X74025000Y-108473569D02*
X74025000Y-108711664D01*
X73786905Y-108616426D02*
X74025000Y-108711664D01*
X74025000Y-108711664D02*
X74263095Y-108616426D01*
X73882143Y-108902140D02*
X74025000Y-108711664D01*
X74025000Y-108711664D02*
X74167857Y-108902140D01*
X74786905Y-108473569D02*
X74786905Y-108711664D01*
X74548810Y-108616426D02*
X74786905Y-108711664D01*
X74786905Y-108711664D02*
X75025000Y-108616426D01*
X74644048Y-108902140D02*
X74786905Y-108711664D01*
X74786905Y-108711664D02*
X74929762Y-108902140D01*
X139216964Y-100848569D02*
X139216964Y-99848569D01*
X139216964Y-99848569D02*
X139455059Y-99848569D01*
X139455059Y-99848569D02*
X139597916Y-99896188D01*
X139597916Y-99896188D02*
X139693154Y-99991426D01*
X139693154Y-99991426D02*
X139740773Y-100086664D01*
X139740773Y-100086664D02*
X139788392Y-100277140D01*
X139788392Y-100277140D02*
X139788392Y-100419997D01*
X139788392Y-100419997D02*
X139740773Y-100610473D01*
X139740773Y-100610473D02*
X139693154Y-100705711D01*
X139693154Y-100705711D02*
X139597916Y-100800950D01*
X139597916Y-100800950D02*
X139455059Y-100848569D01*
X139455059Y-100848569D02*
X139216964Y-100848569D01*
X140740773Y-100848569D02*
X140169345Y-100848569D01*
X140455059Y-100848569D02*
X140455059Y-99848569D01*
X140455059Y-99848569D02*
X140359821Y-99991426D01*
X140359821Y-99991426D02*
X140264583Y-100086664D01*
X140264583Y-100086664D02*
X140169345Y-100134283D01*
X141216964Y-100848569D02*
X141407440Y-100848569D01*
X141407440Y-100848569D02*
X141502678Y-100800950D01*
X141502678Y-100800950D02*
X141550297Y-100753330D01*
X141550297Y-100753330D02*
X141645535Y-100610473D01*
X141645535Y-100610473D02*
X141693154Y-100419997D01*
X141693154Y-100419997D02*
X141693154Y-100039045D01*
X141693154Y-100039045D02*
X141645535Y-99943807D01*
X141645535Y-99943807D02*
X141597916Y-99896188D01*
X141597916Y-99896188D02*
X141502678Y-99848569D01*
X141502678Y-99848569D02*
X141312202Y-99848569D01*
X141312202Y-99848569D02*
X141216964Y-99896188D01*
X141216964Y-99896188D02*
X141169345Y-99943807D01*
X141169345Y-99943807D02*
X141121726Y-100039045D01*
X141121726Y-100039045D02*
X141121726Y-100277140D01*
X141121726Y-100277140D02*
X141169345Y-100372378D01*
X141169345Y-100372378D02*
X141216964Y-100419997D01*
X141216964Y-100419997D02*
X141312202Y-100467616D01*
X141312202Y-100467616D02*
X141502678Y-100467616D01*
X141502678Y-100467616D02*
X141597916Y-100419997D01*
X141597916Y-100419997D02*
X141645535Y-100372378D01*
X141645535Y-100372378D02*
X141693154Y-100277140D01*
X139216964Y-119898569D02*
X139216964Y-118898569D01*
X139216964Y-118898569D02*
X139455059Y-118898569D01*
X139455059Y-118898569D02*
X139597916Y-118946188D01*
X139597916Y-118946188D02*
X139693154Y-119041426D01*
X139693154Y-119041426D02*
X139740773Y-119136664D01*
X139740773Y-119136664D02*
X139788392Y-119327140D01*
X139788392Y-119327140D02*
X139788392Y-119469997D01*
X139788392Y-119469997D02*
X139740773Y-119660473D01*
X139740773Y-119660473D02*
X139693154Y-119755711D01*
X139693154Y-119755711D02*
X139597916Y-119850950D01*
X139597916Y-119850950D02*
X139455059Y-119898569D01*
X139455059Y-119898569D02*
X139216964Y-119898569D01*
X140169345Y-118993807D02*
X140216964Y-118946188D01*
X140216964Y-118946188D02*
X140312202Y-118898569D01*
X140312202Y-118898569D02*
X140550297Y-118898569D01*
X140550297Y-118898569D02*
X140645535Y-118946188D01*
X140645535Y-118946188D02*
X140693154Y-118993807D01*
X140693154Y-118993807D02*
X140740773Y-119089045D01*
X140740773Y-119089045D02*
X140740773Y-119184283D01*
X140740773Y-119184283D02*
X140693154Y-119327140D01*
X140693154Y-119327140D02*
X140121726Y-119898569D01*
X140121726Y-119898569D02*
X140740773Y-119898569D01*
X141359821Y-118898569D02*
X141455059Y-118898569D01*
X141455059Y-118898569D02*
X141550297Y-118946188D01*
X141550297Y-118946188D02*
X141597916Y-118993807D01*
X141597916Y-118993807D02*
X141645535Y-119089045D01*
X141645535Y-119089045D02*
X141693154Y-119279521D01*
X141693154Y-119279521D02*
X141693154Y-119517616D01*
X141693154Y-119517616D02*
X141645535Y-119708092D01*
X141645535Y-119708092D02*
X141597916Y-119803330D01*
X141597916Y-119803330D02*
X141550297Y-119850950D01*
X141550297Y-119850950D02*
X141455059Y-119898569D01*
X141455059Y-119898569D02*
X141359821Y-119898569D01*
X141359821Y-119898569D02*
X141264583Y-119850950D01*
X141264583Y-119850950D02*
X141216964Y-119803330D01*
X141216964Y-119803330D02*
X141169345Y-119708092D01*
X141169345Y-119708092D02*
X141121726Y-119517616D01*
X141121726Y-119517616D02*
X141121726Y-119279521D01*
X141121726Y-119279521D02*
X141169345Y-119089045D01*
X141169345Y-119089045D02*
X141216964Y-118993807D01*
X141216964Y-118993807D02*
X141264583Y-118946188D01*
X141264583Y-118946188D02*
X141359821Y-118898569D01*
X101116964Y-100848569D02*
X101116964Y-99848569D01*
X101116964Y-99848569D02*
X101355059Y-99848569D01*
X101355059Y-99848569D02*
X101497916Y-99896188D01*
X101497916Y-99896188D02*
X101593154Y-99991426D01*
X101593154Y-99991426D02*
X101640773Y-100086664D01*
X101640773Y-100086664D02*
X101688392Y-100277140D01*
X101688392Y-100277140D02*
X101688392Y-100419997D01*
X101688392Y-100419997D02*
X101640773Y-100610473D01*
X101640773Y-100610473D02*
X101593154Y-100705711D01*
X101593154Y-100705711D02*
X101497916Y-100800950D01*
X101497916Y-100800950D02*
X101355059Y-100848569D01*
X101355059Y-100848569D02*
X101116964Y-100848569D01*
X102640773Y-100848569D02*
X102069345Y-100848569D01*
X102355059Y-100848569D02*
X102355059Y-99848569D01*
X102355059Y-99848569D02*
X102259821Y-99991426D01*
X102259821Y-99991426D02*
X102164583Y-100086664D01*
X102164583Y-100086664D02*
X102069345Y-100134283D01*
X103593154Y-100848569D02*
X103021726Y-100848569D01*
X103307440Y-100848569D02*
X103307440Y-99848569D01*
X103307440Y-99848569D02*
X103212202Y-99991426D01*
X103212202Y-99991426D02*
X103116964Y-100086664D01*
X103116964Y-100086664D02*
X103021726Y-100134283D01*
X194722916Y-65023569D02*
X194389583Y-64547378D01*
X194151488Y-65023569D02*
X194151488Y-64023569D01*
X194151488Y-64023569D02*
X194532440Y-64023569D01*
X194532440Y-64023569D02*
X194627678Y-64071188D01*
X194627678Y-64071188D02*
X194675297Y-64118807D01*
X194675297Y-64118807D02*
X194722916Y-64214045D01*
X194722916Y-64214045D02*
X194722916Y-64356902D01*
X194722916Y-64356902D02*
X194675297Y-64452140D01*
X194675297Y-64452140D02*
X194627678Y-64499759D01*
X194627678Y-64499759D02*
X194532440Y-64547378D01*
X194532440Y-64547378D02*
X194151488Y-64547378D01*
X195151488Y-64499759D02*
X195484821Y-64499759D01*
X195627678Y-65023569D02*
X195151488Y-65023569D01*
X195151488Y-65023569D02*
X195151488Y-64023569D01*
X195151488Y-64023569D02*
X195627678Y-64023569D01*
X196389583Y-64499759D02*
X196056250Y-64499759D01*
X196056250Y-65023569D02*
X196056250Y-64023569D01*
X196056250Y-64023569D02*
X196532440Y-64023569D01*
X197056250Y-64023569D02*
X197056250Y-64261664D01*
X196818155Y-64166426D02*
X197056250Y-64261664D01*
X197056250Y-64261664D02*
X197294345Y-64166426D01*
X196913393Y-64452140D02*
X197056250Y-64261664D01*
X197056250Y-64261664D02*
X197199107Y-64452140D01*
X197818155Y-64023569D02*
X197818155Y-64261664D01*
X197580060Y-64166426D02*
X197818155Y-64261664D01*
X197818155Y-64261664D02*
X198056250Y-64166426D01*
X197675298Y-64452140D02*
X197818155Y-64261664D01*
X197818155Y-64261664D02*
X197961012Y-64452140D01*
X109791666Y-83279819D02*
X109458333Y-82803628D01*
X109220238Y-83279819D02*
X109220238Y-82279819D01*
X109220238Y-82279819D02*
X109601190Y-82279819D01*
X109601190Y-82279819D02*
X109696428Y-82327438D01*
X109696428Y-82327438D02*
X109744047Y-82375057D01*
X109744047Y-82375057D02*
X109791666Y-82470295D01*
X109791666Y-82470295D02*
X109791666Y-82613152D01*
X109791666Y-82613152D02*
X109744047Y-82708390D01*
X109744047Y-82708390D02*
X109696428Y-82756009D01*
X109696428Y-82756009D02*
X109601190Y-82803628D01*
X109601190Y-82803628D02*
X109220238Y-82803628D01*
X110220238Y-82756009D02*
X110553571Y-82756009D01*
X110696428Y-83279819D02*
X110220238Y-83279819D01*
X110220238Y-83279819D02*
X110220238Y-82279819D01*
X110220238Y-82279819D02*
X110696428Y-82279819D01*
X111458333Y-82756009D02*
X111125000Y-82756009D01*
X111125000Y-83279819D02*
X111125000Y-82279819D01*
X111125000Y-82279819D02*
X111601190Y-82279819D01*
X112125000Y-82279819D02*
X112125000Y-82517914D01*
X111886905Y-82422676D02*
X112125000Y-82517914D01*
X112125000Y-82517914D02*
X112363095Y-82422676D01*
X111982143Y-82708390D02*
X112125000Y-82517914D01*
X112125000Y-82517914D02*
X112267857Y-82708390D01*
X112886905Y-82279819D02*
X112886905Y-82517914D01*
X112648810Y-82422676D02*
X112886905Y-82517914D01*
X112886905Y-82517914D02*
X113125000Y-82422676D01*
X112744048Y-82708390D02*
X112886905Y-82517914D01*
X112886905Y-82517914D02*
X113029762Y-82708390D01*
X158266964Y-104023569D02*
X158266964Y-103023569D01*
X158266964Y-103023569D02*
X158505059Y-103023569D01*
X158505059Y-103023569D02*
X158647916Y-103071188D01*
X158647916Y-103071188D02*
X158743154Y-103166426D01*
X158743154Y-103166426D02*
X158790773Y-103261664D01*
X158790773Y-103261664D02*
X158838392Y-103452140D01*
X158838392Y-103452140D02*
X158838392Y-103594997D01*
X158838392Y-103594997D02*
X158790773Y-103785473D01*
X158790773Y-103785473D02*
X158743154Y-103880711D01*
X158743154Y-103880711D02*
X158647916Y-103975950D01*
X158647916Y-103975950D02*
X158505059Y-104023569D01*
X158505059Y-104023569D02*
X158266964Y-104023569D01*
X159219345Y-103118807D02*
X159266964Y-103071188D01*
X159266964Y-103071188D02*
X159362202Y-103023569D01*
X159362202Y-103023569D02*
X159600297Y-103023569D01*
X159600297Y-103023569D02*
X159695535Y-103071188D01*
X159695535Y-103071188D02*
X159743154Y-103118807D01*
X159743154Y-103118807D02*
X159790773Y-103214045D01*
X159790773Y-103214045D02*
X159790773Y-103309283D01*
X159790773Y-103309283D02*
X159743154Y-103452140D01*
X159743154Y-103452140D02*
X159171726Y-104023569D01*
X159171726Y-104023569D02*
X159790773Y-104023569D01*
X160124107Y-103023569D02*
X160743154Y-103023569D01*
X160743154Y-103023569D02*
X160409821Y-103404521D01*
X160409821Y-103404521D02*
X160552678Y-103404521D01*
X160552678Y-103404521D02*
X160647916Y-103452140D01*
X160647916Y-103452140D02*
X160695535Y-103499759D01*
X160695535Y-103499759D02*
X160743154Y-103594997D01*
X160743154Y-103594997D02*
X160743154Y-103833092D01*
X160743154Y-103833092D02*
X160695535Y-103928330D01*
X160695535Y-103928330D02*
X160647916Y-103975950D01*
X160647916Y-103975950D02*
X160552678Y-104023569D01*
X160552678Y-104023569D02*
X160266964Y-104023569D01*
X160266964Y-104023569D02*
X160171726Y-103975950D01*
X160171726Y-103975950D02*
X160124107Y-103928330D01*
X120166964Y-97673569D02*
X120166964Y-96673569D01*
X120166964Y-96673569D02*
X120405059Y-96673569D01*
X120405059Y-96673569D02*
X120547916Y-96721188D01*
X120547916Y-96721188D02*
X120643154Y-96816426D01*
X120643154Y-96816426D02*
X120690773Y-96911664D01*
X120690773Y-96911664D02*
X120738392Y-97102140D01*
X120738392Y-97102140D02*
X120738392Y-97244997D01*
X120738392Y-97244997D02*
X120690773Y-97435473D01*
X120690773Y-97435473D02*
X120643154Y-97530711D01*
X120643154Y-97530711D02*
X120547916Y-97625950D01*
X120547916Y-97625950D02*
X120405059Y-97673569D01*
X120405059Y-97673569D02*
X120166964Y-97673569D01*
X121690773Y-97673569D02*
X121119345Y-97673569D01*
X121405059Y-97673569D02*
X121405059Y-96673569D01*
X121405059Y-96673569D02*
X121309821Y-96816426D01*
X121309821Y-96816426D02*
X121214583Y-96911664D01*
X121214583Y-96911664D02*
X121119345Y-96959283D01*
X122595535Y-96673569D02*
X122119345Y-96673569D01*
X122119345Y-96673569D02*
X122071726Y-97149759D01*
X122071726Y-97149759D02*
X122119345Y-97102140D01*
X122119345Y-97102140D02*
X122214583Y-97054521D01*
X122214583Y-97054521D02*
X122452678Y-97054521D01*
X122452678Y-97054521D02*
X122547916Y-97102140D01*
X122547916Y-97102140D02*
X122595535Y-97149759D01*
X122595535Y-97149759D02*
X122643154Y-97244997D01*
X122643154Y-97244997D02*
X122643154Y-97483092D01*
X122643154Y-97483092D02*
X122595535Y-97578330D01*
X122595535Y-97578330D02*
X122547916Y-97625950D01*
X122547916Y-97625950D02*
X122452678Y-97673569D01*
X122452678Y-97673569D02*
X122214583Y-97673569D01*
X122214583Y-97673569D02*
X122119345Y-97625950D01*
X122119345Y-97625950D02*
X122071726Y-97578330D01*
X101116964Y-81798569D02*
X101116964Y-80798569D01*
X101116964Y-80798569D02*
X101355059Y-80798569D01*
X101355059Y-80798569D02*
X101497916Y-80846188D01*
X101497916Y-80846188D02*
X101593154Y-80941426D01*
X101593154Y-80941426D02*
X101640773Y-81036664D01*
X101640773Y-81036664D02*
X101688392Y-81227140D01*
X101688392Y-81227140D02*
X101688392Y-81369997D01*
X101688392Y-81369997D02*
X101640773Y-81560473D01*
X101640773Y-81560473D02*
X101593154Y-81655711D01*
X101593154Y-81655711D02*
X101497916Y-81750950D01*
X101497916Y-81750950D02*
X101355059Y-81798569D01*
X101355059Y-81798569D02*
X101116964Y-81798569D01*
X102640773Y-81798569D02*
X102069345Y-81798569D01*
X102355059Y-81798569D02*
X102355059Y-80798569D01*
X102355059Y-80798569D02*
X102259821Y-80941426D01*
X102259821Y-80941426D02*
X102164583Y-81036664D01*
X102164583Y-81036664D02*
X102069345Y-81084283D01*
X103259821Y-80798569D02*
X103355059Y-80798569D01*
X103355059Y-80798569D02*
X103450297Y-80846188D01*
X103450297Y-80846188D02*
X103497916Y-80893807D01*
X103497916Y-80893807D02*
X103545535Y-80989045D01*
X103545535Y-80989045D02*
X103593154Y-81179521D01*
X103593154Y-81179521D02*
X103593154Y-81417616D01*
X103593154Y-81417616D02*
X103545535Y-81608092D01*
X103545535Y-81608092D02*
X103497916Y-81703330D01*
X103497916Y-81703330D02*
X103450297Y-81750950D01*
X103450297Y-81750950D02*
X103355059Y-81798569D01*
X103355059Y-81798569D02*
X103259821Y-81798569D01*
X103259821Y-81798569D02*
X103164583Y-81750950D01*
X103164583Y-81750950D02*
X103116964Y-81703330D01*
X103116964Y-81703330D02*
X103069345Y-81608092D01*
X103069345Y-81608092D02*
X103021726Y-81417616D01*
X103021726Y-81417616D02*
X103021726Y-81179521D01*
X103021726Y-81179521D02*
X103069345Y-80989045D01*
X103069345Y-80989045D02*
X103116964Y-80893807D01*
X103116964Y-80893807D02*
X103164583Y-80846188D01*
X103164583Y-80846188D02*
X103259821Y-80798569D01*
X120166964Y-116723569D02*
X120166964Y-115723569D01*
X120166964Y-115723569D02*
X120405059Y-115723569D01*
X120405059Y-115723569D02*
X120547916Y-115771188D01*
X120547916Y-115771188D02*
X120643154Y-115866426D01*
X120643154Y-115866426D02*
X120690773Y-115961664D01*
X120690773Y-115961664D02*
X120738392Y-116152140D01*
X120738392Y-116152140D02*
X120738392Y-116294997D01*
X120738392Y-116294997D02*
X120690773Y-116485473D01*
X120690773Y-116485473D02*
X120643154Y-116580711D01*
X120643154Y-116580711D02*
X120547916Y-116675950D01*
X120547916Y-116675950D02*
X120405059Y-116723569D01*
X120405059Y-116723569D02*
X120166964Y-116723569D01*
X121690773Y-116723569D02*
X121119345Y-116723569D01*
X121405059Y-116723569D02*
X121405059Y-115723569D01*
X121405059Y-115723569D02*
X121309821Y-115866426D01*
X121309821Y-115866426D02*
X121214583Y-115961664D01*
X121214583Y-115961664D02*
X121119345Y-116009283D01*
X122547916Y-115723569D02*
X122357440Y-115723569D01*
X122357440Y-115723569D02*
X122262202Y-115771188D01*
X122262202Y-115771188D02*
X122214583Y-115818807D01*
X122214583Y-115818807D02*
X122119345Y-115961664D01*
X122119345Y-115961664D02*
X122071726Y-116152140D01*
X122071726Y-116152140D02*
X122071726Y-116533092D01*
X122071726Y-116533092D02*
X122119345Y-116628330D01*
X122119345Y-116628330D02*
X122166964Y-116675950D01*
X122166964Y-116675950D02*
X122262202Y-116723569D01*
X122262202Y-116723569D02*
X122452678Y-116723569D01*
X122452678Y-116723569D02*
X122547916Y-116675950D01*
X122547916Y-116675950D02*
X122595535Y-116628330D01*
X122595535Y-116628330D02*
X122643154Y-116533092D01*
X122643154Y-116533092D02*
X122643154Y-116294997D01*
X122643154Y-116294997D02*
X122595535Y-116199759D01*
X122595535Y-116199759D02*
X122547916Y-116152140D01*
X122547916Y-116152140D02*
X122452678Y-116104521D01*
X122452678Y-116104521D02*
X122262202Y-116104521D01*
X122262202Y-116104521D02*
X122166964Y-116152140D01*
X122166964Y-116152140D02*
X122119345Y-116199759D01*
X122119345Y-116199759D02*
X122071726Y-116294997D01*
X41086069Y-89093088D02*
X42086069Y-88759755D01*
X42086069Y-88759755D02*
X41086069Y-88426422D01*
X41990830Y-87521660D02*
X42038450Y-87569279D01*
X42038450Y-87569279D02*
X42086069Y-87712136D01*
X42086069Y-87712136D02*
X42086069Y-87807374D01*
X42086069Y-87807374D02*
X42038450Y-87950231D01*
X42038450Y-87950231D02*
X41943211Y-88045469D01*
X41943211Y-88045469D02*
X41847973Y-88093088D01*
X41847973Y-88093088D02*
X41657497Y-88140707D01*
X41657497Y-88140707D02*
X41514640Y-88140707D01*
X41514640Y-88140707D02*
X41324164Y-88093088D01*
X41324164Y-88093088D02*
X41228926Y-88045469D01*
X41228926Y-88045469D02*
X41133688Y-87950231D01*
X41133688Y-87950231D02*
X41086069Y-87807374D01*
X41086069Y-87807374D02*
X41086069Y-87712136D01*
X41086069Y-87712136D02*
X41133688Y-87569279D01*
X41133688Y-87569279D02*
X41181307Y-87521660D01*
X41990830Y-86521660D02*
X42038450Y-86569279D01*
X42038450Y-86569279D02*
X42086069Y-86712136D01*
X42086069Y-86712136D02*
X42086069Y-86807374D01*
X42086069Y-86807374D02*
X42038450Y-86950231D01*
X42038450Y-86950231D02*
X41943211Y-87045469D01*
X41943211Y-87045469D02*
X41847973Y-87093088D01*
X41847973Y-87093088D02*
X41657497Y-87140707D01*
X41657497Y-87140707D02*
X41514640Y-87140707D01*
X41514640Y-87140707D02*
X41324164Y-87093088D01*
X41324164Y-87093088D02*
X41228926Y-87045469D01*
X41228926Y-87045469D02*
X41133688Y-86950231D01*
X41133688Y-86950231D02*
X41086069Y-86807374D01*
X41086069Y-86807374D02*
X41086069Y-86712136D01*
X41086069Y-86712136D02*
X41133688Y-86569279D01*
X41133688Y-86569279D02*
X41181307Y-86521660D01*
X44578450Y-89093088D02*
X44626069Y-88950231D01*
X44626069Y-88950231D02*
X44626069Y-88712136D01*
X44626069Y-88712136D02*
X44578450Y-88616898D01*
X44578450Y-88616898D02*
X44530830Y-88569279D01*
X44530830Y-88569279D02*
X44435592Y-88521660D01*
X44435592Y-88521660D02*
X44340354Y-88521660D01*
X44340354Y-88521660D02*
X44245116Y-88569279D01*
X44245116Y-88569279D02*
X44197497Y-88616898D01*
X44197497Y-88616898D02*
X44149878Y-88712136D01*
X44149878Y-88712136D02*
X44102259Y-88902612D01*
X44102259Y-88902612D02*
X44054640Y-88997850D01*
X44054640Y-88997850D02*
X44007021Y-89045469D01*
X44007021Y-89045469D02*
X43911783Y-89093088D01*
X43911783Y-89093088D02*
X43816545Y-89093088D01*
X43816545Y-89093088D02*
X43721307Y-89045469D01*
X43721307Y-89045469D02*
X43673688Y-88997850D01*
X43673688Y-88997850D02*
X43626069Y-88902612D01*
X43626069Y-88902612D02*
X43626069Y-88664517D01*
X43626069Y-88664517D02*
X43673688Y-88521660D01*
X44530830Y-87521660D02*
X44578450Y-87569279D01*
X44578450Y-87569279D02*
X44626069Y-87712136D01*
X44626069Y-87712136D02*
X44626069Y-87807374D01*
X44626069Y-87807374D02*
X44578450Y-87950231D01*
X44578450Y-87950231D02*
X44483211Y-88045469D01*
X44483211Y-88045469D02*
X44387973Y-88093088D01*
X44387973Y-88093088D02*
X44197497Y-88140707D01*
X44197497Y-88140707D02*
X44054640Y-88140707D01*
X44054640Y-88140707D02*
X43864164Y-88093088D01*
X43864164Y-88093088D02*
X43768926Y-88045469D01*
X43768926Y-88045469D02*
X43673688Y-87950231D01*
X43673688Y-87950231D02*
X43626069Y-87807374D01*
X43626069Y-87807374D02*
X43626069Y-87712136D01*
X43626069Y-87712136D02*
X43673688Y-87569279D01*
X43673688Y-87569279D02*
X43721307Y-87521660D01*
X44626069Y-87093088D02*
X43626069Y-87093088D01*
X44626069Y-86521660D02*
X44054640Y-86950231D01*
X43626069Y-86521660D02*
X44197497Y-87093088D01*
X47166069Y-89204135D02*
X46166069Y-89204135D01*
X46166069Y-89204135D02*
X46880354Y-88870802D01*
X46880354Y-88870802D02*
X46166069Y-88537469D01*
X46166069Y-88537469D02*
X47166069Y-88537469D01*
X46166069Y-87870802D02*
X46166069Y-87680326D01*
X46166069Y-87680326D02*
X46213688Y-87585088D01*
X46213688Y-87585088D02*
X46308926Y-87489850D01*
X46308926Y-87489850D02*
X46499402Y-87442231D01*
X46499402Y-87442231D02*
X46832735Y-87442231D01*
X46832735Y-87442231D02*
X47023211Y-87489850D01*
X47023211Y-87489850D02*
X47118450Y-87585088D01*
X47118450Y-87585088D02*
X47166069Y-87680326D01*
X47166069Y-87680326D02*
X47166069Y-87870802D01*
X47166069Y-87870802D02*
X47118450Y-87966040D01*
X47118450Y-87966040D02*
X47023211Y-88061278D01*
X47023211Y-88061278D02*
X46832735Y-88108897D01*
X46832735Y-88108897D02*
X46499402Y-88108897D01*
X46499402Y-88108897D02*
X46308926Y-88061278D01*
X46308926Y-88061278D02*
X46213688Y-87966040D01*
X46213688Y-87966040D02*
X46166069Y-87870802D01*
X47118450Y-87061278D02*
X47166069Y-86918421D01*
X47166069Y-86918421D02*
X47166069Y-86680326D01*
X47166069Y-86680326D02*
X47118450Y-86585088D01*
X47118450Y-86585088D02*
X47070830Y-86537469D01*
X47070830Y-86537469D02*
X46975592Y-86489850D01*
X46975592Y-86489850D02*
X46880354Y-86489850D01*
X46880354Y-86489850D02*
X46785116Y-86537469D01*
X46785116Y-86537469D02*
X46737497Y-86585088D01*
X46737497Y-86585088D02*
X46689878Y-86680326D01*
X46689878Y-86680326D02*
X46642259Y-86870802D01*
X46642259Y-86870802D02*
X46594640Y-86966040D01*
X46594640Y-86966040D02*
X46547021Y-87013659D01*
X46547021Y-87013659D02*
X46451783Y-87061278D01*
X46451783Y-87061278D02*
X46356545Y-87061278D01*
X46356545Y-87061278D02*
X46261307Y-87013659D01*
X46261307Y-87013659D02*
X46213688Y-86966040D01*
X46213688Y-86966040D02*
X46166069Y-86870802D01*
X46166069Y-86870802D02*
X46166069Y-86632707D01*
X46166069Y-86632707D02*
X46213688Y-86489850D01*
X47166069Y-86061278D02*
X46166069Y-86061278D01*
X38593688Y-88616898D02*
X38546069Y-88712136D01*
X38546069Y-88712136D02*
X38546069Y-88854993D01*
X38546069Y-88854993D02*
X38593688Y-88997850D01*
X38593688Y-88997850D02*
X38688926Y-89093088D01*
X38688926Y-89093088D02*
X38784164Y-89140707D01*
X38784164Y-89140707D02*
X38974640Y-89188326D01*
X38974640Y-89188326D02*
X39117497Y-89188326D01*
X39117497Y-89188326D02*
X39307973Y-89140707D01*
X39307973Y-89140707D02*
X39403211Y-89093088D01*
X39403211Y-89093088D02*
X39498450Y-88997850D01*
X39498450Y-88997850D02*
X39546069Y-88854993D01*
X39546069Y-88854993D02*
X39546069Y-88759755D01*
X39546069Y-88759755D02*
X39498450Y-88616898D01*
X39498450Y-88616898D02*
X39450830Y-88569279D01*
X39450830Y-88569279D02*
X39117497Y-88569279D01*
X39117497Y-88569279D02*
X39117497Y-88759755D01*
X39546069Y-88140707D02*
X38546069Y-88140707D01*
X38546069Y-88140707D02*
X39546069Y-87569279D01*
X39546069Y-87569279D02*
X38546069Y-87569279D01*
X39546069Y-87093088D02*
X38546069Y-87093088D01*
X38546069Y-87093088D02*
X38546069Y-86854993D01*
X38546069Y-86854993D02*
X38593688Y-86712136D01*
X38593688Y-86712136D02*
X38688926Y-86616898D01*
X38688926Y-86616898D02*
X38784164Y-86569279D01*
X38784164Y-86569279D02*
X38974640Y-86521660D01*
X38974640Y-86521660D02*
X39117497Y-86521660D01*
X39117497Y-86521660D02*
X39307973Y-86569279D01*
X39307973Y-86569279D02*
X39403211Y-86616898D01*
X39403211Y-86616898D02*
X39498450Y-86712136D01*
X39498450Y-86712136D02*
X39546069Y-86854993D01*
X39546069Y-86854993D02*
X39546069Y-87093088D01*
X36910830Y-88490041D02*
X36958450Y-88537660D01*
X36958450Y-88537660D02*
X37006069Y-88680517D01*
X37006069Y-88680517D02*
X37006069Y-88775755D01*
X37006069Y-88775755D02*
X36958450Y-88918612D01*
X36958450Y-88918612D02*
X36863211Y-89013850D01*
X36863211Y-89013850D02*
X36767973Y-89061469D01*
X36767973Y-89061469D02*
X36577497Y-89109088D01*
X36577497Y-89109088D02*
X36434640Y-89109088D01*
X36434640Y-89109088D02*
X36244164Y-89061469D01*
X36244164Y-89061469D02*
X36148926Y-89013850D01*
X36148926Y-89013850D02*
X36053688Y-88918612D01*
X36053688Y-88918612D02*
X36006069Y-88775755D01*
X36006069Y-88775755D02*
X36006069Y-88680517D01*
X36006069Y-88680517D02*
X36053688Y-88537660D01*
X36053688Y-88537660D02*
X36101307Y-88490041D01*
X36958450Y-88109088D02*
X37006069Y-87966231D01*
X37006069Y-87966231D02*
X37006069Y-87728136D01*
X37006069Y-87728136D02*
X36958450Y-87632898D01*
X36958450Y-87632898D02*
X36910830Y-87585279D01*
X36910830Y-87585279D02*
X36815592Y-87537660D01*
X36815592Y-87537660D02*
X36720354Y-87537660D01*
X36720354Y-87537660D02*
X36625116Y-87585279D01*
X36625116Y-87585279D02*
X36577497Y-87632898D01*
X36577497Y-87632898D02*
X36529878Y-87728136D01*
X36529878Y-87728136D02*
X36482259Y-87918612D01*
X36482259Y-87918612D02*
X36434640Y-88013850D01*
X36434640Y-88013850D02*
X36387021Y-88061469D01*
X36387021Y-88061469D02*
X36291783Y-88109088D01*
X36291783Y-88109088D02*
X36196545Y-88109088D01*
X36196545Y-88109088D02*
X36101307Y-88061469D01*
X36101307Y-88061469D02*
X36053688Y-88013850D01*
X36053688Y-88013850D02*
X36006069Y-87918612D01*
X36006069Y-87918612D02*
X36006069Y-87680517D01*
X36006069Y-87680517D02*
X36053688Y-87537660D01*
X63493155Y-126248569D02*
X63493155Y-125248569D01*
X63493155Y-125248569D02*
X63731250Y-125248569D01*
X63731250Y-125248569D02*
X63874107Y-125296188D01*
X63874107Y-125296188D02*
X63969345Y-125391426D01*
X63969345Y-125391426D02*
X64016964Y-125486664D01*
X64016964Y-125486664D02*
X64064583Y-125677140D01*
X64064583Y-125677140D02*
X64064583Y-125819997D01*
X64064583Y-125819997D02*
X64016964Y-126010473D01*
X64016964Y-126010473D02*
X63969345Y-126105711D01*
X63969345Y-126105711D02*
X63874107Y-126200950D01*
X63874107Y-126200950D02*
X63731250Y-126248569D01*
X63731250Y-126248569D02*
X63493155Y-126248569D01*
X64921726Y-125581902D02*
X64921726Y-126248569D01*
X64683631Y-125200950D02*
X64445536Y-125915235D01*
X64445536Y-125915235D02*
X65064583Y-125915235D01*
X158266964Y-84973569D02*
X158266964Y-83973569D01*
X158266964Y-83973569D02*
X158505059Y-83973569D01*
X158505059Y-83973569D02*
X158647916Y-84021188D01*
X158647916Y-84021188D02*
X158743154Y-84116426D01*
X158743154Y-84116426D02*
X158790773Y-84211664D01*
X158790773Y-84211664D02*
X158838392Y-84402140D01*
X158838392Y-84402140D02*
X158838392Y-84544997D01*
X158838392Y-84544997D02*
X158790773Y-84735473D01*
X158790773Y-84735473D02*
X158743154Y-84830711D01*
X158743154Y-84830711D02*
X158647916Y-84925950D01*
X158647916Y-84925950D02*
X158505059Y-84973569D01*
X158505059Y-84973569D02*
X158266964Y-84973569D01*
X159219345Y-84068807D02*
X159266964Y-84021188D01*
X159266964Y-84021188D02*
X159362202Y-83973569D01*
X159362202Y-83973569D02*
X159600297Y-83973569D01*
X159600297Y-83973569D02*
X159695535Y-84021188D01*
X159695535Y-84021188D02*
X159743154Y-84068807D01*
X159743154Y-84068807D02*
X159790773Y-84164045D01*
X159790773Y-84164045D02*
X159790773Y-84259283D01*
X159790773Y-84259283D02*
X159743154Y-84402140D01*
X159743154Y-84402140D02*
X159171726Y-84973569D01*
X159171726Y-84973569D02*
X159790773Y-84973569D01*
X160171726Y-84068807D02*
X160219345Y-84021188D01*
X160219345Y-84021188D02*
X160314583Y-83973569D01*
X160314583Y-83973569D02*
X160552678Y-83973569D01*
X160552678Y-83973569D02*
X160647916Y-84021188D01*
X160647916Y-84021188D02*
X160695535Y-84068807D01*
X160695535Y-84068807D02*
X160743154Y-84164045D01*
X160743154Y-84164045D02*
X160743154Y-84259283D01*
X160743154Y-84259283D02*
X160695535Y-84402140D01*
X160695535Y-84402140D02*
X160124107Y-84973569D01*
X160124107Y-84973569D02*
X160743154Y-84973569D01*
X210870220Y-67167840D02*
X211441648Y-67167840D01*
X211155934Y-68167840D02*
X211155934Y-67167840D01*
X212346410Y-68167840D02*
X212013077Y-67691649D01*
X211774982Y-68167840D02*
X211774982Y-67167840D01*
X211774982Y-67167840D02*
X212155934Y-67167840D01*
X212155934Y-67167840D02*
X212251172Y-67215459D01*
X212251172Y-67215459D02*
X212298791Y-67263078D01*
X212298791Y-67263078D02*
X212346410Y-67358316D01*
X212346410Y-67358316D02*
X212346410Y-67501173D01*
X212346410Y-67501173D02*
X212298791Y-67596411D01*
X212298791Y-67596411D02*
X212251172Y-67644030D01*
X212251172Y-67644030D02*
X212155934Y-67691649D01*
X212155934Y-67691649D02*
X211774982Y-67691649D01*
X213346410Y-68167840D02*
X213013077Y-67691649D01*
X212774982Y-68167840D02*
X212774982Y-67167840D01*
X212774982Y-67167840D02*
X213155934Y-67167840D01*
X213155934Y-67167840D02*
X213251172Y-67215459D01*
X213251172Y-67215459D02*
X213298791Y-67263078D01*
X213298791Y-67263078D02*
X213346410Y-67358316D01*
X213346410Y-67358316D02*
X213346410Y-67501173D01*
X213346410Y-67501173D02*
X213298791Y-67596411D01*
X213298791Y-67596411D02*
X213251172Y-67644030D01*
X213251172Y-67644030D02*
X213155934Y-67691649D01*
X213155934Y-67691649D02*
X212774982Y-67691649D01*
X213727363Y-68120221D02*
X213870220Y-68167840D01*
X213870220Y-68167840D02*
X214108315Y-68167840D01*
X214108315Y-68167840D02*
X214203553Y-68120221D01*
X214203553Y-68120221D02*
X214251172Y-68072601D01*
X214251172Y-68072601D02*
X214298791Y-67977363D01*
X214298791Y-67977363D02*
X214298791Y-67882125D01*
X214298791Y-67882125D02*
X214251172Y-67786887D01*
X214251172Y-67786887D02*
X214203553Y-67739268D01*
X214203553Y-67739268D02*
X214108315Y-67691649D01*
X214108315Y-67691649D02*
X213917839Y-67644030D01*
X213917839Y-67644030D02*
X213822601Y-67596411D01*
X213822601Y-67596411D02*
X213774982Y-67548792D01*
X213774982Y-67548792D02*
X213727363Y-67453554D01*
X213727363Y-67453554D02*
X213727363Y-67358316D01*
X213727363Y-67358316D02*
X213774982Y-67263078D01*
X213774982Y-67263078D02*
X213822601Y-67215459D01*
X213822601Y-67215459D02*
X213917839Y-67167840D01*
X213917839Y-67167840D02*
X214155934Y-67167840D01*
X214155934Y-67167840D02*
X214298791Y-67215459D01*
X129635416Y-82486069D02*
X129302083Y-82009878D01*
X129063988Y-82486069D02*
X129063988Y-81486069D01*
X129063988Y-81486069D02*
X129444940Y-81486069D01*
X129444940Y-81486069D02*
X129540178Y-81533688D01*
X129540178Y-81533688D02*
X129587797Y-81581307D01*
X129587797Y-81581307D02*
X129635416Y-81676545D01*
X129635416Y-81676545D02*
X129635416Y-81819402D01*
X129635416Y-81819402D02*
X129587797Y-81914640D01*
X129587797Y-81914640D02*
X129540178Y-81962259D01*
X129540178Y-81962259D02*
X129444940Y-82009878D01*
X129444940Y-82009878D02*
X129063988Y-82009878D01*
X130063988Y-81962259D02*
X130397321Y-81962259D01*
X130540178Y-82486069D02*
X130063988Y-82486069D01*
X130063988Y-82486069D02*
X130063988Y-81486069D01*
X130063988Y-81486069D02*
X130540178Y-81486069D01*
X131302083Y-81962259D02*
X130968750Y-81962259D01*
X130968750Y-82486069D02*
X130968750Y-81486069D01*
X130968750Y-81486069D02*
X131444940Y-81486069D01*
X131968750Y-81486069D02*
X131968750Y-81724164D01*
X131730655Y-81628926D02*
X131968750Y-81724164D01*
X131968750Y-81724164D02*
X132206845Y-81628926D01*
X131825893Y-81914640D02*
X131968750Y-81724164D01*
X131968750Y-81724164D02*
X132111607Y-81914640D01*
X132730655Y-81486069D02*
X132730655Y-81724164D01*
X132492560Y-81628926D02*
X132730655Y-81724164D01*
X132730655Y-81724164D02*
X132968750Y-81628926D01*
X132587798Y-81914640D02*
X132730655Y-81724164D01*
X132730655Y-81724164D02*
X132873512Y-81914640D01*
X90741666Y-68198569D02*
X90408333Y-67722378D01*
X90170238Y-68198569D02*
X90170238Y-67198569D01*
X90170238Y-67198569D02*
X90551190Y-67198569D01*
X90551190Y-67198569D02*
X90646428Y-67246188D01*
X90646428Y-67246188D02*
X90694047Y-67293807D01*
X90694047Y-67293807D02*
X90741666Y-67389045D01*
X90741666Y-67389045D02*
X90741666Y-67531902D01*
X90741666Y-67531902D02*
X90694047Y-67627140D01*
X90694047Y-67627140D02*
X90646428Y-67674759D01*
X90646428Y-67674759D02*
X90551190Y-67722378D01*
X90551190Y-67722378D02*
X90170238Y-67722378D01*
X91170238Y-67674759D02*
X91503571Y-67674759D01*
X91646428Y-68198569D02*
X91170238Y-68198569D01*
X91170238Y-68198569D02*
X91170238Y-67198569D01*
X91170238Y-67198569D02*
X91646428Y-67198569D01*
X92408333Y-67674759D02*
X92075000Y-67674759D01*
X92075000Y-68198569D02*
X92075000Y-67198569D01*
X92075000Y-67198569D02*
X92551190Y-67198569D01*
X93075000Y-67198569D02*
X93075000Y-67436664D01*
X92836905Y-67341426D02*
X93075000Y-67436664D01*
X93075000Y-67436664D02*
X93313095Y-67341426D01*
X92932143Y-67627140D02*
X93075000Y-67436664D01*
X93075000Y-67436664D02*
X93217857Y-67627140D01*
X93836905Y-67198569D02*
X93836905Y-67436664D01*
X93598810Y-67341426D02*
X93836905Y-67436664D01*
X93836905Y-67436664D02*
X94075000Y-67341426D01*
X93694048Y-67627140D02*
X93836905Y-67436664D01*
X93836905Y-67436664D02*
X93979762Y-67627140D01*
X129635416Y-63436069D02*
X129302083Y-62959878D01*
X129063988Y-63436069D02*
X129063988Y-62436069D01*
X129063988Y-62436069D02*
X129444940Y-62436069D01*
X129444940Y-62436069D02*
X129540178Y-62483688D01*
X129540178Y-62483688D02*
X129587797Y-62531307D01*
X129587797Y-62531307D02*
X129635416Y-62626545D01*
X129635416Y-62626545D02*
X129635416Y-62769402D01*
X129635416Y-62769402D02*
X129587797Y-62864640D01*
X129587797Y-62864640D02*
X129540178Y-62912259D01*
X129540178Y-62912259D02*
X129444940Y-62959878D01*
X129444940Y-62959878D02*
X129063988Y-62959878D01*
X130063988Y-62912259D02*
X130397321Y-62912259D01*
X130540178Y-63436069D02*
X130063988Y-63436069D01*
X130063988Y-63436069D02*
X130063988Y-62436069D01*
X130063988Y-62436069D02*
X130540178Y-62436069D01*
X131302083Y-62912259D02*
X130968750Y-62912259D01*
X130968750Y-63436069D02*
X130968750Y-62436069D01*
X130968750Y-62436069D02*
X131444940Y-62436069D01*
X131968750Y-62436069D02*
X131968750Y-62674164D01*
X131730655Y-62578926D02*
X131968750Y-62674164D01*
X131968750Y-62674164D02*
X132206845Y-62578926D01*
X131825893Y-62864640D02*
X131968750Y-62674164D01*
X131968750Y-62674164D02*
X132111607Y-62864640D01*
X132730655Y-62436069D02*
X132730655Y-62674164D01*
X132492560Y-62578926D02*
X132730655Y-62674164D01*
X132730655Y-62674164D02*
X132968750Y-62578926D01*
X132587798Y-62864640D02*
X132730655Y-62674164D01*
X132730655Y-62674164D02*
X132873512Y-62864640D01*
X101593155Y-62748569D02*
X101593155Y-61748569D01*
X101593155Y-61748569D02*
X101831250Y-61748569D01*
X101831250Y-61748569D02*
X101974107Y-61796188D01*
X101974107Y-61796188D02*
X102069345Y-61891426D01*
X102069345Y-61891426D02*
X102116964Y-61986664D01*
X102116964Y-61986664D02*
X102164583Y-62177140D01*
X102164583Y-62177140D02*
X102164583Y-62319997D01*
X102164583Y-62319997D02*
X102116964Y-62510473D01*
X102116964Y-62510473D02*
X102069345Y-62605711D01*
X102069345Y-62605711D02*
X101974107Y-62700950D01*
X101974107Y-62700950D02*
X101831250Y-62748569D01*
X101831250Y-62748569D02*
X101593155Y-62748569D01*
X102640774Y-62748569D02*
X102831250Y-62748569D01*
X102831250Y-62748569D02*
X102926488Y-62700950D01*
X102926488Y-62700950D02*
X102974107Y-62653330D01*
X102974107Y-62653330D02*
X103069345Y-62510473D01*
X103069345Y-62510473D02*
X103116964Y-62319997D01*
X103116964Y-62319997D02*
X103116964Y-61939045D01*
X103116964Y-61939045D02*
X103069345Y-61843807D01*
X103069345Y-61843807D02*
X103021726Y-61796188D01*
X103021726Y-61796188D02*
X102926488Y-61748569D01*
X102926488Y-61748569D02*
X102736012Y-61748569D01*
X102736012Y-61748569D02*
X102640774Y-61796188D01*
X102640774Y-61796188D02*
X102593155Y-61843807D01*
X102593155Y-61843807D02*
X102545536Y-61939045D01*
X102545536Y-61939045D02*
X102545536Y-62177140D01*
X102545536Y-62177140D02*
X102593155Y-62272378D01*
X102593155Y-62272378D02*
X102640774Y-62319997D01*
X102640774Y-62319997D02*
X102736012Y-62367616D01*
X102736012Y-62367616D02*
X102926488Y-62367616D01*
X102926488Y-62367616D02*
X103021726Y-62319997D01*
X103021726Y-62319997D02*
X103069345Y-62272378D01*
X103069345Y-62272378D02*
X103116964Y-62177140D01*
X82543155Y-123073569D02*
X82543155Y-122073569D01*
X82543155Y-122073569D02*
X82781250Y-122073569D01*
X82781250Y-122073569D02*
X82924107Y-122121188D01*
X82924107Y-122121188D02*
X83019345Y-122216426D01*
X83019345Y-122216426D02*
X83066964Y-122311664D01*
X83066964Y-122311664D02*
X83114583Y-122502140D01*
X83114583Y-122502140D02*
X83114583Y-122644997D01*
X83114583Y-122644997D02*
X83066964Y-122835473D01*
X83066964Y-122835473D02*
X83019345Y-122930711D01*
X83019345Y-122930711D02*
X82924107Y-123025950D01*
X82924107Y-123025950D02*
X82781250Y-123073569D01*
X82781250Y-123073569D02*
X82543155Y-123073569D01*
X83686012Y-122502140D02*
X83590774Y-122454521D01*
X83590774Y-122454521D02*
X83543155Y-122406902D01*
X83543155Y-122406902D02*
X83495536Y-122311664D01*
X83495536Y-122311664D02*
X83495536Y-122264045D01*
X83495536Y-122264045D02*
X83543155Y-122168807D01*
X83543155Y-122168807D02*
X83590774Y-122121188D01*
X83590774Y-122121188D02*
X83686012Y-122073569D01*
X83686012Y-122073569D02*
X83876488Y-122073569D01*
X83876488Y-122073569D02*
X83971726Y-122121188D01*
X83971726Y-122121188D02*
X84019345Y-122168807D01*
X84019345Y-122168807D02*
X84066964Y-122264045D01*
X84066964Y-122264045D02*
X84066964Y-122311664D01*
X84066964Y-122311664D02*
X84019345Y-122406902D01*
X84019345Y-122406902D02*
X83971726Y-122454521D01*
X83971726Y-122454521D02*
X83876488Y-122502140D01*
X83876488Y-122502140D02*
X83686012Y-122502140D01*
X83686012Y-122502140D02*
X83590774Y-122549759D01*
X83590774Y-122549759D02*
X83543155Y-122597378D01*
X83543155Y-122597378D02*
X83495536Y-122692616D01*
X83495536Y-122692616D02*
X83495536Y-122883092D01*
X83495536Y-122883092D02*
X83543155Y-122978330D01*
X83543155Y-122978330D02*
X83590774Y-123025950D01*
X83590774Y-123025950D02*
X83686012Y-123073569D01*
X83686012Y-123073569D02*
X83876488Y-123073569D01*
X83876488Y-123073569D02*
X83971726Y-123025950D01*
X83971726Y-123025950D02*
X84019345Y-122978330D01*
X84019345Y-122978330D02*
X84066964Y-122883092D01*
X84066964Y-122883092D02*
X84066964Y-122692616D01*
X84066964Y-122692616D02*
X84019345Y-122597378D01*
X84019345Y-122597378D02*
X83971726Y-122549759D01*
X83971726Y-122549759D02*
X83876488Y-122502140D01*
X51847916Y-122173569D02*
X51514583Y-121697378D01*
X51276488Y-122173569D02*
X51276488Y-121173569D01*
X51276488Y-121173569D02*
X51657440Y-121173569D01*
X51657440Y-121173569D02*
X51752678Y-121221188D01*
X51752678Y-121221188D02*
X51800297Y-121268807D01*
X51800297Y-121268807D02*
X51847916Y-121364045D01*
X51847916Y-121364045D02*
X51847916Y-121506902D01*
X51847916Y-121506902D02*
X51800297Y-121602140D01*
X51800297Y-121602140D02*
X51752678Y-121649759D01*
X51752678Y-121649759D02*
X51657440Y-121697378D01*
X51657440Y-121697378D02*
X51276488Y-121697378D01*
X52276488Y-121649759D02*
X52609821Y-121649759D01*
X52752678Y-122173569D02*
X52276488Y-122173569D01*
X52276488Y-122173569D02*
X52276488Y-121173569D01*
X52276488Y-121173569D02*
X52752678Y-121173569D01*
X53514583Y-121649759D02*
X53181250Y-121649759D01*
X53181250Y-122173569D02*
X53181250Y-121173569D01*
X53181250Y-121173569D02*
X53657440Y-121173569D01*
X54181250Y-121173569D02*
X54181250Y-121411664D01*
X53943155Y-121316426D02*
X54181250Y-121411664D01*
X54181250Y-121411664D02*
X54419345Y-121316426D01*
X54038393Y-121602140D02*
X54181250Y-121411664D01*
X54181250Y-121411664D02*
X54324107Y-121602140D01*
X54943155Y-121173569D02*
X54943155Y-121411664D01*
X54705060Y-121316426D02*
X54943155Y-121411664D01*
X54943155Y-121411664D02*
X55181250Y-121316426D01*
X54800298Y-121602140D02*
X54943155Y-121411664D01*
X54943155Y-121411664D02*
X55086012Y-121602140D01*
X209804166Y-111061069D02*
X209470833Y-110584878D01*
X209232738Y-111061069D02*
X209232738Y-110061069D01*
X209232738Y-110061069D02*
X209613690Y-110061069D01*
X209613690Y-110061069D02*
X209708928Y-110108688D01*
X209708928Y-110108688D02*
X209756547Y-110156307D01*
X209756547Y-110156307D02*
X209804166Y-110251545D01*
X209804166Y-110251545D02*
X209804166Y-110394402D01*
X209804166Y-110394402D02*
X209756547Y-110489640D01*
X209756547Y-110489640D02*
X209708928Y-110537259D01*
X209708928Y-110537259D02*
X209613690Y-110584878D01*
X209613690Y-110584878D02*
X209232738Y-110584878D01*
X210232738Y-110537259D02*
X210566071Y-110537259D01*
X210708928Y-111061069D02*
X210232738Y-111061069D01*
X210232738Y-111061069D02*
X210232738Y-110061069D01*
X210232738Y-110061069D02*
X210708928Y-110061069D01*
X211470833Y-110537259D02*
X211137500Y-110537259D01*
X211137500Y-111061069D02*
X211137500Y-110061069D01*
X211137500Y-110061069D02*
X211613690Y-110061069D01*
X212137500Y-110061069D02*
X212137500Y-110299164D01*
X211899405Y-110203926D02*
X212137500Y-110299164D01*
X212137500Y-110299164D02*
X212375595Y-110203926D01*
X211994643Y-110489640D02*
X212137500Y-110299164D01*
X212137500Y-110299164D02*
X212280357Y-110489640D01*
X212899405Y-110061069D02*
X212899405Y-110299164D01*
X212661310Y-110203926D02*
X212899405Y-110299164D01*
X212899405Y-110299164D02*
X213137500Y-110203926D01*
X212756548Y-110489640D02*
X212899405Y-110299164D01*
X212899405Y-110299164D02*
X213042262Y-110489640D01*
X82543155Y-65923569D02*
X82543155Y-64923569D01*
X82543155Y-64923569D02*
X82781250Y-64923569D01*
X82781250Y-64923569D02*
X82924107Y-64971188D01*
X82924107Y-64971188D02*
X83019345Y-65066426D01*
X83019345Y-65066426D02*
X83066964Y-65161664D01*
X83066964Y-65161664D02*
X83114583Y-65352140D01*
X83114583Y-65352140D02*
X83114583Y-65494997D01*
X83114583Y-65494997D02*
X83066964Y-65685473D01*
X83066964Y-65685473D02*
X83019345Y-65780711D01*
X83019345Y-65780711D02*
X82924107Y-65875950D01*
X82924107Y-65875950D02*
X82781250Y-65923569D01*
X82781250Y-65923569D02*
X82543155Y-65923569D01*
X84019345Y-64923569D02*
X83543155Y-64923569D01*
X83543155Y-64923569D02*
X83495536Y-65399759D01*
X83495536Y-65399759D02*
X83543155Y-65352140D01*
X83543155Y-65352140D02*
X83638393Y-65304521D01*
X83638393Y-65304521D02*
X83876488Y-65304521D01*
X83876488Y-65304521D02*
X83971726Y-65352140D01*
X83971726Y-65352140D02*
X84019345Y-65399759D01*
X84019345Y-65399759D02*
X84066964Y-65494997D01*
X84066964Y-65494997D02*
X84066964Y-65733092D01*
X84066964Y-65733092D02*
X84019345Y-65828330D01*
X84019345Y-65828330D02*
X83971726Y-65875950D01*
X83971726Y-65875950D02*
X83876488Y-65923569D01*
X83876488Y-65923569D02*
X83638393Y-65923569D01*
X83638393Y-65923569D02*
X83543155Y-65875950D01*
X83543155Y-65875950D02*
X83495536Y-65828330D01*
X63493155Y-88148569D02*
X63493155Y-87148569D01*
X63493155Y-87148569D02*
X63731250Y-87148569D01*
X63731250Y-87148569D02*
X63874107Y-87196188D01*
X63874107Y-87196188D02*
X63969345Y-87291426D01*
X63969345Y-87291426D02*
X64016964Y-87386664D01*
X64016964Y-87386664D02*
X64064583Y-87577140D01*
X64064583Y-87577140D02*
X64064583Y-87719997D01*
X64064583Y-87719997D02*
X64016964Y-87910473D01*
X64016964Y-87910473D02*
X63969345Y-88005711D01*
X63969345Y-88005711D02*
X63874107Y-88100950D01*
X63874107Y-88100950D02*
X63731250Y-88148569D01*
X63731250Y-88148569D02*
X63493155Y-88148569D01*
X64445536Y-87243807D02*
X64493155Y-87196188D01*
X64493155Y-87196188D02*
X64588393Y-87148569D01*
X64588393Y-87148569D02*
X64826488Y-87148569D01*
X64826488Y-87148569D02*
X64921726Y-87196188D01*
X64921726Y-87196188D02*
X64969345Y-87243807D01*
X64969345Y-87243807D02*
X65016964Y-87339045D01*
X65016964Y-87339045D02*
X65016964Y-87434283D01*
X65016964Y-87434283D02*
X64969345Y-87577140D01*
X64969345Y-87577140D02*
X64397917Y-88148569D01*
X64397917Y-88148569D02*
X65016964Y-88148569D01*
X71691666Y-71373569D02*
X71358333Y-70897378D01*
X71120238Y-71373569D02*
X71120238Y-70373569D01*
X71120238Y-70373569D02*
X71501190Y-70373569D01*
X71501190Y-70373569D02*
X71596428Y-70421188D01*
X71596428Y-70421188D02*
X71644047Y-70468807D01*
X71644047Y-70468807D02*
X71691666Y-70564045D01*
X71691666Y-70564045D02*
X71691666Y-70706902D01*
X71691666Y-70706902D02*
X71644047Y-70802140D01*
X71644047Y-70802140D02*
X71596428Y-70849759D01*
X71596428Y-70849759D02*
X71501190Y-70897378D01*
X71501190Y-70897378D02*
X71120238Y-70897378D01*
X72120238Y-70849759D02*
X72453571Y-70849759D01*
X72596428Y-71373569D02*
X72120238Y-71373569D01*
X72120238Y-71373569D02*
X72120238Y-70373569D01*
X72120238Y-70373569D02*
X72596428Y-70373569D01*
X73358333Y-70849759D02*
X73025000Y-70849759D01*
X73025000Y-71373569D02*
X73025000Y-70373569D01*
X73025000Y-70373569D02*
X73501190Y-70373569D01*
X74025000Y-70373569D02*
X74025000Y-70611664D01*
X73786905Y-70516426D02*
X74025000Y-70611664D01*
X74025000Y-70611664D02*
X74263095Y-70516426D01*
X73882143Y-70802140D02*
X74025000Y-70611664D01*
X74025000Y-70611664D02*
X74167857Y-70802140D01*
X74786905Y-70373569D02*
X74786905Y-70611664D01*
X74548810Y-70516426D02*
X74786905Y-70611664D01*
X74786905Y-70611664D02*
X75025000Y-70516426D01*
X74644048Y-70802140D02*
X74786905Y-70611664D01*
X74786905Y-70611664D02*
X74929762Y-70802140D01*
X109791666Y-64229819D02*
X109458333Y-63753628D01*
X109220238Y-64229819D02*
X109220238Y-63229819D01*
X109220238Y-63229819D02*
X109601190Y-63229819D01*
X109601190Y-63229819D02*
X109696428Y-63277438D01*
X109696428Y-63277438D02*
X109744047Y-63325057D01*
X109744047Y-63325057D02*
X109791666Y-63420295D01*
X109791666Y-63420295D02*
X109791666Y-63563152D01*
X109791666Y-63563152D02*
X109744047Y-63658390D01*
X109744047Y-63658390D02*
X109696428Y-63706009D01*
X109696428Y-63706009D02*
X109601190Y-63753628D01*
X109601190Y-63753628D02*
X109220238Y-63753628D01*
X110220238Y-63706009D02*
X110553571Y-63706009D01*
X110696428Y-64229819D02*
X110220238Y-64229819D01*
X110220238Y-64229819D02*
X110220238Y-63229819D01*
X110220238Y-63229819D02*
X110696428Y-63229819D01*
X111458333Y-63706009D02*
X111125000Y-63706009D01*
X111125000Y-64229819D02*
X111125000Y-63229819D01*
X111125000Y-63229819D02*
X111601190Y-63229819D01*
X112125000Y-63229819D02*
X112125000Y-63467914D01*
X111886905Y-63372676D02*
X112125000Y-63467914D01*
X112125000Y-63467914D02*
X112363095Y-63372676D01*
X111982143Y-63658390D02*
X112125000Y-63467914D01*
X112125000Y-63467914D02*
X112267857Y-63658390D01*
X112886905Y-63229819D02*
X112886905Y-63467914D01*
X112648810Y-63372676D02*
X112886905Y-63467914D01*
X112886905Y-63467914D02*
X113125000Y-63372676D01*
X112744048Y-63658390D02*
X112886905Y-63467914D01*
X112886905Y-63467914D02*
X113029762Y-63658390D01*
X206531548Y-97342014D02*
X205531548Y-97342014D01*
X205531548Y-97342014D02*
X205531548Y-97103919D01*
X205531548Y-97103919D02*
X205579167Y-96961062D01*
X205579167Y-96961062D02*
X205674405Y-96865824D01*
X205674405Y-96865824D02*
X205769643Y-96818205D01*
X205769643Y-96818205D02*
X205960119Y-96770586D01*
X205960119Y-96770586D02*
X206102976Y-96770586D01*
X206102976Y-96770586D02*
X206293452Y-96818205D01*
X206293452Y-96818205D02*
X206388690Y-96865824D01*
X206388690Y-96865824D02*
X206483929Y-96961062D01*
X206483929Y-96961062D02*
X206531548Y-97103919D01*
X206531548Y-97103919D02*
X206531548Y-97342014D01*
X205626786Y-96389633D02*
X205579167Y-96342014D01*
X205579167Y-96342014D02*
X205531548Y-96246776D01*
X205531548Y-96246776D02*
X205531548Y-96008681D01*
X205531548Y-96008681D02*
X205579167Y-95913443D01*
X205579167Y-95913443D02*
X205626786Y-95865824D01*
X205626786Y-95865824D02*
X205722024Y-95818205D01*
X205722024Y-95818205D02*
X205817262Y-95818205D01*
X205817262Y-95818205D02*
X205960119Y-95865824D01*
X205960119Y-95865824D02*
X206531548Y-96437252D01*
X206531548Y-96437252D02*
X206531548Y-95818205D01*
X205531548Y-94913443D02*
X205531548Y-95389633D01*
X205531548Y-95389633D02*
X206007738Y-95437252D01*
X206007738Y-95437252D02*
X205960119Y-95389633D01*
X205960119Y-95389633D02*
X205912500Y-95294395D01*
X205912500Y-95294395D02*
X205912500Y-95056300D01*
X205912500Y-95056300D02*
X205960119Y-94961062D01*
X205960119Y-94961062D02*
X206007738Y-94913443D01*
X206007738Y-94913443D02*
X206102976Y-94865824D01*
X206102976Y-94865824D02*
X206341071Y-94865824D01*
X206341071Y-94865824D02*
X206436309Y-94913443D01*
X206436309Y-94913443D02*
X206483929Y-94961062D01*
X206483929Y-94961062D02*
X206531548Y-95056300D01*
X206531548Y-95056300D02*
X206531548Y-95294395D01*
X206531548Y-95294395D02*
X206483929Y-95389633D01*
X206483929Y-95389633D02*
X206436309Y-95437252D01*
X158266964Y-65923569D02*
X158266964Y-64923569D01*
X158266964Y-64923569D02*
X158505059Y-64923569D01*
X158505059Y-64923569D02*
X158647916Y-64971188D01*
X158647916Y-64971188D02*
X158743154Y-65066426D01*
X158743154Y-65066426D02*
X158790773Y-65161664D01*
X158790773Y-65161664D02*
X158838392Y-65352140D01*
X158838392Y-65352140D02*
X158838392Y-65494997D01*
X158838392Y-65494997D02*
X158790773Y-65685473D01*
X158790773Y-65685473D02*
X158743154Y-65780711D01*
X158743154Y-65780711D02*
X158647916Y-65875950D01*
X158647916Y-65875950D02*
X158505059Y-65923569D01*
X158505059Y-65923569D02*
X158266964Y-65923569D01*
X159219345Y-65018807D02*
X159266964Y-64971188D01*
X159266964Y-64971188D02*
X159362202Y-64923569D01*
X159362202Y-64923569D02*
X159600297Y-64923569D01*
X159600297Y-64923569D02*
X159695535Y-64971188D01*
X159695535Y-64971188D02*
X159743154Y-65018807D01*
X159743154Y-65018807D02*
X159790773Y-65114045D01*
X159790773Y-65114045D02*
X159790773Y-65209283D01*
X159790773Y-65209283D02*
X159743154Y-65352140D01*
X159743154Y-65352140D02*
X159171726Y-65923569D01*
X159171726Y-65923569D02*
X159790773Y-65923569D01*
X160743154Y-65923569D02*
X160171726Y-65923569D01*
X160457440Y-65923569D02*
X160457440Y-64923569D01*
X160457440Y-64923569D02*
X160362202Y-65066426D01*
X160362202Y-65066426D02*
X160266964Y-65161664D01*
X160266964Y-65161664D02*
X160171726Y-65209283D01*
X148685416Y-66611069D02*
X148352083Y-66134878D01*
X148113988Y-66611069D02*
X148113988Y-65611069D01*
X148113988Y-65611069D02*
X148494940Y-65611069D01*
X148494940Y-65611069D02*
X148590178Y-65658688D01*
X148590178Y-65658688D02*
X148637797Y-65706307D01*
X148637797Y-65706307D02*
X148685416Y-65801545D01*
X148685416Y-65801545D02*
X148685416Y-65944402D01*
X148685416Y-65944402D02*
X148637797Y-66039640D01*
X148637797Y-66039640D02*
X148590178Y-66087259D01*
X148590178Y-66087259D02*
X148494940Y-66134878D01*
X148494940Y-66134878D02*
X148113988Y-66134878D01*
X149113988Y-66087259D02*
X149447321Y-66087259D01*
X149590178Y-66611069D02*
X149113988Y-66611069D01*
X149113988Y-66611069D02*
X149113988Y-65611069D01*
X149113988Y-65611069D02*
X149590178Y-65611069D01*
X150352083Y-66087259D02*
X150018750Y-66087259D01*
X150018750Y-66611069D02*
X150018750Y-65611069D01*
X150018750Y-65611069D02*
X150494940Y-65611069D01*
X151018750Y-65611069D02*
X151018750Y-65849164D01*
X150780655Y-65753926D02*
X151018750Y-65849164D01*
X151018750Y-65849164D02*
X151256845Y-65753926D01*
X150875893Y-66039640D02*
X151018750Y-65849164D01*
X151018750Y-65849164D02*
X151161607Y-66039640D01*
X151780655Y-65611069D02*
X151780655Y-65849164D01*
X151542560Y-65753926D02*
X151780655Y-65849164D01*
X151780655Y-65849164D02*
X152018750Y-65753926D01*
X151637798Y-66039640D02*
X151780655Y-65849164D01*
X151780655Y-65849164D02*
X151923512Y-66039640D01*
X101116964Y-119898569D02*
X101116964Y-118898569D01*
X101116964Y-118898569D02*
X101355059Y-118898569D01*
X101355059Y-118898569D02*
X101497916Y-118946188D01*
X101497916Y-118946188D02*
X101593154Y-119041426D01*
X101593154Y-119041426D02*
X101640773Y-119136664D01*
X101640773Y-119136664D02*
X101688392Y-119327140D01*
X101688392Y-119327140D02*
X101688392Y-119469997D01*
X101688392Y-119469997D02*
X101640773Y-119660473D01*
X101640773Y-119660473D02*
X101593154Y-119755711D01*
X101593154Y-119755711D02*
X101497916Y-119850950D01*
X101497916Y-119850950D02*
X101355059Y-119898569D01*
X101355059Y-119898569D02*
X101116964Y-119898569D01*
X102640773Y-119898569D02*
X102069345Y-119898569D01*
X102355059Y-119898569D02*
X102355059Y-118898569D01*
X102355059Y-118898569D02*
X102259821Y-119041426D01*
X102259821Y-119041426D02*
X102164583Y-119136664D01*
X102164583Y-119136664D02*
X102069345Y-119184283D01*
X103021726Y-118993807D02*
X103069345Y-118946188D01*
X103069345Y-118946188D02*
X103164583Y-118898569D01*
X103164583Y-118898569D02*
X103402678Y-118898569D01*
X103402678Y-118898569D02*
X103497916Y-118946188D01*
X103497916Y-118946188D02*
X103545535Y-118993807D01*
X103545535Y-118993807D02*
X103593154Y-119089045D01*
X103593154Y-119089045D02*
X103593154Y-119184283D01*
X103593154Y-119184283D02*
X103545535Y-119327140D01*
X103545535Y-119327140D02*
X102974107Y-119898569D01*
X102974107Y-119898569D02*
X103593154Y-119898569D01*
X139216964Y-81798569D02*
X139216964Y-80798569D01*
X139216964Y-80798569D02*
X139455059Y-80798569D01*
X139455059Y-80798569D02*
X139597916Y-80846188D01*
X139597916Y-80846188D02*
X139693154Y-80941426D01*
X139693154Y-80941426D02*
X139740773Y-81036664D01*
X139740773Y-81036664D02*
X139788392Y-81227140D01*
X139788392Y-81227140D02*
X139788392Y-81369997D01*
X139788392Y-81369997D02*
X139740773Y-81560473D01*
X139740773Y-81560473D02*
X139693154Y-81655711D01*
X139693154Y-81655711D02*
X139597916Y-81750950D01*
X139597916Y-81750950D02*
X139455059Y-81798569D01*
X139455059Y-81798569D02*
X139216964Y-81798569D01*
X140740773Y-81798569D02*
X140169345Y-81798569D01*
X140455059Y-81798569D02*
X140455059Y-80798569D01*
X140455059Y-80798569D02*
X140359821Y-80941426D01*
X140359821Y-80941426D02*
X140264583Y-81036664D01*
X140264583Y-81036664D02*
X140169345Y-81084283D01*
X141312202Y-81227140D02*
X141216964Y-81179521D01*
X141216964Y-81179521D02*
X141169345Y-81131902D01*
X141169345Y-81131902D02*
X141121726Y-81036664D01*
X141121726Y-81036664D02*
X141121726Y-80989045D01*
X141121726Y-80989045D02*
X141169345Y-80893807D01*
X141169345Y-80893807D02*
X141216964Y-80846188D01*
X141216964Y-80846188D02*
X141312202Y-80798569D01*
X141312202Y-80798569D02*
X141502678Y-80798569D01*
X141502678Y-80798569D02*
X141597916Y-80846188D01*
X141597916Y-80846188D02*
X141645535Y-80893807D01*
X141645535Y-80893807D02*
X141693154Y-80989045D01*
X141693154Y-80989045D02*
X141693154Y-81036664D01*
X141693154Y-81036664D02*
X141645535Y-81131902D01*
X141645535Y-81131902D02*
X141597916Y-81179521D01*
X141597916Y-81179521D02*
X141502678Y-81227140D01*
X141502678Y-81227140D02*
X141312202Y-81227140D01*
X141312202Y-81227140D02*
X141216964Y-81274759D01*
X141216964Y-81274759D02*
X141169345Y-81322378D01*
X141169345Y-81322378D02*
X141121726Y-81417616D01*
X141121726Y-81417616D02*
X141121726Y-81608092D01*
X141121726Y-81608092D02*
X141169345Y-81703330D01*
X141169345Y-81703330D02*
X141216964Y-81750950D01*
X141216964Y-81750950D02*
X141312202Y-81798569D01*
X141312202Y-81798569D02*
X141502678Y-81798569D01*
X141502678Y-81798569D02*
X141597916Y-81750950D01*
X141597916Y-81750950D02*
X141645535Y-81703330D01*
X141645535Y-81703330D02*
X141693154Y-81608092D01*
X141693154Y-81608092D02*
X141693154Y-81417616D01*
X141693154Y-81417616D02*
X141645535Y-81322378D01*
X141645535Y-81322378D02*
X141597916Y-81274759D01*
X141597916Y-81274759D02*
X141502678Y-81227140D01*
X47701819Y-107650083D02*
X48416104Y-107650083D01*
X48416104Y-107650083D02*
X48558961Y-107697702D01*
X48558961Y-107697702D02*
X48654200Y-107792940D01*
X48654200Y-107792940D02*
X48701819Y-107935797D01*
X48701819Y-107935797D02*
X48701819Y-108031035D01*
X47797057Y-107221511D02*
X47749438Y-107173892D01*
X47749438Y-107173892D02*
X47701819Y-107078654D01*
X47701819Y-107078654D02*
X47701819Y-106840559D01*
X47701819Y-106840559D02*
X47749438Y-106745321D01*
X47749438Y-106745321D02*
X47797057Y-106697702D01*
X47797057Y-106697702D02*
X47892295Y-106650083D01*
X47892295Y-106650083D02*
X47987533Y-106650083D01*
X47987533Y-106650083D02*
X48130390Y-106697702D01*
X48130390Y-106697702D02*
X48701819Y-107269130D01*
X48701819Y-107269130D02*
X48701819Y-106650083D01*
X41044200Y-121664595D02*
X41110866Y-121464595D01*
X41110866Y-121464595D02*
X41110866Y-121131262D01*
X41110866Y-121131262D02*
X41044200Y-120997928D01*
X41044200Y-120997928D02*
X40977533Y-120931262D01*
X40977533Y-120931262D02*
X40844200Y-120864595D01*
X40844200Y-120864595D02*
X40710866Y-120864595D01*
X40710866Y-120864595D02*
X40577533Y-120931262D01*
X40577533Y-120931262D02*
X40510866Y-120997928D01*
X40510866Y-120997928D02*
X40444200Y-121131262D01*
X40444200Y-121131262D02*
X40377533Y-121397928D01*
X40377533Y-121397928D02*
X40310866Y-121531262D01*
X40310866Y-121531262D02*
X40244200Y-121597928D01*
X40244200Y-121597928D02*
X40110866Y-121664595D01*
X40110866Y-121664595D02*
X39977533Y-121664595D01*
X39977533Y-121664595D02*
X39844200Y-121597928D01*
X39844200Y-121597928D02*
X39777533Y-121531262D01*
X39777533Y-121531262D02*
X39710866Y-121397928D01*
X39710866Y-121397928D02*
X39710866Y-121064595D01*
X39710866Y-121064595D02*
X39777533Y-120864595D01*
X39710866Y-120397929D02*
X41110866Y-120064595D01*
X41110866Y-120064595D02*
X40110866Y-119797929D01*
X40110866Y-119797929D02*
X41110866Y-119531262D01*
X41110866Y-119531262D02*
X39710866Y-119197929D01*
X41110866Y-117931262D02*
X41110866Y-118731262D01*
X41110866Y-118331262D02*
X39710866Y-118331262D01*
X39710866Y-118331262D02*
X39910866Y-118464595D01*
X39910866Y-118464595D02*
X40044200Y-118597929D01*
X40044200Y-118597929D02*
X40110866Y-118731262D01*
X44698569Y-129213154D02*
X44698569Y-128641726D01*
X45698569Y-128927440D02*
X44698569Y-128927440D01*
X45698569Y-127736964D02*
X45222378Y-128070297D01*
X45698569Y-128308392D02*
X44698569Y-128308392D01*
X44698569Y-128308392D02*
X44698569Y-127927440D01*
X44698569Y-127927440D02*
X44746188Y-127832202D01*
X44746188Y-127832202D02*
X44793807Y-127784583D01*
X44793807Y-127784583D02*
X44889045Y-127736964D01*
X44889045Y-127736964D02*
X45031902Y-127736964D01*
X45031902Y-127736964D02*
X45127140Y-127784583D01*
X45127140Y-127784583D02*
X45174759Y-127832202D01*
X45174759Y-127832202D02*
X45222378Y-127927440D01*
X45222378Y-127927440D02*
X45222378Y-128308392D01*
X45698569Y-126736964D02*
X45222378Y-127070297D01*
X45698569Y-127308392D02*
X44698569Y-127308392D01*
X44698569Y-127308392D02*
X44698569Y-126927440D01*
X44698569Y-126927440D02*
X44746188Y-126832202D01*
X44746188Y-126832202D02*
X44793807Y-126784583D01*
X44793807Y-126784583D02*
X44889045Y-126736964D01*
X44889045Y-126736964D02*
X45031902Y-126736964D01*
X45031902Y-126736964D02*
X45127140Y-126784583D01*
X45127140Y-126784583D02*
X45174759Y-126832202D01*
X45174759Y-126832202D02*
X45222378Y-126927440D01*
X45222378Y-126927440D02*
X45222378Y-127308392D01*
X45650950Y-126356011D02*
X45698569Y-126213154D01*
X45698569Y-126213154D02*
X45698569Y-125975059D01*
X45698569Y-125975059D02*
X45650950Y-125879821D01*
X45650950Y-125879821D02*
X45603330Y-125832202D01*
X45603330Y-125832202D02*
X45508092Y-125784583D01*
X45508092Y-125784583D02*
X45412854Y-125784583D01*
X45412854Y-125784583D02*
X45317616Y-125832202D01*
X45317616Y-125832202D02*
X45269997Y-125879821D01*
X45269997Y-125879821D02*
X45222378Y-125975059D01*
X45222378Y-125975059D02*
X45174759Y-126165535D01*
X45174759Y-126165535D02*
X45127140Y-126260773D01*
X45127140Y-126260773D02*
X45079521Y-126308392D01*
X45079521Y-126308392D02*
X44984283Y-126356011D01*
X44984283Y-126356011D02*
X44889045Y-126356011D01*
X44889045Y-126356011D02*
X44793807Y-126308392D01*
X44793807Y-126308392D02*
X44746188Y-126260773D01*
X44746188Y-126260773D02*
X44698569Y-126165535D01*
X44698569Y-126165535D02*
X44698569Y-125927440D01*
X44698569Y-125927440D02*
X44746188Y-125784583D01*
D11*
%TO.C,D28*%
X188843750Y-64563504D02*
X188843750Y-62563504D01*
X188843750Y-64563504D02*
X184943750Y-64563504D01*
X188843750Y-62563504D02*
X184943750Y-62563504D01*
%TO.C,D3*%
X61981250Y-107743750D02*
X61981250Y-109743750D01*
X61981250Y-107743750D02*
X65881250Y-107743750D01*
X61981250Y-109743750D02*
X65881250Y-109743750D01*
%TO.C,D27*%
X188843750Y-83613504D02*
X188843750Y-81613504D01*
X188843750Y-83613504D02*
X184943750Y-83613504D01*
X188843750Y-81613504D02*
X184943750Y-81613504D01*
%TO.C,D13*%
X119131250Y-60118750D02*
X119131250Y-62118750D01*
X119131250Y-60118750D02*
X123031250Y-60118750D01*
X119131250Y-62118750D02*
X123031250Y-62118750D01*
%TO.C,D6*%
X81031250Y-85518750D02*
X81031250Y-87518750D01*
X81031250Y-85518750D02*
X84931250Y-85518750D01*
X81031250Y-87518750D02*
X84931250Y-87518750D01*
%TO.C,D17*%
X138181250Y-63293750D02*
X138181250Y-65293750D01*
X138181250Y-63293750D02*
X142081250Y-63293750D01*
X138181250Y-65293750D02*
X142081250Y-65293750D01*
%TO.C,D14*%
X119131250Y-79168750D02*
X119131250Y-81168750D01*
X119131250Y-79168750D02*
X123031250Y-79168750D01*
X119131250Y-81168750D02*
X123031250Y-81168750D01*
%TO.C,D24*%
X157231250Y-123618750D02*
X157231250Y-125618750D01*
X157231250Y-123618750D02*
X161131250Y-123618750D01*
X157231250Y-125618750D02*
X161131250Y-125618750D01*
%TO.C,D7*%
X81031250Y-104568750D02*
X81031250Y-106568750D01*
X81031250Y-104568750D02*
X84931250Y-104568750D01*
X81031250Y-106568750D02*
X84931250Y-106568750D01*
%TO.C,D1*%
X61981250Y-69643750D02*
X61981250Y-71643750D01*
X61981250Y-69643750D02*
X65881250Y-69643750D01*
X61981250Y-71643750D02*
X65881250Y-71643750D01*
%TO.C,D19*%
X138181250Y-101393750D02*
X138181250Y-103393750D01*
X138181250Y-101393750D02*
X142081250Y-101393750D01*
X138181250Y-103393750D02*
X142081250Y-103393750D01*
%TO.C,D20*%
X138181250Y-120443750D02*
X138181250Y-122443750D01*
X138181250Y-120443750D02*
X142081250Y-120443750D01*
X138181250Y-122443750D02*
X142081250Y-122443750D01*
%TO.C,D11*%
X100081250Y-101393750D02*
X100081250Y-103393750D01*
X100081250Y-101393750D02*
X103981250Y-101393750D01*
X100081250Y-103393750D02*
X103981250Y-103393750D01*
%TO.C,D23*%
X157231250Y-104568750D02*
X157231250Y-106568750D01*
X157231250Y-104568750D02*
X161131250Y-104568750D01*
X157231250Y-106568750D02*
X161131250Y-106568750D01*
%TO.C,D15*%
X119131250Y-98218750D02*
X119131250Y-100218750D01*
X119131250Y-98218750D02*
X123031250Y-98218750D01*
X119131250Y-100218750D02*
X123031250Y-100218750D01*
%TO.C,D10*%
X100081250Y-82343750D02*
X100081250Y-84343750D01*
X100081250Y-82343750D02*
X103981250Y-82343750D01*
X100081250Y-84343750D02*
X103981250Y-84343750D01*
%TO.C,D16*%
X119131250Y-117268750D02*
X119131250Y-119268750D01*
X119131250Y-117268750D02*
X123031250Y-117268750D01*
X119131250Y-119268750D02*
X123031250Y-119268750D01*
%TO.C,J1*%
X47531250Y-92840500D02*
X45531250Y-92840500D01*
X47531250Y-90040500D02*
X47531250Y-92840500D01*
X45531250Y-92840500D02*
X45531250Y-90040500D01*
X45531250Y-90040500D02*
X47531250Y-90040500D01*
X45031250Y-92840500D02*
X43031250Y-92840500D01*
X45031250Y-90040500D02*
X45031250Y-92840500D01*
X43031250Y-92840500D02*
X43031250Y-90040500D01*
X43031250Y-90040500D02*
X45031250Y-90040500D01*
X42531250Y-92840500D02*
X40531250Y-92840500D01*
X42531250Y-90040500D02*
X42531250Y-92840500D01*
X40531250Y-92840500D02*
X40531250Y-90040500D01*
X40531250Y-90040500D02*
X42531250Y-90040500D01*
X40031250Y-92840500D02*
X38031250Y-92840500D01*
X40031250Y-90040500D02*
X40031250Y-92840500D01*
X38031250Y-92840500D02*
X38031250Y-90040500D01*
X38031250Y-90040500D02*
X40031250Y-90040500D01*
X37531250Y-92840500D02*
X35531250Y-92840500D01*
X37531250Y-90040500D02*
X37531250Y-92840500D01*
X35531250Y-92840500D02*
X35531250Y-90040500D01*
X35531250Y-90040500D02*
X37531250Y-90040500D01*
%TO.C,D4*%
X61981250Y-126793750D02*
X61981250Y-128793750D01*
X61981250Y-126793750D02*
X65881250Y-126793750D01*
X61981250Y-128793750D02*
X65881250Y-128793750D01*
%TO.C,D22*%
X157231250Y-85518750D02*
X157231250Y-87518750D01*
X157231250Y-85518750D02*
X161131250Y-85518750D01*
X157231250Y-87518750D02*
X161131250Y-87518750D01*
D10*
%TO.C,U3*%
X217562125Y-64813021D02*
X217562125Y-70613021D01*
X205812125Y-64813021D02*
X217562125Y-64813021D01*
X217562125Y-70613021D02*
X205812125Y-70613021D01*
X205812125Y-70613021D02*
X205812125Y-64813021D01*
D11*
%TO.C,D9*%
X100081250Y-63293750D02*
X100081250Y-65293750D01*
X100081250Y-63293750D02*
X103981250Y-63293750D01*
X100081250Y-65293750D02*
X103981250Y-65293750D01*
%TO.C,D8*%
X81031250Y-123618750D02*
X81031250Y-125618750D01*
X81031250Y-123618750D02*
X84931250Y-123618750D01*
X81031250Y-125618750D02*
X84931250Y-125618750D01*
%TO.C,D5*%
X81031250Y-66468750D02*
X81031250Y-68468750D01*
X81031250Y-66468750D02*
X84931250Y-66468750D01*
X81031250Y-68468750D02*
X84931250Y-68468750D01*
%TO.C,D2*%
X61981250Y-88693750D02*
X61981250Y-90693750D01*
X61981250Y-88693750D02*
X65881250Y-88693750D01*
X61981250Y-90693750D02*
X65881250Y-90693750D01*
%TO.C,D25*%
X205076729Y-93877729D02*
X203076729Y-93877729D01*
X205076729Y-93877729D02*
X205076729Y-97777729D01*
X203076729Y-93877729D02*
X203076729Y-97777729D01*
%TO.C,D21*%
X157231250Y-66468750D02*
X157231250Y-68468750D01*
X157231250Y-66468750D02*
X161131250Y-66468750D01*
X157231250Y-68468750D02*
X161131250Y-68468750D01*
D12*
%TO.C,SW0*%
X49005650Y-89881702D02*
X49005650Y-93132902D01*
X51748850Y-93132902D02*
X51748850Y-89881702D01*
D11*
%TO.C,D12*%
X100081250Y-120443750D02*
X100081250Y-122443750D01*
X100081250Y-120443750D02*
X103981250Y-120443750D01*
X100081250Y-122443750D02*
X103981250Y-122443750D01*
%TO.C,D18*%
X138181250Y-82343750D02*
X138181250Y-84343750D01*
X138181250Y-82343750D02*
X142081250Y-82343750D01*
X138181250Y-84343750D02*
X142081250Y-84343750D01*
%TO.C,J2*%
X39337000Y-109376750D02*
X47157000Y-109376750D01*
X45557000Y-109376750D02*
X45557000Y-108456750D01*
X47157000Y-109376750D02*
X47157000Y-108456750D01*
X41597000Y-108616750D02*
X41597000Y-107616750D01*
X43197000Y-108616750D02*
X41597000Y-108616750D01*
X45557000Y-108456750D02*
X45557000Y-108176750D01*
X47157000Y-108456750D02*
X45557000Y-108456750D01*
X41597000Y-107616750D02*
X43197000Y-107616750D01*
X43197000Y-107616750D02*
X43197000Y-108616750D01*
X43697000Y-106816750D02*
X39337000Y-106816750D01*
X39337000Y-105816750D02*
X43697000Y-105816750D01*
X43697000Y-105816750D02*
X43697000Y-106816750D01*
X41597000Y-105016750D02*
X39337000Y-105016750D01*
X41597000Y-105016750D02*
X43197000Y-105016750D01*
X43197000Y-105016750D02*
X43197000Y-104016750D01*
X41597000Y-104516750D02*
X39337000Y-104516750D01*
X45557000Y-104456750D02*
X46772000Y-104456750D01*
X45557000Y-104456750D02*
X45557000Y-104176750D01*
X45557000Y-104176750D02*
X47157000Y-104176750D01*
X47157000Y-104176750D02*
X47157000Y-103256750D01*
X41597000Y-104016750D02*
X41597000Y-105016750D01*
X43197000Y-104016750D02*
X41597000Y-104016750D01*
X39337000Y-103256750D02*
X39337000Y-109376750D01*
X45557000Y-103256750D02*
X45557000Y-104176750D01*
X47157000Y-103256750D02*
X39337000Y-103256750D01*
D10*
%TO.C,U1*%
X50421250Y-54551679D02*
X32641250Y-54551679D01*
X50421250Y-54551679D02*
X50421250Y-85031679D01*
X32641250Y-54551679D02*
X32641250Y-85031679D01*
X32641250Y-85031679D02*
X50421250Y-85031679D01*
D13*
%TO.C,SW1*%
X36821000Y-123147929D02*
X36221000Y-123147929D01*
X37821000Y-118197929D02*
X37821000Y-119897929D01*
X35221000Y-116897929D02*
X35221000Y-122697929D01*
X36221000Y-116447929D02*
X36821000Y-116447929D01*
D14*
X39121000Y-116597929D02*
G75*
G03*
X39121000Y-116597929I-100000J0D01*
G01*
D10*
%TO.C,U2*%
X42343750Y-120631250D02*
X48143750Y-120631250D01*
X42343750Y-132381250D02*
X42343750Y-120631250D01*
X48143750Y-120631250D02*
X48143750Y-132381250D01*
X48143750Y-132381250D02*
X42343750Y-132381250D01*
D11*
%TO.C,D26*%
X188843750Y-100663504D02*
X184943750Y-100663504D01*
X188843750Y-102663504D02*
X184943750Y-102663504D01*
X188843750Y-102663504D02*
X188843750Y-100663504D01*
%TD*%
M02*
