M48
; DRILL file {KiCad 7.0.7} date Sun Aug 27 15:15:02 2023
; FORMAT={-:-/ absolute / inch / decimal}
; #@! TF.CreationDate,2023-08-27T15:15:02-04:00
; #@! TF.GenerationSoftware,Kicad,Pcbnew,7.0.7
; #@! TF.FileFunction,NonPlated,1,2,NPTH
FMAT,2
INCH
; #@! TA.AperFunction,NonPlated,NPTH,ComponentDrill
T1C0.0310
; #@! TA.AperFunction,NonPlated,NPTH,ComponentDrill
T2C0.0354
; #@! TA.AperFunction,NonPlated,NPTH,ComponentDrill
T3C0.0472
; #@! TA.AperFunction,NonPlated,NPTH,ComponentDrill
T4C0.0689
; #@! TA.AperFunction,NonPlated,NPTH,ComponentDrill
T5C0.1181
; #@! TA.AperFunction,NonPlated,NPTH,ComponentDrill
T6C0.1200
; #@! TA.AperFunction,NonPlated,NPTH,ComponentDrill
T7C0.1570
%
G90
G05
T1
X6.7188Y-2.4562
X6.7188Y-2.5063
X6.7188Y-2.5562
X6.7188Y-2.6062
X6.7188Y-2.6562
X6.7188Y-2.7062
X6.7188Y-2.7563
X6.7188Y-2.8062
X6.7188Y-2.8562
X6.7188Y-2.9062
X6.7188Y-2.9562
X6.7188Y-3.0063
X6.7188Y-3.0562
X6.7188Y-3.1062
X6.7188Y-3.1562
X6.7188Y-3.2062
X6.7188Y-3.2563
X6.7188Y-3.3062
X6.7188Y-3.3562
X6.7188Y-3.4062
X6.7188Y-3.4562
X6.7188Y-3.5063
X6.7188Y-3.5562
X6.7188Y-3.6062
X6.7188Y-3.6562
X6.7188Y-3.7062
X6.7188Y-3.7563
X6.7188Y-3.8062
X6.7188Y-3.8562
X6.7188Y-3.9062
X6.7188Y-3.9562
X6.7188Y-4.0062
X6.7188Y-4.0562
X6.7188Y-4.1063
X6.7188Y-4.1562
X6.7188Y-4.2062
X6.7188Y-4.2562
X6.7188Y-4.3062
X6.7188Y-4.3563
X6.7188Y-4.4062
X6.7188Y-4.4562
X6.7188Y-4.5062
T2
X1.4378Y-4.6574
X1.4378Y-4.6574
X1.4378Y-4.7755
X1.4378Y-4.7755
T3
X1.7812Y-4.8831
X1.7812Y-4.8831
X1.7812Y-5.1587
X1.7812Y-5.1587
X8.2367Y-2.6659
X8.2367Y-2.6659
X8.5123Y-2.6659
X8.5123Y-2.6659
T4
X2.3288Y-2.5312
X2.3288Y-2.5312
X2.3288Y-3.2812
X2.3288Y-3.2812
X2.3288Y-4.0312
X2.3288Y-4.0312
X2.3288Y-4.7812
X2.3288Y-4.7812
X2.7288Y-2.5312
X2.7288Y-2.5312
X2.7288Y-3.2812
X2.7288Y-3.2812
X2.7288Y-4.0312
X2.7288Y-4.0312
X2.7288Y-4.7812
X2.7288Y-4.7812
X3.0788Y-2.4062
X3.0788Y-2.4062
X3.0788Y-3.1562
X3.0788Y-3.1562
X3.0788Y-3.9062
X3.0788Y-3.9062
X3.0788Y-4.6562
X3.0788Y-4.6562
X3.4788Y-2.4062
X3.4788Y-2.4062
X3.4788Y-3.1562
X3.4788Y-3.1562
X3.4788Y-3.9062
X3.4788Y-3.9062
X3.4788Y-4.6562
X3.4788Y-4.6562
X3.8288Y-2.2812
X3.8288Y-2.2812
X3.8288Y-3.0312
X3.8288Y-3.0312
X3.8288Y-3.7812
X3.8288Y-3.7812
X3.8288Y-4.5312
X3.8288Y-4.5312
X4.2288Y-2.2812
X4.2288Y-2.2812
X4.2288Y-3.0312
X4.2288Y-3.0312
X4.2288Y-3.7812
X4.2288Y-3.7812
X4.2288Y-4.5312
X4.2288Y-4.5312
X4.5788Y-2.1562
X4.5788Y-2.1562
X4.5788Y-2.9062
X4.5788Y-2.9062
X4.5788Y-3.6562
X4.5788Y-3.6562
X4.5788Y-4.4062
X4.5788Y-4.4062
X4.9788Y-2.1562
X4.9788Y-2.1562
X4.9788Y-2.9062
X4.9788Y-2.9062
X4.9788Y-3.6562
X4.9788Y-3.6562
X4.9788Y-4.4062
X4.9788Y-4.4062
X5.3288Y-2.2812
X5.3288Y-2.2812
X5.3288Y-3.0312
X5.3288Y-3.0312
X5.3288Y-3.7812
X5.3288Y-3.7812
X5.3288Y-4.5312
X5.3288Y-4.5312
X5.7288Y-2.2812
X5.7288Y-2.2812
X5.7288Y-3.0312
X5.7288Y-3.0312
X5.7288Y-3.7812
X5.7288Y-3.7812
X5.7288Y-4.5312
X5.7288Y-4.5312
X6.0788Y-2.4062
X6.0788Y-2.4062
X6.0788Y-3.1562
X6.0788Y-3.1562
X6.0788Y-3.9062
X6.0788Y-3.9062
X6.0788Y-4.6562
X6.0788Y-4.6562
X6.4788Y-2.4062
X6.4788Y-2.4062
X6.4788Y-3.1562
X6.4788Y-3.1562
X6.4788Y-3.9062
X6.4788Y-3.9062
X6.4788Y-4.6562
X6.4788Y-4.6562
X7.1462Y-2.7525
X7.1462Y-2.7525
X7.1462Y-3.5025
X7.1462Y-3.5025
X7.1462Y-4.2525
X7.1462Y-4.2525
X7.5462Y-2.7525
X7.5462Y-2.7525
X7.5462Y-3.5025
X7.5462Y-3.5025
X7.5462Y-4.2525
X7.5462Y-4.2525
X8.2845Y-3.5846
X8.2845Y-3.9846
T5
X2.3788Y-2.4312
X2.3788Y-3.1812
X2.3788Y-3.9312
X2.3788Y-4.6812
X2.4288Y-2.3312
X2.4288Y-3.0812
X2.4288Y-3.8312
X2.4288Y-4.5812
X2.6288Y-2.3312
X2.6288Y-3.0812
X2.6288Y-3.8312
X2.6288Y-4.5812
X2.6788Y-2.4312
X2.6788Y-3.1812
X2.6788Y-3.9312
X2.6788Y-4.6812
X3.1288Y-2.3062
X3.1288Y-3.0562
X3.1288Y-3.8062
X3.1288Y-4.5562
X3.1788Y-2.2062
X3.1788Y-2.9562
X3.1788Y-3.7062
X3.1788Y-4.4562
X3.3788Y-2.2062
X3.3788Y-2.9562
X3.3788Y-3.7062
X3.3788Y-4.4562
X3.4288Y-2.3062
X3.4288Y-3.0562
X3.4288Y-3.8062
X3.4288Y-4.5562
X3.8788Y-2.1812
X3.8788Y-2.9312
X3.8788Y-3.6812
X3.8788Y-4.4312
X3.9288Y-2.0812
X3.9288Y-2.8312
X3.9288Y-3.5812
X3.9288Y-4.3312
X4.1288Y-2.0812
X4.1288Y-2.8312
X4.1288Y-3.5812
X4.1288Y-4.3312
X4.1788Y-2.1812
X4.1788Y-2.9312
X4.1788Y-3.6812
X4.1788Y-4.4312
X4.6288Y-2.0562
X4.6288Y-2.8062
X4.6288Y-3.5562
X4.6288Y-4.3062
X4.6788Y-1.9563
X4.6788Y-2.7062
X4.6788Y-3.4562
X4.6788Y-4.2062
X4.8788Y-1.9563
X4.8788Y-2.7062
X4.8788Y-3.4562
X4.8788Y-4.2062
X4.9288Y-2.0562
X4.9288Y-2.8062
X4.9288Y-3.5562
X4.9288Y-4.3062
X5.3788Y-2.1812
X5.3788Y-2.9312
X5.3788Y-3.6812
X5.3788Y-4.4312
X5.4288Y-2.0812
X5.4288Y-2.8312
X5.4288Y-3.5812
X5.4288Y-4.3312
X5.6288Y-2.0812
X5.6288Y-2.8312
X5.6288Y-3.5812
X5.6288Y-4.3312
X5.6788Y-2.1812
X5.6788Y-2.9312
X5.6788Y-3.6812
X5.6788Y-4.4312
X6.1288Y-2.3062
X6.1288Y-3.0562
X6.1288Y-3.8062
X6.1288Y-4.5562
X6.1788Y-2.2062
X6.1788Y-2.9562
X6.1788Y-3.7062
X6.1788Y-4.4562
X6.3788Y-2.2062
X6.3788Y-2.9562
X6.3788Y-3.7062
X6.3788Y-4.4562
X6.4288Y-2.3062
X6.4288Y-3.0562
X6.4288Y-3.8062
X6.4288Y-4.5562
X7.1962Y-2.8525
X7.1962Y-3.6025
X7.1962Y-4.3525
X7.2462Y-2.9525
X7.2462Y-3.7025
X7.2462Y-4.4525
X7.4462Y-2.9525
X7.4462Y-3.7025
X7.4462Y-4.4525
X7.4962Y-2.8525
X7.4962Y-3.6025
X7.4962Y-4.3525
X8.3845Y-3.6346
X8.3845Y-3.9346
X8.4845Y-3.6846
X8.4845Y-3.8846
T6
X8.5595Y-3.3146
X8.5595Y-4.2546
T7
X2.5288Y-2.5312
X2.5288Y-2.5312
X2.5288Y-3.2812
X2.5288Y-3.2812
X2.5288Y-4.0312
X2.5288Y-4.0312
X2.5288Y-4.7812
X2.5288Y-4.7812
X3.2788Y-2.4062
X3.2788Y-2.4062
X3.2788Y-3.1562
X3.2788Y-3.1562
X3.2788Y-3.9062
X3.2788Y-3.9062
X3.2788Y-4.6562
X3.2788Y-4.6562
X4.0288Y-2.2812
X4.0288Y-2.2812
X4.0288Y-3.0312
X4.0288Y-3.0312
X4.0288Y-3.7812
X4.0288Y-3.7812
X4.0288Y-4.5312
X4.0288Y-4.5312
X4.7788Y-2.1562
X4.7788Y-2.1562
X4.7788Y-2.9062
X4.7788Y-2.9062
X4.7788Y-3.6562
X4.7788Y-3.6562
X4.7788Y-4.4062
X4.7788Y-4.4062
X5.5288Y-2.2812
X5.5288Y-2.2812
X5.5288Y-3.0312
X5.5288Y-3.0312
X5.5288Y-3.7812
X5.5288Y-3.7812
X5.5288Y-4.5312
X5.5288Y-4.5312
X6.2788Y-2.4062
X6.2788Y-2.4062
X6.2788Y-3.1562
X6.2788Y-3.1562
X6.2788Y-3.9062
X6.2788Y-3.9062
X6.2788Y-4.6562
X6.2788Y-4.6562
X7.3462Y-2.7525
X7.3462Y-2.7525
X7.3462Y-3.5025
X7.3462Y-3.5025
X7.3462Y-4.2525
X7.3462Y-4.2525
X7.9595Y-3.3146
X7.9595Y-4.2546
X8.2845Y-3.7846
T0
M30
